%TF.GenerationSoftware,KiCad,Pcbnew,7.0.2*%
%TF.CreationDate,2024-03-22T10:09:10-05:00*%
%TF.ProjectId,02_capsule5_right,30325f63-6170-4737-956c-65355f726967,v1.0.0*%
%TF.SameCoordinates,Original*%
%TF.FileFunction,Paste,Bot*%
%TF.FilePolarity,Positive*%
%FSLAX46Y46*%
G04 Gerber Fmt 4.6, Leading zero omitted, Abs format (unit mm)*
G04 Created by KiCad (PCBNEW 7.0.2) date 2024-03-22 10:09:10*
%MOMM*%
%LPD*%
G01*
G04 APERTURE LIST*
G04 Aperture macros list*
%AMRoundRect*
0 Rectangle with rounded corners*
0 $1 Rounding radius*
0 $2 $3 $4 $5 $6 $7 $8 $9 X,Y pos of 4 corners*
0 Add a 4 corners polygon primitive as box body*
4,1,4,$2,$3,$4,$5,$6,$7,$8,$9,$2,$3,0*
0 Add four circle primitives for the rounded corners*
1,1,$1+$1,$2,$3*
1,1,$1+$1,$4,$5*
1,1,$1+$1,$6,$7*
1,1,$1+$1,$8,$9*
0 Add four rect primitives between the rounded corners*
20,1,$1+$1,$2,$3,$4,$5,0*
20,1,$1+$1,$4,$5,$6,$7,0*
20,1,$1+$1,$6,$7,$8,$9,0*
20,1,$1+$1,$8,$9,$2,$3,0*%
G04 Aperture macros list end*
%ADD10RoundRect,0.225000X0.250000X-0.225000X0.250000X0.225000X-0.250000X0.225000X-0.250000X-0.225000X0*%
%ADD11RoundRect,0.112500X-0.112500X0.187500X-0.112500X-0.187500X0.112500X-0.187500X0.112500X0.187500X0*%
%ADD12R,1.300000X0.700000*%
%ADD13RoundRect,0.225000X0.225000X0.250000X-0.225000X0.250000X-0.225000X-0.250000X0.225000X-0.250000X0*%
%ADD14R,0.700000X1.300000*%
%ADD15O,1.200000X0.750000*%
%ADD16O,2.100000X0.750000*%
%ADD17O,1.400000X0.750000*%
%ADD18RoundRect,0.225000X-0.250000X0.225000X-0.250000X-0.225000X0.250000X-0.225000X0.250000X0.225000X0*%
%ADD19R,1.100000X0.600000*%
%ADD20R,1.100000X0.300000*%
%ADD21RoundRect,0.112500X0.187500X0.112500X-0.187500X0.112500X-0.187500X-0.112500X0.187500X-0.112500X0*%
%ADD22R,0.650000X1.560000*%
G04 APERTURE END LIST*
D10*
%TO.C,C6*%
X227750000Y-70800000D03*
X227750000Y-69250000D03*
%TD*%
D11*
%TO.C,D14*%
X176090478Y-108685769D03*
X176090478Y-110785769D03*
%TD*%
D10*
%TO.C,C2*%
X227750000Y-54050000D03*
X227750000Y-52500000D03*
%TD*%
D11*
%TO.C,D06*%
X224040478Y-71235769D03*
X224040478Y-73335769D03*
%TD*%
D10*
%TO.C,C3*%
X211000000Y-50000000D03*
X211000000Y-48450000D03*
%TD*%
D12*
%TO.C,R4*%
X186109807Y-88000000D03*
X186109807Y-86100000D03*
%TD*%
D10*
%TO.C,C13*%
X185250000Y-104800000D03*
X185250000Y-103250000D03*
%TD*%
D13*
%TO.C,C4*%
X199424042Y-49700000D03*
X197874042Y-49700000D03*
%TD*%
D11*
%TO.C,D07*%
X206990478Y-70485769D03*
X206990478Y-72585769D03*
%TD*%
D14*
%TO.C,R3*%
X159949042Y-94750000D03*
X161849042Y-94750000D03*
%TD*%
%TO.C,R1*%
X194990478Y-46535769D03*
X196890478Y-46535769D03*
%TD*%
D15*
%TO.C,LED02*%
X231149042Y-53900000D03*
D16*
X231599042Y-52150000D03*
D17*
X233849042Y-52150000D03*
D16*
X233499042Y-53900000D03*
%TD*%
D10*
%TO.C,C14*%
X167750000Y-104750000D03*
X167750000Y-103200000D03*
%TD*%
D15*
%TO.C,LED09*%
X248174042Y-92955000D03*
D16*
X248624042Y-91205000D03*
D17*
X250874042Y-91205000D03*
D16*
X250524042Y-92955000D03*
%TD*%
D11*
%TO.C,D13*%
X181490478Y-107835769D03*
X181490478Y-109935769D03*
%TD*%
D18*
%TO.C,C17*%
X169859807Y-85195728D03*
X169859807Y-86745728D03*
%TD*%
D10*
%TO.C,C11*%
X210500000Y-83250000D03*
X210500000Y-81700000D03*
%TD*%
D11*
%TO.C,D08*%
X201690478Y-74900000D03*
X201690478Y-77000000D03*
%TD*%
D15*
%TO.C,LED12*%
X197049042Y-88000000D03*
D16*
X197499042Y-86250000D03*
D17*
X199749042Y-86250000D03*
D16*
X199399042Y-88000000D03*
%TD*%
D10*
%TO.C,C5*%
X244500000Y-75800000D03*
X244500000Y-74250000D03*
%TD*%
D19*
%TO.C,J1*%
X162834190Y-55344234D03*
X162834190Y-54544234D03*
D20*
X162834190Y-53394234D03*
X162834190Y-52394234D03*
X162834190Y-51894234D03*
X162834190Y-50894234D03*
D19*
X162834190Y-49744234D03*
X162834190Y-48944234D03*
X162834190Y-48944234D03*
X162834190Y-49744234D03*
D20*
X162834190Y-50394234D03*
X162834190Y-51394234D03*
X162834190Y-52894234D03*
X162834190Y-53894234D03*
D19*
X162834190Y-54544234D03*
X162834190Y-55344234D03*
%TD*%
D15*
%TO.C,LED10*%
X231149042Y-87950000D03*
D16*
X231599042Y-86200000D03*
D17*
X233849042Y-86200000D03*
D16*
X233499042Y-87950000D03*
%TD*%
D10*
%TO.C,C1*%
X244750000Y-58825000D03*
X244750000Y-57275000D03*
%TD*%
D15*
%TO.C,LED04*%
X197099042Y-53950000D03*
D16*
X197549042Y-52200000D03*
D17*
X199799042Y-52200000D03*
D16*
X199449042Y-53950000D03*
%TD*%
D10*
%TO.C,C7*%
X210500000Y-66250000D03*
X210500000Y-64700000D03*
%TD*%
D14*
%TO.C,R5*%
X174050000Y-73000000D03*
X175950000Y-73000000D03*
%TD*%
D11*
%TO.C,D04*%
X201690478Y-57285769D03*
X201690478Y-59385769D03*
%TD*%
D10*
%TO.C,C10*%
X227500000Y-87750000D03*
X227500000Y-86200000D03*
%TD*%
D15*
%TO.C,LED05*%
X248174042Y-75955000D03*
D16*
X248624042Y-74205000D03*
D17*
X250874042Y-74205000D03*
D16*
X250524042Y-75955000D03*
%TD*%
D11*
%TO.C,D01*%
X240990478Y-59585769D03*
X240990478Y-61685769D03*
%TD*%
%TO.C,D10*%
X224040478Y-88335769D03*
X224040478Y-90435769D03*
%TD*%
D13*
%TO.C,C16*%
X161000000Y-82250000D03*
X159450000Y-82250000D03*
%TD*%
D15*
%TO.C,LED06*%
X231149042Y-70900000D03*
D16*
X231599042Y-69150000D03*
D17*
X233849042Y-69150000D03*
D16*
X233499042Y-70900000D03*
%TD*%
D15*
%TO.C,LED07*%
X214149042Y-66350000D03*
D16*
X214599042Y-64600000D03*
D17*
X216849042Y-64600000D03*
D16*
X216499042Y-66350000D03*
%TD*%
D14*
%TO.C,R2*%
X159849042Y-92250000D03*
X157949042Y-92250000D03*
%TD*%
D11*
%TO.C,D05*%
X241040478Y-76485769D03*
X241040478Y-78585769D03*
%TD*%
D15*
%TO.C,LED03*%
X214099042Y-49450000D03*
D16*
X214549042Y-47700000D03*
D17*
X216799042Y-47700000D03*
D16*
X216449042Y-49450000D03*
%TD*%
D11*
%TO.C,D09*%
X240990478Y-93985769D03*
X240990478Y-96085769D03*
%TD*%
D13*
%TO.C,C15*%
X161699042Y-97500000D03*
X160149042Y-97500000D03*
%TD*%
D15*
%TO.C,LED08*%
X197099042Y-70950000D03*
D16*
X197549042Y-69200000D03*
D17*
X199799042Y-69200000D03*
D16*
X199449042Y-70950000D03*
%TD*%
D21*
%TO.C,D15*%
X162370000Y-111060000D03*
X160270000Y-111060000D03*
%TD*%
D15*
%TO.C,LED11*%
X214124042Y-83405000D03*
D16*
X214574042Y-81655000D03*
D17*
X216824042Y-81655000D03*
D16*
X216474042Y-83405000D03*
%TD*%
D11*
%TO.C,D12*%
X195250000Y-91750000D03*
X195250000Y-93850000D03*
%TD*%
D13*
%TO.C,C8*%
X199874042Y-67100000D03*
X198324042Y-67100000D03*
%TD*%
D15*
%TO.C,LED14*%
X171549042Y-105000000D03*
D16*
X171999042Y-103250000D03*
D17*
X174249042Y-103250000D03*
D16*
X173899042Y-105000000D03*
%TD*%
D15*
%TO.C,LED13*%
X188599042Y-105000000D03*
D16*
X189049042Y-103250000D03*
D17*
X191299042Y-103250000D03*
D16*
X190949042Y-105000000D03*
%TD*%
D15*
%TO.C,LED01*%
X248099042Y-58950000D03*
D16*
X248549042Y-57200000D03*
D17*
X250799042Y-57200000D03*
D16*
X250449042Y-58950000D03*
%TD*%
D11*
%TO.C,D11*%
X206999042Y-88200000D03*
X206999042Y-90300000D03*
%TD*%
%TO.C,D02*%
X224040478Y-54485769D03*
X224040478Y-56585769D03*
%TD*%
D10*
%TO.C,C9*%
X244500000Y-92750000D03*
X244500000Y-91200000D03*
%TD*%
D13*
%TO.C,C12*%
X199749042Y-84250000D03*
X198199042Y-84250000D03*
%TD*%
D22*
%TO.C,IC1*%
X161100000Y-86600000D03*
X162050000Y-86600000D03*
X163000000Y-86600000D03*
X163000000Y-89300000D03*
X161100000Y-89300000D03*
%TD*%
D11*
%TO.C,D03*%
X207040478Y-54950000D03*
X207040478Y-57050000D03*
%TD*%
M02*
