%TF.GenerationSoftware,KiCad,Pcbnew,7.0.2*%
%TF.CreationDate,2024-03-22T10:09:10-05:00*%
%TF.ProjectId,02_capsule5_right,30325f63-6170-4737-956c-65355f726967,v1.0.0*%
%TF.SameCoordinates,Original*%
%TF.FileFunction,Soldermask,Top*%
%TF.FilePolarity,Negative*%
%FSLAX46Y46*%
G04 Gerber Fmt 4.6, Leading zero omitted, Abs format (unit mm)*
G04 Created by KiCad (PCBNEW 7.0.2) date 2024-03-22 10:09:10*
%MOMM*%
%LPD*%
G01*
G04 APERTURE LIST*
%ADD10C,0.700000*%
%ADD11C,0.750000*%
%ADD12C,2.500000*%
%ADD13C,1.200000*%
%ADD14C,2.000000*%
%ADD15O,3.130000X1.500000*%
%ADD16O,1.500000X3.090000*%
%ADD17C,0.400000*%
%ADD18C,3.600000*%
%ADD19R,1.200000X1.200000*%
%ADD20C,1.900000*%
%ADD21C,3.500000*%
%ADD22O,2.200000X1.600000*%
%ADD23C,1.000000*%
%ADD24C,0.800000*%
%ADD25O,1.600000X2.000000*%
%ADD26O,2.200000X1.000000*%
%ADD27O,1.800000X1.000000*%
G04 APERTURE END LIST*
D10*
X223790931Y-48531013D02*
G75*
G03*
X224794807Y-49535169I1004169J13D01*
G01*
X224209883Y-99065962D02*
G75*
G03*
X225213846Y-100070117I1004317J162D01*
G01*
X224203982Y-96525895D02*
X224209927Y-99065962D01*
X241809938Y-54490951D02*
X256825069Y-54521733D01*
X257804155Y-104056081D02*
X257828988Y-55525889D01*
X206784760Y-96535759D02*
X206778982Y-99125895D01*
X157034938Y-44940983D02*
G75*
G03*
X156030783Y-45944870I-38J-1004117D01*
G01*
X156028982Y-80275895D02*
X156009927Y-116115962D01*
X222775069Y-44971733D02*
X188634938Y-44965951D01*
X168184938Y-44940951D02*
X157034938Y-44940951D01*
X223200063Y-95521740D02*
X207788915Y-95531840D01*
X240803967Y-50500889D02*
G75*
G03*
X239800069Y-49496733I-1004167J-11D01*
G01*
X256800000Y-105059955D02*
G75*
G03*
X257804155Y-104056081I0J1004155D01*
G01*
X198249827Y-101129814D02*
X198248204Y-116146976D01*
X241140888Y-104056012D02*
X241153982Y-101075895D01*
X223778967Y-45975889D02*
G75*
G03*
X222775069Y-44971733I-1004167J-11D01*
G01*
X242144807Y-105060167D02*
X256800000Y-105060000D01*
X223778988Y-45975889D02*
X223790888Y-48531013D01*
X157013846Y-117120117D02*
X197244049Y-117150895D01*
X199253982Y-100125927D02*
G75*
G03*
X198249827Y-101129814I18J-1004173D01*
G01*
X224794807Y-49535169D02*
X239800069Y-49496733D01*
X156030783Y-45944870D02*
X156034938Y-67590951D01*
X240806049Y-53486795D02*
G75*
G03*
X241809938Y-54490951I1004151J-5D01*
G01*
X225213846Y-100070117D02*
X240150063Y-100071740D01*
X197244049Y-117150904D02*
G75*
G03*
X198248204Y-116146976I-149J1004304D01*
G01*
X257828967Y-55525889D02*
G75*
G03*
X256825069Y-54521733I-1004167J-11D01*
G01*
X205774827Y-100129782D02*
G75*
G03*
X206778982Y-99125895I-27J1004182D01*
G01*
X207788915Y-95531860D02*
G75*
G03*
X206784760Y-96535759I185J-1004340D01*
G01*
X156009883Y-116115962D02*
G75*
G03*
X157013846Y-117120117I1004317J162D01*
G01*
X205774827Y-100129814D02*
X199253982Y-100125895D01*
X224203960Y-96525895D02*
G75*
G03*
X223200063Y-95521740I-1004160J-5D01*
G01*
X241140933Y-104056012D02*
G75*
G03*
X242144807Y-105060167I1004167J12D01*
G01*
X241153960Y-101075895D02*
G75*
G03*
X240150063Y-100071740I-1004160J-5D01*
G01*
X240803988Y-50500889D02*
X240806019Y-53486795D01*
D11*
G36*
X173238101Y-54631479D02*
G01*
X173246161Y-54631479D01*
X173266170Y-54594133D01*
X173287455Y-54558298D01*
X173310014Y-54523974D01*
X173333848Y-54491161D01*
X173358958Y-54459860D01*
X173385343Y-54430070D01*
X173413002Y-54401791D01*
X173441937Y-54375024D01*
X173472147Y-54349768D01*
X173503632Y-54326023D01*
X173525331Y-54311032D01*
X173558750Y-54290081D01*
X173592788Y-54271190D01*
X173627444Y-54254360D01*
X173662718Y-54239591D01*
X173698610Y-54226883D01*
X173735120Y-54216236D01*
X173772249Y-54207649D01*
X173809996Y-54201123D01*
X173848361Y-54196658D01*
X173887345Y-54194254D01*
X173913677Y-54193796D01*
X173962956Y-54195177D01*
X174010775Y-54199322D01*
X174057134Y-54206229D01*
X174102034Y-54215900D01*
X174145474Y-54228333D01*
X174187454Y-54243530D01*
X174227975Y-54261489D01*
X174267035Y-54282212D01*
X174304636Y-54305697D01*
X174340778Y-54331946D01*
X174375459Y-54360957D01*
X174408681Y-54392732D01*
X174440443Y-54427269D01*
X174470745Y-54464569D01*
X174499588Y-54504633D01*
X174526971Y-54547459D01*
X174552791Y-54592816D01*
X174576945Y-54640714D01*
X174599434Y-54691154D01*
X174620256Y-54744136D01*
X174639413Y-54799659D01*
X174656904Y-54857724D01*
X174672729Y-54918331D01*
X174686889Y-54981479D01*
X174699382Y-55047169D01*
X174710210Y-55115400D01*
X174719372Y-55186174D01*
X174726868Y-55259488D01*
X174732699Y-55335345D01*
X174736863Y-55413743D01*
X174738321Y-55453895D01*
X174739362Y-55494683D01*
X174739987Y-55536106D01*
X174740195Y-55578164D01*
X174739748Y-55635271D01*
X174738409Y-55691554D01*
X174736176Y-55747012D01*
X174733051Y-55801646D01*
X174729032Y-55855456D01*
X174724121Y-55908442D01*
X174718316Y-55960603D01*
X174711618Y-56011939D01*
X174704028Y-56062452D01*
X174695544Y-56112140D01*
X174686168Y-56161004D01*
X174675898Y-56209043D01*
X174664735Y-56256259D01*
X174652680Y-56302650D01*
X174639731Y-56348216D01*
X174625889Y-56392958D01*
X174611226Y-56436540D01*
X174595813Y-56478871D01*
X174579650Y-56519949D01*
X174562737Y-56559776D01*
X174545074Y-56598351D01*
X174526662Y-56635675D01*
X174507499Y-56671746D01*
X174487587Y-56706566D01*
X174466924Y-56740134D01*
X174445512Y-56772451D01*
X174423350Y-56803515D01*
X174400438Y-56833328D01*
X174376776Y-56861889D01*
X174352364Y-56889199D01*
X174327202Y-56915256D01*
X174301290Y-56940062D01*
X174274786Y-56963368D01*
X174247847Y-56985171D01*
X174220473Y-57005470D01*
X174192663Y-57024265D01*
X174164419Y-57041557D01*
X174135740Y-57057345D01*
X174106625Y-57071629D01*
X174077076Y-57084410D01*
X174047091Y-57095687D01*
X174016671Y-57105461D01*
X173985817Y-57113730D01*
X173954527Y-57120497D01*
X173922802Y-57125759D01*
X173890642Y-57129518D01*
X173858047Y-57131774D01*
X173825017Y-57132526D01*
X173787339Y-57131452D01*
X173750691Y-57128232D01*
X173715073Y-57122866D01*
X173680486Y-57115352D01*
X173646930Y-57105692D01*
X173614403Y-57093886D01*
X173582907Y-57079932D01*
X173552442Y-57063832D01*
X173523007Y-57045586D01*
X173494602Y-57025192D01*
X173476238Y-57010404D01*
X173449564Y-56986880D01*
X173423945Y-56962101D01*
X173399383Y-56936070D01*
X173375877Y-56908784D01*
X173353427Y-56880245D01*
X173332034Y-56850452D01*
X173311696Y-56819405D01*
X173292415Y-56787105D01*
X173274190Y-56753551D01*
X173257021Y-56718744D01*
X173246161Y-56694842D01*
X173238101Y-56694842D01*
X173238101Y-57070000D01*
X172360293Y-57070000D01*
X172360293Y-55750111D01*
X173221981Y-55750111D01*
X173222683Y-55792876D01*
X173224789Y-55833974D01*
X173228299Y-55873407D01*
X173235163Y-55923393D01*
X173244522Y-55970417D01*
X173256377Y-56014480D01*
X173270729Y-56055582D01*
X173287576Y-56093722D01*
X173301849Y-56120383D01*
X173322869Y-56152440D01*
X173345629Y-56180223D01*
X173370130Y-56203731D01*
X173396371Y-56222965D01*
X173424352Y-56237925D01*
X173454073Y-56248611D01*
X173485535Y-56255022D01*
X173518736Y-56257159D01*
X173557182Y-56254549D01*
X173593383Y-56246718D01*
X173627341Y-56233666D01*
X173659054Y-56215394D01*
X173688523Y-56191901D01*
X173715749Y-56163187D01*
X173740730Y-56129252D01*
X173763468Y-56090097D01*
X173783732Y-56045920D01*
X173797158Y-56009942D01*
X173809063Y-55971525D01*
X173819448Y-55930670D01*
X173828314Y-55887376D01*
X173835660Y-55841643D01*
X173841486Y-55793472D01*
X173845792Y-55742862D01*
X173848579Y-55689814D01*
X173849845Y-55634327D01*
X173849930Y-55615289D01*
X173849215Y-55565549D01*
X173847070Y-55518180D01*
X173843496Y-55473180D01*
X173838492Y-55430550D01*
X173832059Y-55390290D01*
X173824195Y-55352400D01*
X173811487Y-55305566D01*
X173796237Y-55262946D01*
X173778446Y-55224539D01*
X173768597Y-55206915D01*
X173747153Y-55174629D01*
X173723488Y-55146648D01*
X173697602Y-55122972D01*
X173669495Y-55103600D01*
X173639167Y-55088534D01*
X173606618Y-55077772D01*
X173571848Y-55071314D01*
X173534856Y-55069162D01*
X173502032Y-55071421D01*
X173470605Y-55078199D01*
X173440575Y-55089495D01*
X173411941Y-55105310D01*
X173384704Y-55125643D01*
X173358864Y-55150495D01*
X173334421Y-55179865D01*
X173311374Y-55213754D01*
X173290423Y-55251001D01*
X173272265Y-55290935D01*
X173256900Y-55333555D01*
X173244330Y-55378862D01*
X173234552Y-55426856D01*
X173227568Y-55477536D01*
X173224164Y-55517310D01*
X173222331Y-55558594D01*
X173221981Y-55586957D01*
X173221981Y-55750111D01*
X172360293Y-55750111D01*
X172360293Y-52880746D01*
X173238101Y-52880746D01*
X173238101Y-54631479D01*
G37*
G36*
X176643824Y-55256741D02*
G01*
X176616758Y-55233415D01*
X176589545Y-55214008D01*
X176559036Y-55195535D01*
X176530262Y-55180445D01*
X176509734Y-55170767D01*
X176479140Y-55157486D01*
X176450555Y-55146953D01*
X176419745Y-55138138D01*
X176387883Y-55132642D01*
X176369783Y-55131688D01*
X176317078Y-55134375D01*
X176267774Y-55142435D01*
X176221869Y-55155868D01*
X176179365Y-55174675D01*
X176140262Y-55198855D01*
X176104558Y-55228408D01*
X176072255Y-55263335D01*
X176043353Y-55303635D01*
X176017850Y-55349309D01*
X175995748Y-55400355D01*
X175977046Y-55456775D01*
X175961745Y-55518569D01*
X175949844Y-55585736D01*
X175941343Y-55658276D01*
X175936243Y-55736189D01*
X175934967Y-55777161D01*
X175934542Y-55819476D01*
X175934542Y-57070000D01*
X175056734Y-57070000D01*
X175056734Y-54256322D01*
X175934542Y-54256322D01*
X175934542Y-54756531D01*
X175942602Y-54756531D01*
X175958307Y-54706033D01*
X175975197Y-54657853D01*
X175993272Y-54611992D01*
X176012532Y-54568449D01*
X176032977Y-54527224D01*
X176054607Y-54488318D01*
X176077422Y-54451730D01*
X176101421Y-54417461D01*
X176126606Y-54385510D01*
X176152976Y-54355878D01*
X176171214Y-54337411D01*
X176199535Y-54311745D01*
X176228719Y-54288604D01*
X176258765Y-54267987D01*
X176289675Y-54249895D01*
X176321448Y-54234328D01*
X176354084Y-54221285D01*
X176387583Y-54210766D01*
X176421944Y-54202772D01*
X176457169Y-54197302D01*
X176493257Y-54194357D01*
X176517794Y-54193796D01*
X176548619Y-54195385D01*
X176581615Y-54201094D01*
X176612229Y-54210956D01*
X176640462Y-54224969D01*
X176643824Y-54227013D01*
X176643824Y-55256741D01*
G37*
G36*
X177308408Y-57695261D02*
G01*
X176535380Y-57695261D01*
X177996441Y-53130851D01*
X178769469Y-53130851D01*
X177308408Y-57695261D01*
G37*
G36*
X180263503Y-57070000D02*
G01*
X179793824Y-55631898D01*
X179785764Y-55631898D01*
X179785764Y-57070000D01*
X178907955Y-57070000D01*
X178907955Y-52880746D01*
X179785764Y-52880746D01*
X179785764Y-55569371D01*
X179793824Y-55569371D01*
X180220272Y-54256322D01*
X181209455Y-54256322D01*
X180638660Y-55544947D01*
X181242428Y-57070000D01*
X180263503Y-57070000D01*
G37*
G36*
X182764305Y-57070000D02*
G01*
X182764305Y-55552763D01*
X182763790Y-55505682D01*
X182762244Y-55461160D01*
X182759668Y-55419197D01*
X182756062Y-55379793D01*
X182749651Y-55331235D01*
X182741407Y-55287225D01*
X182731332Y-55247765D01*
X182716163Y-55204836D01*
X182705687Y-55182491D01*
X182685580Y-55149842D01*
X182661895Y-55122728D01*
X182634632Y-55101146D01*
X182603792Y-55085099D01*
X182569374Y-55074585D01*
X182539263Y-55070158D01*
X182515177Y-55069162D01*
X182480902Y-55072024D01*
X182449060Y-55080611D01*
X182419651Y-55094922D01*
X182392674Y-55114958D01*
X182368131Y-55140718D01*
X182346020Y-55172202D01*
X182337857Y-55186399D01*
X182319492Y-55224328D01*
X182304240Y-55265453D01*
X182292101Y-55309775D01*
X182283074Y-55357292D01*
X182278094Y-55397608D01*
X182275106Y-55439969D01*
X182274110Y-55484375D01*
X182274110Y-57070000D01*
X181396301Y-57070000D01*
X181396301Y-54256322D01*
X182274110Y-54256322D01*
X182274110Y-54694005D01*
X182282170Y-54694005D01*
X182302585Y-54650253D01*
X182324262Y-54608390D01*
X182347201Y-54568417D01*
X182371402Y-54530332D01*
X182396866Y-54494136D01*
X182423592Y-54459830D01*
X182451580Y-54427412D01*
X182480831Y-54396884D01*
X182511344Y-54368244D01*
X182543118Y-54341494D01*
X182565003Y-54324710D01*
X182598521Y-54301314D01*
X182632580Y-54280220D01*
X182667180Y-54261426D01*
X182702321Y-54244934D01*
X182738003Y-54230743D01*
X182774226Y-54218854D01*
X182810989Y-54209265D01*
X182848294Y-54201978D01*
X182886140Y-54196992D01*
X182924527Y-54194307D01*
X182950418Y-54193796D01*
X182993019Y-54194931D01*
X183034267Y-54198337D01*
X183074163Y-54204014D01*
X183112706Y-54211961D01*
X183149897Y-54222179D01*
X183185736Y-54234668D01*
X183220222Y-54249428D01*
X183253356Y-54266458D01*
X183285137Y-54285759D01*
X183315566Y-54307330D01*
X183344643Y-54331173D01*
X183372367Y-54357286D01*
X183398739Y-54385669D01*
X183423758Y-54416324D01*
X183447425Y-54449249D01*
X183469740Y-54484445D01*
X183490702Y-54521911D01*
X183510312Y-54561648D01*
X183528569Y-54603656D01*
X183545474Y-54647935D01*
X183561027Y-54694484D01*
X183575227Y-54743304D01*
X183588074Y-54794395D01*
X183599570Y-54847756D01*
X183609713Y-54903388D01*
X183618503Y-54961291D01*
X183625942Y-55021464D01*
X183632027Y-55083908D01*
X183636761Y-55148623D01*
X183640142Y-55215609D01*
X183642170Y-55284865D01*
X183642847Y-55356392D01*
X183642847Y-57070000D01*
X182764305Y-57070000D01*
G37*
D12*
%TO.C,REF\u002A\u002A*%
X165650000Y-46500000D03*
%TD*%
D13*
%TO.C,*%
X224000000Y-65550000D03*
%TD*%
%TO.C,*%
X193500000Y-48800000D03*
%TD*%
%TO.C,*%
X224000000Y-61700000D03*
%TD*%
D14*
%TO.C,*%
X157890000Y-111080000D03*
%TD*%
D15*
%TO.C,U1*%
X186875478Y-46285769D03*
X186875478Y-48825769D03*
X186875478Y-51365769D03*
X186875478Y-53905769D03*
X186875478Y-56445769D03*
X186875478Y-58985769D03*
X186875478Y-61525769D03*
X186875478Y-64065769D03*
X186875478Y-66605769D03*
D16*
X183520478Y-67400769D03*
X180980478Y-67400769D03*
X178440478Y-67400769D03*
X175900478Y-67400769D03*
X173360478Y-67400769D03*
D15*
X170005478Y-66605769D03*
X170005478Y-64065769D03*
X170005478Y-61525769D03*
X170005478Y-58985769D03*
X170005478Y-56445769D03*
X170005478Y-53905769D03*
X170005478Y-51365769D03*
X170005478Y-48825769D03*
X170005478Y-46285769D03*
%TD*%
D17*
%TO.C,U3*%
X167329807Y-72215728D03*
X167779807Y-71165728D03*
X167779807Y-73265728D03*
X168829807Y-70715728D03*
D18*
X168829807Y-72215728D03*
D17*
X168829807Y-73715728D03*
X169879807Y-71165728D03*
X169879807Y-73265728D03*
X170329807Y-72215728D03*
X185319807Y-93205728D03*
X185769807Y-92155728D03*
X185769807Y-94255728D03*
X186819807Y-91705728D03*
D18*
X186819807Y-93205728D03*
D17*
X186819807Y-94705728D03*
X187869807Y-92155728D03*
X187869807Y-94255728D03*
X188319807Y-93205728D03*
D19*
X172400000Y-88800000D03*
D13*
X172400000Y-87020000D03*
X172400000Y-85240000D03*
X172400000Y-83460000D03*
X172400000Y-81680000D03*
X172400000Y-79900000D03*
X172400000Y-78120000D03*
X172400000Y-76340000D03*
X183100000Y-75450000D03*
X183100000Y-77230000D03*
X183100000Y-79010000D03*
X183100000Y-80790000D03*
X183100000Y-82570000D03*
X183100000Y-84350000D03*
X183100000Y-86130000D03*
X183100000Y-87910000D03*
%TD*%
%TO.C,*%
X164500000Y-96200000D03*
%TD*%
%TO.C,*%
X241000000Y-85650000D03*
%TD*%
%TO.C,*%
X191855000Y-50070000D03*
%TD*%
D17*
%TO.C,REF\u002A\u002A*%
X242699042Y-88600000D03*
X242249042Y-89650000D03*
X242249042Y-87550000D03*
X241199042Y-90100000D03*
D18*
X241199042Y-88600000D03*
D17*
X241199042Y-87100000D03*
X240149042Y-89650000D03*
X240149042Y-87550000D03*
X239699042Y-88600000D03*
%TD*%
D20*
%TO.C,SW14*%
X178463232Y-108802659D03*
D21*
X172963232Y-108802659D03*
D20*
X167463232Y-108802659D03*
D22*
X172963232Y-114702659D03*
X177963232Y-112602659D03*
X167963232Y-112602659D03*
%TD*%
D23*
%TO.C,REF\u002A\u002A*%
X205999042Y-99300000D03*
%TD*%
D17*
%TO.C,REF\u002A\u002A*%
X182999042Y-115300000D03*
X182549042Y-116350000D03*
X182549042Y-114250000D03*
X181499042Y-116800000D03*
D18*
X181499042Y-115300000D03*
D17*
X181499042Y-113800000D03*
X180449042Y-116350000D03*
X180449042Y-114250000D03*
X179999042Y-115300000D03*
%TD*%
D13*
%TO.C,*%
X192640478Y-46435769D03*
%TD*%
D20*
%TO.C,SW05*%
X255012350Y-79740283D03*
D21*
X249512350Y-79740283D03*
D20*
X244012350Y-79740283D03*
D22*
X249512350Y-85640283D03*
X254512350Y-83540283D03*
X244512350Y-83540283D03*
%TD*%
D13*
%TO.C,*%
X201690478Y-55585769D03*
%TD*%
%TO.C,*%
X181440478Y-112050000D03*
%TD*%
%TO.C,*%
X163899042Y-78750000D03*
%TD*%
D23*
%TO.C,REF\u002A\u002A*%
X256999042Y-55200000D03*
%TD*%
D13*
%TO.C,*%
X164969042Y-77030000D03*
%TD*%
%TO.C,*%
X224000000Y-52675000D03*
%TD*%
D24*
%TO.C,U2*%
X159399042Y-75850000D03*
X159399042Y-68850000D03*
D25*
X161699042Y-78550000D03*
X157099042Y-78550000D03*
X161699042Y-77450000D03*
X157099042Y-77450000D03*
X161699042Y-73450000D03*
X157099042Y-73450000D03*
X161699042Y-70450000D03*
X157099042Y-70450000D03*
%TD*%
D23*
%TO.C,REF\u002A\u002A*%
X165499042Y-116335769D03*
%TD*%
D13*
%TO.C,*%
X195250000Y-90250000D03*
%TD*%
%TO.C,*%
X201690478Y-63785769D03*
%TD*%
%TO.C,*%
X241040478Y-97735769D03*
%TD*%
%TO.C,*%
X206990478Y-91900000D03*
%TD*%
%TO.C,*%
X176090478Y-114715769D03*
%TD*%
D23*
%TO.C,REF\u002A\u002A*%
X224999042Y-99300000D03*
%TD*%
%TO.C,REF\u002A\u002A*%
X197399042Y-116335769D03*
%TD*%
D13*
%TO.C,*%
X241040478Y-80435769D03*
%TD*%
D23*
%TO.C,REF\u002A\u002A*%
X256999042Y-104300000D03*
%TD*%
D13*
%TO.C,*%
X201690478Y-73500000D03*
%TD*%
%TO.C,*%
X206990478Y-68535769D03*
%TD*%
D20*
%TO.C,SW07*%
X221011817Y-70203948D03*
D21*
X215511817Y-70203948D03*
D20*
X210011817Y-70203948D03*
D22*
X215511817Y-76103948D03*
X220511817Y-74003948D03*
X210511817Y-74003948D03*
%TD*%
D26*
%TO.C,J1*%
X157684190Y-57764234D03*
D27*
X161684190Y-57764234D03*
D26*
X157684190Y-46524234D03*
D27*
X161684190Y-46524234D03*
%TD*%
D20*
%TO.C,SW03*%
X221011818Y-53203948D03*
D21*
X215511818Y-53203948D03*
D20*
X210011818Y-53203948D03*
D22*
X215511818Y-59103948D03*
X220511818Y-57003948D03*
X210511818Y-57003948D03*
%TD*%
D20*
%TO.C,SW06*%
X238012112Y-74759163D03*
D21*
X232512112Y-74759163D03*
D20*
X227012112Y-74759163D03*
D22*
X232512112Y-80659163D03*
X237512112Y-78559163D03*
X227512112Y-78559163D03*
%TD*%
D17*
%TO.C,REF\u002A\u002A*%
X207849042Y-83650000D03*
X207399042Y-84700000D03*
X207399042Y-82600000D03*
X206349042Y-85150000D03*
D18*
X206349042Y-83650000D03*
D17*
X206349042Y-82150000D03*
X205299042Y-84700000D03*
X205299042Y-82600000D03*
X204849042Y-83650000D03*
%TD*%
D20*
%TO.C,SW10*%
X238012111Y-91759164D03*
D21*
X232512111Y-91759164D03*
D20*
X227012111Y-91759164D03*
D22*
X232512111Y-97659164D03*
X237512111Y-95559164D03*
X227512111Y-95559164D03*
%TD*%
D13*
%TO.C,*%
X240990478Y-92085769D03*
%TD*%
D23*
%TO.C,REF\u002A\u002A*%
X222999042Y-45700000D03*
%TD*%
D20*
%TO.C,SW09*%
X255012349Y-96740284D03*
D21*
X249512349Y-96740284D03*
D20*
X244012349Y-96740284D03*
D22*
X249512349Y-102640284D03*
X254512349Y-100540284D03*
X244512349Y-100540284D03*
%TD*%
D17*
%TO.C,REF\u002A\u002A*%
X207749042Y-46950000D03*
X207299042Y-48000000D03*
X207299042Y-45900000D03*
X206249042Y-48450000D03*
D18*
X206249042Y-46950000D03*
D17*
X206249042Y-45450000D03*
X205199042Y-48000000D03*
X205199042Y-45900000D03*
X204749042Y-46950000D03*
%TD*%
D13*
%TO.C,*%
X224040478Y-92385769D03*
%TD*%
%TO.C,*%
X224040478Y-58635769D03*
%TD*%
%TO.C,*%
X201649042Y-80750000D03*
%TD*%
D20*
%TO.C,SW13*%
X195463467Y-108794157D03*
D21*
X189963467Y-108794157D03*
D20*
X184463467Y-108794157D03*
D22*
X189963467Y-114694157D03*
X194963467Y-112594157D03*
X184963467Y-112594157D03*
%TD*%
D13*
%TO.C,*%
X241040478Y-74835769D03*
%TD*%
D23*
%TO.C,REF\u002A\u002A*%
X156899042Y-116250000D03*
%TD*%
D20*
%TO.C,SW12*%
X203999265Y-91787819D03*
D21*
X198499265Y-91787819D03*
D20*
X192999265Y-91787819D03*
D22*
X198499265Y-97687819D03*
X203499265Y-95587819D03*
X193499265Y-95587819D03*
%TD*%
D20*
%TO.C,SW08*%
X203999265Y-74787819D03*
D21*
X198499265Y-74787819D03*
D20*
X192999265Y-74787819D03*
D22*
X198499265Y-80687819D03*
X203499265Y-78587819D03*
X193499265Y-78587819D03*
%TD*%
D20*
%TO.C,SW11*%
X221011816Y-87203949D03*
D21*
X215511816Y-87203949D03*
D20*
X210011816Y-87203949D03*
D22*
X215511816Y-93103949D03*
X220511816Y-91003949D03*
X210511816Y-91003949D03*
%TD*%
D13*
%TO.C,*%
X206999042Y-53150000D03*
%TD*%
%TO.C,*%
X195250000Y-97250000D03*
%TD*%
%TO.C,*%
X164910000Y-111060000D03*
%TD*%
%TO.C,*%
X224040478Y-74985769D03*
%TD*%
%TO.C,*%
X199440478Y-46535769D03*
%TD*%
D20*
%TO.C,SW02*%
X238012111Y-57759164D03*
D21*
X232512111Y-57759164D03*
D20*
X227012111Y-57759164D03*
D22*
X232512111Y-63659164D03*
X237512111Y-61559164D03*
X227512111Y-61559164D03*
%TD*%
D17*
%TO.C,REF\u002A\u002A*%
X161649042Y-114250000D03*
X161199042Y-115300000D03*
X161199042Y-113200000D03*
X160149042Y-115750000D03*
D18*
X160149042Y-114250000D03*
D17*
X160149042Y-112750000D03*
X159099042Y-115300000D03*
X159099042Y-113200000D03*
X158649042Y-114250000D03*
%TD*%
D13*
%TO.C,*%
X207049042Y-59100000D03*
%TD*%
D17*
%TO.C,REF\u002A\u002A*%
X241849042Y-66600000D03*
X241399042Y-67650000D03*
X241399042Y-65550000D03*
X240349042Y-68100000D03*
D18*
X240349042Y-66600000D03*
D17*
X240349042Y-65100000D03*
X239299042Y-67650000D03*
X239299042Y-65550000D03*
X238849042Y-66600000D03*
%TD*%
D13*
%TO.C,*%
X224040478Y-86435769D03*
%TD*%
D17*
%TO.C,REF\u002A\u002A*%
X160899042Y-61750000D03*
X160449042Y-62800000D03*
X160449042Y-60700000D03*
X159399042Y-63250000D03*
D18*
X159399042Y-61750000D03*
D17*
X159399042Y-60250000D03*
X158349042Y-62800000D03*
X158349042Y-60700000D03*
X157899042Y-61750000D03*
%TD*%
D13*
%TO.C,*%
X181490478Y-106185769D03*
%TD*%
%TO.C,*%
X206990478Y-74435769D03*
%TD*%
D20*
%TO.C,SW04*%
X203999264Y-57787820D03*
D21*
X198499264Y-57787820D03*
D20*
X192999264Y-57787820D03*
D22*
X198499264Y-63687820D03*
X203499264Y-61587820D03*
X193499264Y-61587820D03*
%TD*%
D23*
%TO.C,REF\u002A\u002A*%
X239999042Y-50200000D03*
%TD*%
D13*
%TO.C,*%
X223990478Y-69135769D03*
%TD*%
%TO.C,*%
X240990478Y-57935769D03*
%TD*%
%TO.C,*%
X240990478Y-63235769D03*
%TD*%
%TO.C,*%
X206999042Y-86600000D03*
%TD*%
%TO.C,*%
X176090478Y-107235769D03*
%TD*%
D23*
%TO.C,REF\u002A\u002A*%
X241999042Y-104200000D03*
%TD*%
%TO.C,REF\u002A\u002A*%
X156799042Y-45550000D03*
%TD*%
D14*
%TO.C,SW15*%
X157899042Y-101750000D03*
X157899042Y-108250000D03*
X162399042Y-101750000D03*
X162399042Y-108250000D03*
%TD*%
D20*
%TO.C,SW01*%
X255012350Y-62740284D03*
D21*
X249512350Y-62740284D03*
D20*
X244012350Y-62740284D03*
D22*
X249512350Y-68640284D03*
X254512350Y-66540284D03*
X244512350Y-66540284D03*
%TD*%
D17*
%TO.C,REF\u002A\u002A*%
X224849042Y-79050000D03*
X224399042Y-80100000D03*
X224399042Y-78000000D03*
X223349042Y-80550000D03*
D18*
X223349042Y-79050000D03*
D17*
X223349042Y-77550000D03*
X222299042Y-80100000D03*
X222299042Y-78000000D03*
X221849042Y-79050000D03*
%TD*%
%TO.C,REF\u002A\u002A*%
X160899042Y-61750000D03*
X160449042Y-62800000D03*
X160449042Y-60700000D03*
X159399042Y-63250000D03*
D18*
X159399042Y-61750000D03*
D17*
X159399042Y-60250000D03*
X158349042Y-62800000D03*
X158349042Y-60700000D03*
X157899042Y-61750000D03*
%TD*%
M02*
