%TF.GenerationSoftware,KiCad,Pcbnew,7.0.2*%
%TF.CreationDate,2024-03-22T10:09:10-05:00*%
%TF.ProjectId,02_capsule5_right,30325f63-6170-4737-956c-65355f726967,v1.0.0*%
%TF.SameCoordinates,Original*%
%TF.FileFunction,Soldermask,Bot*%
%TF.FilePolarity,Negative*%
%FSLAX46Y46*%
G04 Gerber Fmt 4.6, Leading zero omitted, Abs format (unit mm)*
G04 Created by KiCad (PCBNEW 7.0.2) date 2024-03-22 10:09:10*
%MOMM*%
%LPD*%
G01*
G04 APERTURE LIST*
G04 Aperture macros list*
%AMRoundRect*
0 Rectangle with rounded corners*
0 $1 Rounding radius*
0 $2 $3 $4 $5 $6 $7 $8 $9 X,Y pos of 4 corners*
0 Add a 4 corners polygon primitive as box body*
4,1,4,$2,$3,$4,$5,$6,$7,$8,$9,$2,$3,0*
0 Add four circle primitives for the rounded corners*
1,1,$1+$1,$2,$3*
1,1,$1+$1,$4,$5*
1,1,$1+$1,$6,$7*
1,1,$1+$1,$8,$9*
0 Add four rect primitives between the rounded corners*
20,1,$1+$1,$2,$3,$4,$5,0*
20,1,$1+$1,$4,$5,$6,$7,0*
20,1,$1+$1,$6,$7,$8,$9,0*
20,1,$1+$1,$8,$9,$2,$3,0*%
G04 Aperture macros list end*
%ADD10C,2.500000*%
%ADD11C,1.200000*%
%ADD12C,2.000000*%
%ADD13O,3.130000X1.500000*%
%ADD14O,1.500000X3.090000*%
%ADD15C,0.400000*%
%ADD16C,3.600000*%
%ADD17R,1.200000X1.200000*%
%ADD18RoundRect,0.225000X0.250000X-0.225000X0.250000X0.225000X-0.250000X0.225000X-0.250000X-0.225000X0*%
%ADD19RoundRect,0.112500X-0.112500X0.187500X-0.112500X-0.187500X0.112500X-0.187500X0.112500X0.187500X0*%
%ADD20C,1.900000*%
%ADD21C,3.500000*%
%ADD22O,2.200000X1.600000*%
%ADD23C,1.000000*%
%ADD24R,1.300000X0.700000*%
%ADD25RoundRect,0.225000X0.225000X0.250000X-0.225000X0.250000X-0.225000X-0.250000X0.225000X-0.250000X0*%
%ADD26R,0.700000X1.300000*%
%ADD27C,0.800000*%
%ADD28O,1.600000X2.000000*%
%ADD29RoundRect,0.219550X0.125450X0.275450X-0.125450X0.275450X-0.125450X-0.275450X0.125450X-0.275450X0*%
%ADD30RoundRect,0.219750X0.300250X0.225250X-0.300250X0.225250X-0.300250X-0.225250X0.300250X-0.225250X0*%
%ADD31RoundRect,0.220000X0.575000X0.425000X-0.575000X0.425000X-0.575000X-0.425000X0.575000X-0.425000X0*%
%ADD32RoundRect,0.232500X0.212500X0.512500X-0.212500X0.512500X-0.212500X-0.512500X0.212500X-0.512500X0*%
%ADD33RoundRect,0.020000X0.800000X0.425000X-0.800000X0.425000X-0.800000X-0.425000X0.800000X-0.425000X0*%
%ADD34RoundRect,0.225625X0.231875X0.269375X-0.231875X0.269375X-0.231875X-0.269375X0.231875X-0.269375X0*%
%ADD35RoundRect,0.225000X-0.250000X0.225000X-0.250000X-0.225000X0.250000X-0.225000X0.250000X0.225000X0*%
%ADD36R,1.100000X0.600000*%
%ADD37R,1.100000X0.300000*%
%ADD38O,2.200000X1.000000*%
%ADD39O,1.800000X1.000000*%
%ADD40RoundRect,0.112500X0.187500X0.112500X-0.187500X0.112500X-0.187500X-0.112500X0.187500X-0.112500X0*%
%ADD41R,0.650000X1.560000*%
G04 APERTURE END LIST*
D10*
%TO.C,REF\u002A\u002A*%
X165650000Y-46500000D03*
%TD*%
D11*
%TO.C,*%
X224000000Y-65550000D03*
%TD*%
%TO.C,*%
X193500000Y-48800000D03*
%TD*%
%TO.C,*%
X224000000Y-61700000D03*
%TD*%
D12*
%TO.C,*%
X157890000Y-111080000D03*
%TD*%
D13*
%TO.C,U1*%
X186875478Y-46285769D03*
X186875478Y-48825769D03*
X186875478Y-51365769D03*
X186875478Y-53905769D03*
X186875478Y-56445769D03*
X186875478Y-58985769D03*
X186875478Y-61525769D03*
X186875478Y-64065769D03*
X186875478Y-66605769D03*
D14*
X183520478Y-67400769D03*
X180980478Y-67400769D03*
X178440478Y-67400769D03*
X175900478Y-67400769D03*
X173360478Y-67400769D03*
D13*
X170005478Y-66605769D03*
X170005478Y-64065769D03*
X170005478Y-61525769D03*
X170005478Y-58985769D03*
X170005478Y-56445769D03*
X170005478Y-53905769D03*
X170005478Y-51365769D03*
X170005478Y-48825769D03*
X170005478Y-46285769D03*
%TD*%
D15*
%TO.C,U3*%
X167329807Y-72215728D03*
X167779807Y-71165728D03*
X167779807Y-73265728D03*
X168829807Y-70715728D03*
D16*
X168829807Y-72215728D03*
D15*
X168829807Y-73715728D03*
X169879807Y-71165728D03*
X169879807Y-73265728D03*
X170329807Y-72215728D03*
X185319807Y-93205728D03*
X185769807Y-92155728D03*
X185769807Y-94255728D03*
X186819807Y-91705728D03*
D16*
X186819807Y-93205728D03*
D15*
X186819807Y-94705728D03*
X187869807Y-92155728D03*
X187869807Y-94255728D03*
X188319807Y-93205728D03*
D17*
X172400000Y-88800000D03*
D11*
X172400000Y-87020000D03*
X172400000Y-85240000D03*
X172400000Y-83460000D03*
X172400000Y-81680000D03*
X172400000Y-79900000D03*
X172400000Y-78120000D03*
X172400000Y-76340000D03*
X183100000Y-75450000D03*
X183100000Y-77230000D03*
X183100000Y-79010000D03*
X183100000Y-80790000D03*
X183100000Y-82570000D03*
X183100000Y-84350000D03*
X183100000Y-86130000D03*
X183100000Y-87910000D03*
%TD*%
%TO.C,*%
X164500000Y-96200000D03*
%TD*%
%TO.C,*%
X241000000Y-85650000D03*
%TD*%
%TO.C,*%
X191855000Y-50070000D03*
%TD*%
D18*
%TO.C,C6*%
X227750000Y-70800000D03*
X227750000Y-69250000D03*
%TD*%
D19*
%TO.C,D14*%
X176090478Y-108685769D03*
X176090478Y-110785769D03*
%TD*%
D15*
%TO.C,REF\u002A\u002A*%
X242699042Y-88600000D03*
X242249042Y-89650000D03*
X242249042Y-87550000D03*
X241199042Y-90100000D03*
D16*
X241199042Y-88600000D03*
D15*
X241199042Y-87100000D03*
X240149042Y-89650000D03*
X240149042Y-87550000D03*
X239699042Y-88600000D03*
%TD*%
D18*
%TO.C,C2*%
X227750000Y-54050000D03*
X227750000Y-52500000D03*
%TD*%
D20*
%TO.C,SW14*%
X178463232Y-108802659D03*
D21*
X172963232Y-108802659D03*
D20*
X167463232Y-108802659D03*
D22*
X172963232Y-114702659D03*
X177963232Y-112602659D03*
X167963232Y-112602659D03*
%TD*%
D19*
%TO.C,D06*%
X224040478Y-71235769D03*
X224040478Y-73335769D03*
%TD*%
D18*
%TO.C,C3*%
X211000000Y-50000000D03*
X211000000Y-48450000D03*
%TD*%
D23*
%TO.C,REF\u002A\u002A*%
X205999042Y-99300000D03*
%TD*%
D24*
%TO.C,R4*%
X186109807Y-88000000D03*
X186109807Y-86100000D03*
%TD*%
D15*
%TO.C,REF\u002A\u002A*%
X182999042Y-115300000D03*
X182549042Y-116350000D03*
X182549042Y-114250000D03*
X181499042Y-116800000D03*
D16*
X181499042Y-115300000D03*
D15*
X181499042Y-113800000D03*
X180449042Y-116350000D03*
X180449042Y-114250000D03*
X179999042Y-115300000D03*
%TD*%
D11*
%TO.C,*%
X192640478Y-46435769D03*
%TD*%
D20*
%TO.C,SW05*%
X255012350Y-79740283D03*
D21*
X249512350Y-79740283D03*
D20*
X244012350Y-79740283D03*
D22*
X249512350Y-85640283D03*
X254512350Y-83540283D03*
X244512350Y-83540283D03*
%TD*%
D11*
%TO.C,*%
X201690478Y-55585769D03*
%TD*%
D18*
%TO.C,C13*%
X185250000Y-104800000D03*
X185250000Y-103250000D03*
%TD*%
D25*
%TO.C,C4*%
X199424042Y-49700000D03*
X197874042Y-49700000D03*
%TD*%
D11*
%TO.C,*%
X181440478Y-112050000D03*
%TD*%
%TO.C,*%
X163899042Y-78750000D03*
%TD*%
D23*
%TO.C,REF\u002A\u002A*%
X256999042Y-55200000D03*
%TD*%
D19*
%TO.C,D07*%
X206990478Y-70485769D03*
X206990478Y-72585769D03*
%TD*%
D11*
%TO.C,*%
X164969042Y-77030000D03*
%TD*%
D26*
%TO.C,R3*%
X159949042Y-94750000D03*
X161849042Y-94750000D03*
%TD*%
D11*
%TO.C,*%
X224000000Y-52675000D03*
%TD*%
D27*
%TO.C,U2*%
X159399042Y-75850000D03*
X159399042Y-68850000D03*
D28*
X161699042Y-78550000D03*
X157099042Y-78550000D03*
X161699042Y-77450000D03*
X157099042Y-77450000D03*
X161699042Y-73450000D03*
X157099042Y-73450000D03*
X161699042Y-70450000D03*
X157099042Y-70450000D03*
%TD*%
D23*
%TO.C,REF\u002A\u002A*%
X165499042Y-116335769D03*
%TD*%
D26*
%TO.C,R1*%
X194990478Y-46535769D03*
X196890478Y-46535769D03*
%TD*%
D11*
%TO.C,*%
X195250000Y-90250000D03*
%TD*%
%TO.C,*%
X201690478Y-63785769D03*
%TD*%
%TO.C,*%
X241040478Y-97735769D03*
%TD*%
%TO.C,*%
X206990478Y-91900000D03*
%TD*%
%TO.C,*%
X176090478Y-114715769D03*
%TD*%
D29*
%TO.C,LED02*%
X231469042Y-53850000D03*
D30*
X230999042Y-53900000D03*
D31*
X231924042Y-52345000D03*
D30*
X230999042Y-52150000D03*
X234099042Y-52150000D03*
D32*
X233524042Y-52450000D03*
D30*
X234099042Y-53900000D03*
D33*
X233299042Y-53900000D03*
D34*
X232624042Y-53850000D03*
%TD*%
D18*
%TO.C,C14*%
X167750000Y-104750000D03*
X167750000Y-103200000D03*
%TD*%
D23*
%TO.C,REF\u002A\u002A*%
X224999042Y-99300000D03*
%TD*%
D29*
%TO.C,LED09*%
X248494042Y-92905000D03*
D30*
X248024042Y-92955000D03*
D31*
X248949042Y-91400000D03*
D30*
X248024042Y-91205000D03*
X251124042Y-91205000D03*
D32*
X250549042Y-91505000D03*
D30*
X251124042Y-92955000D03*
D33*
X250324042Y-92955000D03*
D34*
X249649042Y-92905000D03*
%TD*%
D19*
%TO.C,D13*%
X181490478Y-107835769D03*
X181490478Y-109935769D03*
%TD*%
D35*
%TO.C,C17*%
X169859807Y-85195728D03*
X169859807Y-86745728D03*
%TD*%
D23*
%TO.C,REF\u002A\u002A*%
X197399042Y-116335769D03*
%TD*%
D18*
%TO.C,C11*%
X210500000Y-83250000D03*
X210500000Y-81700000D03*
%TD*%
D19*
%TO.C,D08*%
X201690478Y-74900000D03*
X201690478Y-77000000D03*
%TD*%
D11*
%TO.C,*%
X241040478Y-80435769D03*
%TD*%
D23*
%TO.C,REF\u002A\u002A*%
X256999042Y-104300000D03*
%TD*%
D11*
%TO.C,*%
X201690478Y-73500000D03*
%TD*%
%TO.C,*%
X206990478Y-68535769D03*
%TD*%
D20*
%TO.C,SW07*%
X221011817Y-70203948D03*
D21*
X215511817Y-70203948D03*
D20*
X210011817Y-70203948D03*
D22*
X215511817Y-76103948D03*
X220511817Y-74003948D03*
X210511817Y-74003948D03*
%TD*%
D29*
%TO.C,LED12*%
X197369042Y-87950000D03*
D30*
X196899042Y-88000000D03*
D31*
X197824042Y-86445000D03*
D30*
X196899042Y-86250000D03*
X199999042Y-86250000D03*
D32*
X199424042Y-86550000D03*
D30*
X199999042Y-88000000D03*
D33*
X199199042Y-88000000D03*
D34*
X198524042Y-87950000D03*
%TD*%
D18*
%TO.C,C5*%
X244500000Y-75800000D03*
X244500000Y-74250000D03*
%TD*%
D36*
%TO.C,J1*%
X162834190Y-55344234D03*
X162834190Y-54544234D03*
D37*
X162834190Y-53394234D03*
X162834190Y-52394234D03*
X162834190Y-51894234D03*
X162834190Y-50894234D03*
D36*
X162834190Y-49744234D03*
X162834190Y-48944234D03*
X162834190Y-48944234D03*
X162834190Y-49744234D03*
D37*
X162834190Y-50394234D03*
X162834190Y-51394234D03*
X162834190Y-52894234D03*
X162834190Y-53894234D03*
D36*
X162834190Y-54544234D03*
X162834190Y-55344234D03*
D38*
X157684190Y-57764234D03*
D39*
X161684190Y-57764234D03*
D38*
X157684190Y-46524234D03*
D39*
X161684190Y-46524234D03*
%TD*%
D20*
%TO.C,SW03*%
X221011818Y-53203948D03*
D21*
X215511818Y-53203948D03*
D20*
X210011818Y-53203948D03*
D22*
X215511818Y-59103948D03*
X220511818Y-57003948D03*
X210511818Y-57003948D03*
%TD*%
D20*
%TO.C,SW06*%
X238012112Y-74759163D03*
D21*
X232512112Y-74759163D03*
D20*
X227012112Y-74759163D03*
D22*
X232512112Y-80659163D03*
X237512112Y-78559163D03*
X227512112Y-78559163D03*
%TD*%
D15*
%TO.C,REF\u002A\u002A*%
X207849042Y-83650000D03*
X207399042Y-84700000D03*
X207399042Y-82600000D03*
X206349042Y-85150000D03*
D16*
X206349042Y-83650000D03*
D15*
X206349042Y-82150000D03*
X205299042Y-84700000D03*
X205299042Y-82600000D03*
X204849042Y-83650000D03*
%TD*%
D20*
%TO.C,SW10*%
X238012111Y-91759164D03*
D21*
X232512111Y-91759164D03*
D20*
X227012111Y-91759164D03*
D22*
X232512111Y-97659164D03*
X237512111Y-95559164D03*
X227512111Y-95559164D03*
%TD*%
D29*
%TO.C,LED10*%
X231469042Y-87900000D03*
D30*
X230999042Y-87950000D03*
D31*
X231924042Y-86395000D03*
D30*
X230999042Y-86200000D03*
X234099042Y-86200000D03*
D32*
X233524042Y-86500000D03*
D30*
X234099042Y-87950000D03*
D33*
X233299042Y-87950000D03*
D34*
X232624042Y-87900000D03*
%TD*%
D18*
%TO.C,C1*%
X244750000Y-58825000D03*
X244750000Y-57275000D03*
%TD*%
D29*
%TO.C,LED04*%
X197419042Y-53900000D03*
D30*
X196949042Y-53950000D03*
D31*
X197874042Y-52395000D03*
D30*
X196949042Y-52200000D03*
X200049042Y-52200000D03*
D32*
X199474042Y-52500000D03*
D30*
X200049042Y-53950000D03*
D33*
X199249042Y-53950000D03*
D34*
X198574042Y-53900000D03*
%TD*%
D11*
%TO.C,*%
X240990478Y-92085769D03*
%TD*%
D23*
%TO.C,REF\u002A\u002A*%
X222999042Y-45700000D03*
%TD*%
D20*
%TO.C,SW09*%
X255012349Y-96740284D03*
D21*
X249512349Y-96740284D03*
D20*
X244012349Y-96740284D03*
D22*
X249512349Y-102640284D03*
X254512349Y-100540284D03*
X244512349Y-100540284D03*
%TD*%
D15*
%TO.C,REF\u002A\u002A*%
X207749042Y-46950000D03*
X207299042Y-48000000D03*
X207299042Y-45900000D03*
X206249042Y-48450000D03*
D16*
X206249042Y-46950000D03*
D15*
X206249042Y-45450000D03*
X205199042Y-48000000D03*
X205199042Y-45900000D03*
X204749042Y-46950000D03*
%TD*%
D18*
%TO.C,C7*%
X210500000Y-66250000D03*
X210500000Y-64700000D03*
%TD*%
D11*
%TO.C,*%
X224040478Y-92385769D03*
%TD*%
%TO.C,*%
X224040478Y-58635769D03*
%TD*%
D26*
%TO.C,R5*%
X174050000Y-73000000D03*
X175950000Y-73000000D03*
%TD*%
D19*
%TO.C,D04*%
X201690478Y-57285769D03*
X201690478Y-59385769D03*
%TD*%
D18*
%TO.C,C10*%
X227500000Y-87750000D03*
X227500000Y-86200000D03*
%TD*%
D29*
%TO.C,LED05*%
X248494042Y-75905000D03*
D30*
X248024042Y-75955000D03*
D31*
X248949042Y-74400000D03*
D30*
X248024042Y-74205000D03*
X251124042Y-74205000D03*
D32*
X250549042Y-74505000D03*
D30*
X251124042Y-75955000D03*
D33*
X250324042Y-75955000D03*
D34*
X249649042Y-75905000D03*
%TD*%
D19*
%TO.C,D01*%
X240990478Y-59585769D03*
X240990478Y-61685769D03*
%TD*%
D11*
%TO.C,*%
X201649042Y-80750000D03*
%TD*%
D20*
%TO.C,SW13*%
X195463467Y-108794157D03*
D21*
X189963467Y-108794157D03*
D20*
X184463467Y-108794157D03*
D22*
X189963467Y-114694157D03*
X194963467Y-112594157D03*
X184963467Y-112594157D03*
%TD*%
D19*
%TO.C,D10*%
X224040478Y-88335769D03*
X224040478Y-90435769D03*
%TD*%
D11*
%TO.C,*%
X241040478Y-74835769D03*
%TD*%
D23*
%TO.C,REF\u002A\u002A*%
X156899042Y-116250000D03*
%TD*%
D25*
%TO.C,C16*%
X161000000Y-82250000D03*
X159450000Y-82250000D03*
%TD*%
D29*
%TO.C,LED06*%
X231469042Y-70850000D03*
D30*
X230999042Y-70900000D03*
D31*
X231924042Y-69345000D03*
D30*
X230999042Y-69150000D03*
X234099042Y-69150000D03*
D32*
X233524042Y-69450000D03*
D30*
X234099042Y-70900000D03*
D33*
X233299042Y-70900000D03*
D34*
X232624042Y-70850000D03*
%TD*%
D20*
%TO.C,SW12*%
X203999265Y-91787819D03*
D21*
X198499265Y-91787819D03*
D20*
X192999265Y-91787819D03*
D22*
X198499265Y-97687819D03*
X203499265Y-95587819D03*
X193499265Y-95587819D03*
%TD*%
D20*
%TO.C,SW08*%
X203999265Y-74787819D03*
D21*
X198499265Y-74787819D03*
D20*
X192999265Y-74787819D03*
D22*
X198499265Y-80687819D03*
X203499265Y-78587819D03*
X193499265Y-78587819D03*
%TD*%
D20*
%TO.C,SW11*%
X221011816Y-87203949D03*
D21*
X215511816Y-87203949D03*
D20*
X210011816Y-87203949D03*
D22*
X215511816Y-93103949D03*
X220511816Y-91003949D03*
X210511816Y-91003949D03*
%TD*%
D29*
%TO.C,LED07*%
X214469042Y-66300000D03*
D30*
X213999042Y-66350000D03*
D31*
X214924042Y-64795000D03*
D30*
X213999042Y-64600000D03*
X217099042Y-64600000D03*
D32*
X216524042Y-64900000D03*
D30*
X217099042Y-66350000D03*
D33*
X216299042Y-66350000D03*
D34*
X215624042Y-66300000D03*
%TD*%
D11*
%TO.C,*%
X206999042Y-53150000D03*
%TD*%
%TO.C,*%
X195250000Y-97250000D03*
%TD*%
%TO.C,*%
X164910000Y-111060000D03*
%TD*%
D26*
%TO.C,R2*%
X159849042Y-92250000D03*
X157949042Y-92250000D03*
%TD*%
D19*
%TO.C,D05*%
X241040478Y-76485769D03*
X241040478Y-78585769D03*
%TD*%
D29*
%TO.C,LED03*%
X214419042Y-49400000D03*
D30*
X213949042Y-49450000D03*
D31*
X214874042Y-47895000D03*
D30*
X213949042Y-47700000D03*
X217049042Y-47700000D03*
D32*
X216474042Y-48000000D03*
D30*
X217049042Y-49450000D03*
D33*
X216249042Y-49450000D03*
D34*
X215574042Y-49400000D03*
%TD*%
D19*
%TO.C,D09*%
X240990478Y-93985769D03*
X240990478Y-96085769D03*
%TD*%
D25*
%TO.C,C15*%
X161699042Y-97500000D03*
X160149042Y-97500000D03*
%TD*%
D11*
%TO.C,*%
X224040478Y-74985769D03*
%TD*%
%TO.C,*%
X199440478Y-46535769D03*
%TD*%
D29*
%TO.C,LED08*%
X197419042Y-70900000D03*
D30*
X196949042Y-70950000D03*
D31*
X197874042Y-69395000D03*
D30*
X196949042Y-69200000D03*
X200049042Y-69200000D03*
D32*
X199474042Y-69500000D03*
D30*
X200049042Y-70950000D03*
D33*
X199249042Y-70950000D03*
D34*
X198574042Y-70900000D03*
%TD*%
D20*
%TO.C,SW02*%
X238012111Y-57759164D03*
D21*
X232512111Y-57759164D03*
D20*
X227012111Y-57759164D03*
D22*
X232512111Y-63659164D03*
X237512111Y-61559164D03*
X227512111Y-61559164D03*
%TD*%
D40*
%TO.C,D15*%
X162370000Y-111060000D03*
X160270000Y-111060000D03*
%TD*%
D29*
%TO.C,LED11*%
X214444042Y-83355000D03*
D30*
X213974042Y-83405000D03*
D31*
X214899042Y-81850000D03*
D30*
X213974042Y-81655000D03*
X217074042Y-81655000D03*
D32*
X216499042Y-81955000D03*
D30*
X217074042Y-83405000D03*
D33*
X216274042Y-83405000D03*
D34*
X215599042Y-83355000D03*
%TD*%
D15*
%TO.C,REF\u002A\u002A*%
X161649042Y-114250000D03*
X161199042Y-115300000D03*
X161199042Y-113200000D03*
X160149042Y-115750000D03*
D16*
X160149042Y-114250000D03*
D15*
X160149042Y-112750000D03*
X159099042Y-115300000D03*
X159099042Y-113200000D03*
X158649042Y-114250000D03*
%TD*%
D11*
%TO.C,*%
X207049042Y-59100000D03*
%TD*%
D15*
%TO.C,REF\u002A\u002A*%
X241849042Y-66600000D03*
X241399042Y-67650000D03*
X241399042Y-65550000D03*
X240349042Y-68100000D03*
D16*
X240349042Y-66600000D03*
D15*
X240349042Y-65100000D03*
X239299042Y-67650000D03*
X239299042Y-65550000D03*
X238849042Y-66600000D03*
%TD*%
D11*
%TO.C,*%
X224040478Y-86435769D03*
%TD*%
D19*
%TO.C,D12*%
X195250000Y-91750000D03*
X195250000Y-93850000D03*
%TD*%
D25*
%TO.C,C8*%
X199874042Y-67100000D03*
X198324042Y-67100000D03*
%TD*%
D29*
%TO.C,LED14*%
X171869042Y-104950000D03*
D30*
X171399042Y-105000000D03*
D31*
X172324042Y-103445000D03*
D30*
X171399042Y-103250000D03*
X174499042Y-103250000D03*
D32*
X173924042Y-103550000D03*
D30*
X174499042Y-105000000D03*
D33*
X173699042Y-105000000D03*
D34*
X173024042Y-104950000D03*
%TD*%
D29*
%TO.C,LED13*%
X188919042Y-104950000D03*
D30*
X188449042Y-105000000D03*
D31*
X189374042Y-103445000D03*
D30*
X188449042Y-103250000D03*
X191549042Y-103250000D03*
D32*
X190974042Y-103550000D03*
D30*
X191549042Y-105000000D03*
D33*
X190749042Y-105000000D03*
D34*
X190074042Y-104950000D03*
%TD*%
D29*
%TO.C,LED01*%
X248419042Y-58900000D03*
D30*
X247949042Y-58950000D03*
D31*
X248874042Y-57395000D03*
D30*
X247949042Y-57200000D03*
X251049042Y-57200000D03*
D32*
X250474042Y-57500000D03*
D30*
X251049042Y-58950000D03*
D33*
X250249042Y-58950000D03*
D34*
X249574042Y-58900000D03*
%TD*%
D15*
%TO.C,REF\u002A\u002A*%
X160899042Y-61750000D03*
X160449042Y-62800000D03*
X160449042Y-60700000D03*
X159399042Y-63250000D03*
D16*
X159399042Y-61750000D03*
D15*
X159399042Y-60250000D03*
X158349042Y-62800000D03*
X158349042Y-60700000D03*
X157899042Y-61750000D03*
%TD*%
D11*
%TO.C,*%
X181490478Y-106185769D03*
%TD*%
%TO.C,*%
X206990478Y-74435769D03*
%TD*%
D19*
%TO.C,D11*%
X206999042Y-88200000D03*
X206999042Y-90300000D03*
%TD*%
D20*
%TO.C,SW04*%
X203999264Y-57787820D03*
D21*
X198499264Y-57787820D03*
D20*
X192999264Y-57787820D03*
D22*
X198499264Y-63687820D03*
X203499264Y-61587820D03*
X193499264Y-61587820D03*
%TD*%
D23*
%TO.C,REF\u002A\u002A*%
X239999042Y-50200000D03*
%TD*%
D11*
%TO.C,*%
X223990478Y-69135769D03*
%TD*%
D19*
%TO.C,D02*%
X224040478Y-54485769D03*
X224040478Y-56585769D03*
%TD*%
D11*
%TO.C,*%
X240990478Y-57935769D03*
%TD*%
%TO.C,*%
X240990478Y-63235769D03*
%TD*%
D18*
%TO.C,C9*%
X244500000Y-92750000D03*
X244500000Y-91200000D03*
%TD*%
D11*
%TO.C,*%
X206999042Y-86600000D03*
%TD*%
D25*
%TO.C,C12*%
X199749042Y-84250000D03*
X198199042Y-84250000D03*
%TD*%
D11*
%TO.C,*%
X176090478Y-107235769D03*
%TD*%
D23*
%TO.C,REF\u002A\u002A*%
X241999042Y-104200000D03*
%TD*%
%TO.C,REF\u002A\u002A*%
X156799042Y-45550000D03*
%TD*%
D41*
%TO.C,IC1*%
X161100000Y-86600000D03*
X162050000Y-86600000D03*
X163000000Y-86600000D03*
X163000000Y-89300000D03*
X161100000Y-89300000D03*
%TD*%
D12*
%TO.C,SW15*%
X157899042Y-101750000D03*
X157899042Y-108250000D03*
X162399042Y-101750000D03*
X162399042Y-108250000D03*
%TD*%
D19*
%TO.C,D03*%
X207040478Y-54950000D03*
X207040478Y-57050000D03*
%TD*%
D20*
%TO.C,SW01*%
X255012350Y-62740284D03*
D21*
X249512350Y-62740284D03*
D20*
X244012350Y-62740284D03*
D22*
X249512350Y-68640284D03*
X254512350Y-66540284D03*
X244512350Y-66540284D03*
%TD*%
D15*
%TO.C,REF\u002A\u002A*%
X224849042Y-79050000D03*
X224399042Y-80100000D03*
X224399042Y-78000000D03*
X223349042Y-80550000D03*
D16*
X223349042Y-79050000D03*
D15*
X223349042Y-77550000D03*
X222299042Y-80100000D03*
X222299042Y-78000000D03*
X221849042Y-79050000D03*
%TD*%
%TO.C,REF\u002A\u002A*%
X160899042Y-61750000D03*
X160449042Y-62800000D03*
X160449042Y-60700000D03*
X159399042Y-63250000D03*
D16*
X159399042Y-61750000D03*
D15*
X159399042Y-60250000D03*
X158349042Y-62800000D03*
X158349042Y-60700000D03*
X157899042Y-61750000D03*
%TD*%
M02*
