M48
; DRILL file {KiCad 7.0.2} date Fri Mar 22 10:09:14 2024
; FORMAT={-:-/ absolute / metric / decimal}
; #@! TF.CreationDate,2024-03-22T10:09:14-05:00
; #@! TF.GenerationSoftware,Kicad,Pcbnew,7.0.2
; #@! TF.FileFunction,Plated,1,2,PTH
FMAT,2
METRIC
; #@! TA.AperFunction,Plated,PTH,ViaDrill
T1C0.300
; #@! TA.AperFunction,Plated,PTH,ViaDrill
T2C0.400
; #@! TA.AperFunction,Plated,PTH,ComponentDrill
T3C0.400
; #@! TA.AperFunction,Plated,PTH,ComponentDrill
T4C0.600
; #@! TA.AperFunction,Plated,PTH,ComponentDrill
T5C0.700
; #@! TA.AperFunction,Plated,PTH,ComponentDrill
T6C0.900
; #@! TA.AperFunction,Plated,PTH,ComponentDrill
T7C1.000
; #@! TA.AperFunction,Plated,PTH,ComponentDrill
T8C1.100
; #@! TA.AperFunction,Plated,PTH,ComponentDrill
T9C2.000
; #@! TA.AperFunction,Plated,PTH,ComponentDrill
T10C2.200
%
G90
G05
T1
X163.25Y-98.25
X164.445Y-51.04
X165.095Y-51.62
X165.53Y-53.155
X167.1Y-98.9
X167.5Y-96.5
X168.07Y-52.87
X168.07Y-55.185
X168.1Y-98.9
X174.75Y-71.5
X177.5Y-73.0
X180.2Y-98.325
X181.04Y-97.0
X181.04Y-100.495
X182.44Y-96.2
X182.44Y-100.536
X184.5Y-72.25
X196.7Y-98.325
T2
X158.0Y-82.2
X158.75Y-89.25
X162.05Y-84.325
X163.47Y-47.265
X163.47Y-60.015
X163.899Y-72.0
X163.97Y-72.015
X164.75Y-82.0
X164.75Y-86.8
X164.75Y-89.25
X168.25Y-91.0
X168.75Y-82.0
X169.5Y-103.0
X169.5Y-105.0
X169.5Y-106.1
X176.25Y-105.0
X183.25Y-102.8
X186.75Y-103.0
X186.75Y-105.0
X188.0Y-106.5
X191.19Y-70.786
X191.19Y-72.536
X192.69Y-88.786
X192.94Y-70.786
X193.0Y-103.25
X193.5Y-89.786
X193.525Y-53.01
X194.0Y-105.0
X195.0Y-88.0
X195.25Y-54.0
X195.699Y-64.6
X195.699Y-70.9
X195.699Y-77.2
X195.699Y-80.8
X195.75Y-84.25
X196.5Y-50.5
X196.7Y-62.45
X196.75Y-67.0
X197.0Y-71.861
X197.05Y-100.5
X198.5Y-61.588
X198.5Y-78.588
X200.75Y-49.75
X201.5Y-86.25
X201.75Y-69.25
X202.0Y-47.4
X202.0Y-53.75
X202.75Y-71.0
X205.499Y-93.0
X205.5Y-66.75
X208.5Y-80.75
X212.0Y-64.5
X212.0Y-66.25
X212.0Y-81.5
X212.0Y-83.5
X212.25Y-47.75
X212.25Y-50.0
X212.3Y-87.75
X212.4Y-54.75
X212.4Y-70.8
X214.0Y-85.0
X217.75Y-68.25
X218.19Y-72.786
X218.19Y-77.7
X218.199Y-61.3
X218.7Y-47.7
X218.75Y-49.5
X218.75Y-83.5
X219.25Y-66.25
X219.625Y-51.525
X221.25Y-83.5
X221.25Y-85.0
X223.5Y-67.0
X226.0Y-52.0
X226.399Y-64.7
X228.94Y-67.25
X229.0Y-52.25
X229.0Y-54.0
X229.0Y-71.0
X229.0Y-86.25
X229.0Y-88.0
X229.1Y-92.25
X229.25Y-58.4
X229.25Y-69.25
X229.307Y-75.68
X231.0Y-89.5
X235.349Y-81.936
X235.75Y-54.0
X235.75Y-63.5
X235.75Y-71.0
X236.0Y-88.0
X238.0Y-55.75
X238.0Y-73.0
X240.84Y-81.936
X241.04Y-70.4
X242.5Y-73.5
X242.61Y-56.94
X244.0Y-89.75
X246.0Y-57.25
X246.0Y-58.75
X246.0Y-74.25
X246.0Y-76.0
X246.0Y-90.524
X246.0Y-94.25
X246.25Y-93.0
X252.69Y-81.936
X252.69Y-93.0
X253.0Y-58.75
X253.0Y-76.0
X255.5Y-77.5
T3
X157.899Y-61.75
X157.899Y-61.75
X158.349Y-60.7
X158.349Y-60.7
X158.349Y-62.8
X158.349Y-62.8
X158.649Y-114.25
X159.099Y-113.2
X159.099Y-115.3
X159.399Y-60.25
X159.399Y-60.25
X159.399Y-63.25
X159.399Y-63.25
X160.149Y-112.75
X160.149Y-115.75
X160.449Y-60.7
X160.449Y-60.7
X160.449Y-62.8
X160.449Y-62.8
X160.899Y-61.75
X160.899Y-61.75
X161.199Y-113.2
X161.199Y-115.3
X161.649Y-114.25
X167.33Y-72.216
X167.78Y-71.166
X167.78Y-73.266
X168.83Y-70.716
X168.83Y-73.716
X169.88Y-71.166
X169.88Y-73.266
X170.33Y-72.216
X179.999Y-115.3
X180.449Y-114.25
X180.449Y-116.35
X181.499Y-113.8
X181.499Y-116.8
X182.549Y-114.25
X182.549Y-116.35
X182.999Y-115.3
X185.32Y-93.206
X185.77Y-92.156
X185.77Y-94.256
X186.82Y-91.706
X186.82Y-94.706
X187.87Y-92.156
X187.87Y-94.256
X188.32Y-93.206
X204.749Y-46.95
X204.849Y-83.65
X205.199Y-45.9
X205.199Y-48.0
X205.299Y-82.6
X205.299Y-84.7
X206.249Y-45.45
X206.249Y-48.45
X206.349Y-82.15
X206.349Y-85.15
X207.299Y-45.9
X207.299Y-48.0
X207.399Y-82.6
X207.399Y-84.7
X207.749Y-46.95
X207.849Y-83.65
X221.849Y-79.05
X222.299Y-78.0
X222.299Y-80.1
X223.349Y-77.55
X223.349Y-80.55
X224.399Y-78.0
X224.399Y-80.1
X224.849Y-79.05
X238.849Y-66.6
X239.299Y-65.55
X239.299Y-67.65
X239.699Y-88.6
X240.149Y-87.55
X240.149Y-89.65
X240.349Y-65.1
X240.349Y-68.1
X241.199Y-87.1
X241.199Y-90.1
X241.399Y-65.55
X241.399Y-67.65
X241.849Y-66.6
X242.249Y-87.55
X242.249Y-89.65
X242.699Y-88.6
T4
X156.799Y-45.55
X156.899Y-116.25
X165.499Y-116.336
X197.399Y-116.336
X205.999Y-99.3
X222.999Y-45.7
X224.999Y-99.3
X239.999Y-50.2
X241.999Y-104.2
X256.999Y-55.2
X256.999Y-104.3
T5
X163.899Y-78.75
X164.5Y-96.2
X164.91Y-111.06
X164.969Y-77.03
X172.4Y-76.34
X172.4Y-78.12
X172.4Y-79.9
X172.4Y-81.68
X172.4Y-83.46
X172.4Y-85.24
X172.4Y-87.02
X172.4Y-88.8
X176.09Y-107.236
X176.09Y-114.716
X181.44Y-112.05
X181.49Y-106.186
X183.1Y-75.45
X183.1Y-77.23
X183.1Y-79.01
X183.1Y-80.79
X183.1Y-82.57
X183.1Y-84.35
X183.1Y-86.13
X183.1Y-87.91
X191.855Y-50.07
X192.64Y-46.436
X193.5Y-48.8
X195.25Y-90.25
X195.25Y-97.25
X199.44Y-46.536
X201.649Y-80.75
X201.69Y-55.586
X201.69Y-63.786
X201.69Y-73.5
X206.99Y-68.536
X206.99Y-74.436
X206.99Y-91.9
X206.999Y-53.15
X206.999Y-86.6
X207.049Y-59.1
X223.99Y-69.136
X224.0Y-52.675
X224.0Y-61.7
X224.0Y-65.55
X224.04Y-58.636
X224.04Y-74.986
X224.04Y-86.436
X224.04Y-92.386
X240.99Y-57.936
X240.99Y-63.236
X240.99Y-92.086
X241.0Y-85.65
X241.04Y-74.836
X241.04Y-80.436
X241.04Y-97.736
T7
X170.82Y-46.286
X170.82Y-48.826
X170.82Y-51.366
X170.82Y-53.906
X170.82Y-56.446
X170.82Y-58.986
X170.82Y-61.526
X170.82Y-64.066
X170.82Y-66.606
X173.36Y-66.606
X175.9Y-66.606
X178.44Y-66.606
X180.98Y-66.606
X183.52Y-66.606
X186.06Y-46.286
X186.06Y-48.826
X186.06Y-51.366
X186.06Y-53.906
X186.06Y-56.446
X186.06Y-58.986
X186.06Y-61.526
X186.06Y-64.066
X186.06Y-66.606
T8
X157.89Y-111.08
X157.899Y-101.75
X157.899Y-108.25
X162.399Y-101.75
X162.399Y-108.25
T9
X165.65Y-46.5
T10
X159.399Y-61.75
X159.399Y-61.75
X160.149Y-114.25
X168.83Y-72.216
X181.499Y-115.3
X186.82Y-93.206
X206.249Y-46.95
X206.349Y-83.65
X223.349Y-79.05
X240.349Y-66.6
X241.199Y-88.6
T3
X168.263Y-112.603G85X167.663Y-112.603
G05
X173.263Y-114.703G85X172.663Y-114.703
G05
X178.263Y-112.603G85X177.663Y-112.603
G05
X185.263Y-112.594G85X184.663Y-112.594
G05
X190.263Y-114.694G85X189.663Y-114.694
G05
X193.799Y-61.588G85X193.199Y-61.588
G05
X193.799Y-78.588G85X193.199Y-78.588
G05
X193.799Y-95.588G85X193.199Y-95.588
G05
X195.263Y-112.594G85X194.663Y-112.594
G05
X198.799Y-63.688G85X198.199Y-63.688
G05
X198.799Y-80.688G85X198.199Y-80.688
G05
X198.799Y-97.688G85X198.199Y-97.688
G05
X203.799Y-61.588G85X203.199Y-61.588
G05
X203.799Y-78.588G85X203.199Y-78.588
G05
X203.799Y-95.588G85X203.199Y-95.588
G05
X210.812Y-91.004G85X210.212Y-91.004
G05
X210.812Y-74.004G85X210.212Y-74.004
G05
X210.812Y-57.004G85X210.212Y-57.004
G05
X215.812Y-93.104G85X215.212Y-93.104
G05
X215.812Y-76.104G85X215.212Y-76.104
G05
X215.812Y-59.104G85X215.212Y-59.104
G05
X220.812Y-91.004G85X220.212Y-91.004
G05
X220.812Y-74.004G85X220.212Y-74.004
G05
X220.812Y-57.004G85X220.212Y-57.004
G05
X227.812Y-61.559G85X227.212Y-61.559
G05
X227.812Y-95.559G85X227.212Y-95.559
G05
X227.812Y-78.559G85X227.212Y-78.559
G05
X232.812Y-63.659G85X232.212Y-63.659
G05
X232.812Y-97.659G85X232.212Y-97.659
G05
X232.812Y-80.659G85X232.212Y-80.659
G05
X237.812Y-61.559G85X237.212Y-61.559
G05
X237.812Y-95.559G85X237.212Y-95.559
G05
X237.812Y-78.559G85X237.212Y-78.559
G05
X244.812Y-100.54G85X244.212Y-100.54
G05
X244.812Y-66.54G85X244.212Y-66.54
G05
X244.812Y-83.54G85X244.212Y-83.54
G05
X249.812Y-102.64G85X249.212Y-102.64
G05
X249.812Y-68.64G85X249.212Y-68.64
G05
X249.812Y-85.64G85X249.212Y-85.64
G05
X254.812Y-100.54G85X254.212Y-100.54
G05
X254.812Y-66.54G85X254.212Y-66.54
G05
X254.812Y-83.54G85X254.212Y-83.54
G05
T4
X157.084Y-46.524G85X158.284Y-46.524
G05
X157.084Y-57.764G85X158.284Y-57.764
G05
X161.284Y-46.524G85X162.084Y-46.524
G05
X161.284Y-57.764G85X162.084Y-57.764
G05
T6
X157.099Y-70.65G85X157.099Y-70.25
G05
X157.099Y-73.65G85X157.099Y-73.25
G05
X157.099Y-77.65G85X157.099Y-77.25
G05
X157.099Y-78.75G85X157.099Y-78.35
G05
X161.699Y-70.65G85X161.699Y-70.25
G05
X161.699Y-73.65G85X161.699Y-73.25
G05
X161.699Y-77.65G85X161.699Y-77.25
G05
X161.699Y-78.75G85X161.699Y-78.35
G05
T0
M30
