M48
; DRILL file {KiCad 7.0.2} date Fri Mar 22 10:09:14 2024
; FORMAT={-:-/ absolute / metric / decimal}
; #@! TF.CreationDate,2024-03-22T10:09:14-05:00
; #@! TF.GenerationSoftware,Kicad,Pcbnew,7.0.2
; #@! TF.FileFunction,NonPlated,1,2,NPTH
FMAT,2
METRIC
; #@! TA.AperFunction,NonPlated,NPTH,ComponentDrill
T1C0.800
; #@! TA.AperFunction,NonPlated,NPTH,ComponentDrill
T2C1.700
; #@! TA.AperFunction,NonPlated,NPTH,ComponentDrill
T3C3.250
%
G90
G05
T1
X159.399Y-68.85
X159.399Y-75.85
T2
X167.463Y-108.803
X178.463Y-108.803
X184.463Y-108.794
X192.999Y-57.788
X192.999Y-74.788
X192.999Y-91.788
X195.463Y-108.794
X203.999Y-57.788
X203.999Y-74.788
X203.999Y-91.788
X210.012Y-87.204
X210.012Y-70.204
X210.012Y-53.204
X221.012Y-87.204
X221.012Y-70.204
X221.012Y-53.204
X227.012Y-57.759
X227.012Y-91.759
X227.012Y-74.759
X238.012Y-57.759
X238.012Y-91.759
X238.012Y-74.759
X244.012Y-96.74
X244.012Y-62.74
X244.012Y-79.74
X255.012Y-96.74
X255.012Y-62.74
X255.012Y-79.74
T3
X172.963Y-108.803
X189.963Y-108.794
X198.499Y-57.788
X198.499Y-74.788
X198.499Y-91.788
X215.512Y-87.204
X215.512Y-70.204
X215.512Y-53.204
X232.512Y-57.759
X232.512Y-91.759
X232.512Y-74.759
X249.512Y-96.74
X249.512Y-62.74
X249.512Y-79.74
T0
M30
