%TF.GenerationSoftware,KiCad,Pcbnew,7.0.2*%
%TF.CreationDate,2024-03-22T10:09:10-05:00*%
%TF.ProjectId,02_capsule5_right,30325f63-6170-4737-956c-65355f726967,v1.0.0*%
%TF.SameCoordinates,Original*%
%TF.FileFunction,Copper,L1,Top*%
%TF.FilePolarity,Positive*%
%FSLAX46Y46*%
G04 Gerber Fmt 4.6, Leading zero omitted, Abs format (unit mm)*
G04 Created by KiCad (PCBNEW 7.0.2) date 2024-03-22 10:09:10*
%MOMM*%
%LPD*%
G01*
G04 APERTURE LIST*
%TA.AperFunction,NonConductor*%
%ADD10C,0.700000*%
%TD*%
%ADD11C,0.750000*%
%TA.AperFunction,NonConductor*%
%ADD12C,0.750000*%
%TD*%
%TA.AperFunction,ComponentPad*%
%ADD13C,2.500000*%
%TD*%
%TA.AperFunction,ComponentPad*%
%ADD14C,1.200000*%
%TD*%
%TA.AperFunction,ComponentPad*%
%ADD15C,2.000000*%
%TD*%
%TA.AperFunction,ComponentPad*%
%ADD16O,3.130000X1.500000*%
%TD*%
%TA.AperFunction,ComponentPad*%
%ADD17O,1.500000X3.090000*%
%TD*%
%TA.AperFunction,ComponentPad*%
%ADD18C,0.400000*%
%TD*%
%TA.AperFunction,ComponentPad*%
%ADD19C,3.600000*%
%TD*%
%TA.AperFunction,ComponentPad*%
%ADD20R,1.200000X1.200000*%
%TD*%
%TA.AperFunction,WasherPad*%
%ADD21C,1.900000*%
%TD*%
%TA.AperFunction,WasherPad*%
%ADD22C,3.500000*%
%TD*%
%TA.AperFunction,ComponentPad*%
%ADD23O,2.200000X1.600000*%
%TD*%
%TA.AperFunction,ComponentPad*%
%ADD24C,1.000000*%
%TD*%
%TA.AperFunction,ComponentPad*%
%ADD25O,1.600000X2.000000*%
%TD*%
%TA.AperFunction,ComponentPad*%
%ADD26O,2.200000X1.000000*%
%TD*%
%TA.AperFunction,ComponentPad*%
%ADD27O,1.800000X1.000000*%
%TD*%
%TA.AperFunction,ViaPad*%
%ADD28C,0.800000*%
%TD*%
%TA.AperFunction,ViaPad*%
%ADD29C,0.600000*%
%TD*%
%TA.AperFunction,Conductor*%
%ADD30C,0.400000*%
%TD*%
%TA.AperFunction,Conductor*%
%ADD31C,0.250000*%
%TD*%
%TA.AperFunction,Conductor*%
%ADD32C,0.200000*%
%TD*%
G04 APERTURE END LIST*
D10*
X156030781Y-45944870D02*
X156034936Y-67590951D01*
X223181017Y-95536796D02*
X207769869Y-95546896D01*
X206765714Y-96550815D02*
X206759936Y-99140951D01*
X205755781Y-100144870D02*
X199234936Y-100140951D01*
X241140886Y-104056012D02*
X241153980Y-101075895D01*
X156009936Y-80290951D02*
X155990881Y-116131018D01*
X197225003Y-117165958D02*
G75*
G03*
X198229158Y-116162032I-3J1004158D01*
G01*
X155990927Y-116131018D02*
G75*
G03*
X156994800Y-117135173I1004173J18D01*
G01*
X225194800Y-100085173D02*
X240131017Y-100086796D01*
X241140933Y-104056012D02*
G75*
G03*
X242144805Y-105060167I1004167J12D01*
G01*
X222775067Y-44971733D02*
X188634936Y-44965951D01*
X224184936Y-96540951D02*
X224190881Y-99081018D01*
X241153960Y-101075895D02*
G75*
G03*
X240150061Y-100071740I-1004160J-5D01*
G01*
X257804153Y-104056081D02*
X257828986Y-55525889D01*
X240806049Y-53486795D02*
G75*
G03*
X241809936Y-54490951I1004151J-5D01*
G01*
X224794805Y-49535169D02*
X239800067Y-49496733D01*
X257828967Y-55525889D02*
G75*
G03*
X256825067Y-54521733I-1004167J-11D01*
G01*
X168184936Y-44940951D02*
X157034936Y-44940951D01*
X157034936Y-44940981D02*
G75*
G03*
X156030781Y-45944870I-36J-1004119D01*
G01*
X205755781Y-100144936D02*
G75*
G03*
X206759936Y-99140951I-81J1004236D01*
G01*
X198230781Y-101144870D02*
X198229158Y-116162032D01*
X224184904Y-96540951D02*
G75*
G03*
X223181017Y-95536796I-1004204J-49D01*
G01*
X223778986Y-45975889D02*
X223790886Y-48531013D01*
X223790931Y-48531013D02*
G75*
G03*
X224794805Y-49535169I1004169J13D01*
G01*
X240803967Y-50500889D02*
G75*
G03*
X239800067Y-49496733I-1004167J-11D01*
G01*
X156994800Y-117135173D02*
X197225003Y-117165951D01*
X256799998Y-105059953D02*
G75*
G03*
X257804153Y-104056081I2J1004153D01*
G01*
X223778967Y-45975889D02*
G75*
G03*
X222775067Y-44971733I-1004167J-11D01*
G01*
X240803986Y-50500889D02*
X240806017Y-53486795D01*
X224190927Y-99081018D02*
G75*
G03*
X225194800Y-100085173I1004173J18D01*
G01*
X241809936Y-54490951D02*
X256825067Y-54521733D01*
X199234936Y-100140881D02*
G75*
G03*
X198230781Y-101144870I164J-1004319D01*
G01*
X242144805Y-105060167D02*
X256799998Y-105060000D01*
X207769869Y-95546914D02*
G75*
G03*
X206765714Y-96550815I31J-1004186D01*
G01*
D11*
D12*
G36*
X173238101Y-54631479D02*
G01*
X173246161Y-54631479D01*
X173266170Y-54594133D01*
X173287455Y-54558298D01*
X173310014Y-54523974D01*
X173333848Y-54491161D01*
X173358958Y-54459860D01*
X173385343Y-54430070D01*
X173413002Y-54401791D01*
X173441937Y-54375024D01*
X173472147Y-54349768D01*
X173503632Y-54326023D01*
X173525331Y-54311032D01*
X173558750Y-54290081D01*
X173592788Y-54271190D01*
X173627444Y-54254360D01*
X173662718Y-54239591D01*
X173698610Y-54226883D01*
X173735120Y-54216236D01*
X173772249Y-54207649D01*
X173809996Y-54201123D01*
X173848361Y-54196658D01*
X173887345Y-54194254D01*
X173913677Y-54193796D01*
X173962956Y-54195177D01*
X174010775Y-54199322D01*
X174057134Y-54206229D01*
X174102034Y-54215900D01*
X174145474Y-54228333D01*
X174187454Y-54243530D01*
X174227975Y-54261489D01*
X174267035Y-54282212D01*
X174304636Y-54305697D01*
X174340778Y-54331946D01*
X174375459Y-54360957D01*
X174408681Y-54392732D01*
X174440443Y-54427269D01*
X174470745Y-54464569D01*
X174499588Y-54504633D01*
X174526971Y-54547459D01*
X174552791Y-54592816D01*
X174576945Y-54640714D01*
X174599434Y-54691154D01*
X174620256Y-54744136D01*
X174639413Y-54799659D01*
X174656904Y-54857724D01*
X174672729Y-54918331D01*
X174686889Y-54981479D01*
X174699382Y-55047169D01*
X174710210Y-55115400D01*
X174719372Y-55186174D01*
X174726868Y-55259488D01*
X174732699Y-55335345D01*
X174736863Y-55413743D01*
X174738321Y-55453895D01*
X174739362Y-55494683D01*
X174739987Y-55536106D01*
X174740195Y-55578164D01*
X174739748Y-55635271D01*
X174738409Y-55691554D01*
X174736176Y-55747012D01*
X174733051Y-55801646D01*
X174729032Y-55855456D01*
X174724121Y-55908442D01*
X174718316Y-55960603D01*
X174711618Y-56011939D01*
X174704028Y-56062452D01*
X174695544Y-56112140D01*
X174686168Y-56161004D01*
X174675898Y-56209043D01*
X174664735Y-56256259D01*
X174652680Y-56302650D01*
X174639731Y-56348216D01*
X174625889Y-56392958D01*
X174611226Y-56436540D01*
X174595813Y-56478871D01*
X174579650Y-56519949D01*
X174562737Y-56559776D01*
X174545074Y-56598351D01*
X174526662Y-56635675D01*
X174507499Y-56671746D01*
X174487587Y-56706566D01*
X174466924Y-56740134D01*
X174445512Y-56772451D01*
X174423350Y-56803515D01*
X174400438Y-56833328D01*
X174376776Y-56861889D01*
X174352364Y-56889199D01*
X174327202Y-56915256D01*
X174301290Y-56940062D01*
X174274786Y-56963368D01*
X174247847Y-56985171D01*
X174220473Y-57005470D01*
X174192663Y-57024265D01*
X174164419Y-57041557D01*
X174135740Y-57057345D01*
X174106625Y-57071629D01*
X174077076Y-57084410D01*
X174047091Y-57095687D01*
X174016671Y-57105461D01*
X173985817Y-57113730D01*
X173954527Y-57120497D01*
X173922802Y-57125759D01*
X173890642Y-57129518D01*
X173858047Y-57131774D01*
X173825017Y-57132526D01*
X173787339Y-57131452D01*
X173750691Y-57128232D01*
X173715073Y-57122866D01*
X173680486Y-57115352D01*
X173646930Y-57105692D01*
X173614403Y-57093886D01*
X173582907Y-57079932D01*
X173552442Y-57063832D01*
X173523007Y-57045586D01*
X173494602Y-57025192D01*
X173476238Y-57010404D01*
X173449564Y-56986880D01*
X173423945Y-56962101D01*
X173399383Y-56936070D01*
X173375877Y-56908784D01*
X173353427Y-56880245D01*
X173332034Y-56850452D01*
X173311696Y-56819405D01*
X173292415Y-56787105D01*
X173274190Y-56753551D01*
X173257021Y-56718744D01*
X173246161Y-56694842D01*
X173238101Y-56694842D01*
X173238101Y-57070000D01*
X172360293Y-57070000D01*
X172360293Y-55750111D01*
X173221981Y-55750111D01*
X173222683Y-55792876D01*
X173224789Y-55833974D01*
X173228299Y-55873407D01*
X173235163Y-55923393D01*
X173244522Y-55970417D01*
X173256377Y-56014480D01*
X173270729Y-56055582D01*
X173287576Y-56093722D01*
X173301849Y-56120383D01*
X173322869Y-56152440D01*
X173345629Y-56180223D01*
X173370130Y-56203731D01*
X173396371Y-56222965D01*
X173424352Y-56237925D01*
X173454073Y-56248611D01*
X173485535Y-56255022D01*
X173518736Y-56257159D01*
X173557182Y-56254549D01*
X173593383Y-56246718D01*
X173627341Y-56233666D01*
X173659054Y-56215394D01*
X173688523Y-56191901D01*
X173715749Y-56163187D01*
X173740730Y-56129252D01*
X173763468Y-56090097D01*
X173783732Y-56045920D01*
X173797158Y-56009942D01*
X173809063Y-55971525D01*
X173819448Y-55930670D01*
X173828314Y-55887376D01*
X173835660Y-55841643D01*
X173841486Y-55793472D01*
X173845792Y-55742862D01*
X173848579Y-55689814D01*
X173849845Y-55634327D01*
X173849930Y-55615289D01*
X173849215Y-55565549D01*
X173847070Y-55518180D01*
X173843496Y-55473180D01*
X173838492Y-55430550D01*
X173832059Y-55390290D01*
X173824195Y-55352400D01*
X173811487Y-55305566D01*
X173796237Y-55262946D01*
X173778446Y-55224539D01*
X173768597Y-55206915D01*
X173747153Y-55174629D01*
X173723488Y-55146648D01*
X173697602Y-55122972D01*
X173669495Y-55103600D01*
X173639167Y-55088534D01*
X173606618Y-55077772D01*
X173571848Y-55071314D01*
X173534856Y-55069162D01*
X173502032Y-55071421D01*
X173470605Y-55078199D01*
X173440575Y-55089495D01*
X173411941Y-55105310D01*
X173384704Y-55125643D01*
X173358864Y-55150495D01*
X173334421Y-55179865D01*
X173311374Y-55213754D01*
X173290423Y-55251001D01*
X173272265Y-55290935D01*
X173256900Y-55333555D01*
X173244330Y-55378862D01*
X173234552Y-55426856D01*
X173227568Y-55477536D01*
X173224164Y-55517310D01*
X173222331Y-55558594D01*
X173221981Y-55586957D01*
X173221981Y-55750111D01*
X172360293Y-55750111D01*
X172360293Y-52880746D01*
X173238101Y-52880746D01*
X173238101Y-54631479D01*
G37*
G36*
X176643824Y-55256741D02*
G01*
X176616758Y-55233415D01*
X176589545Y-55214008D01*
X176559036Y-55195535D01*
X176530262Y-55180445D01*
X176509734Y-55170767D01*
X176479140Y-55157486D01*
X176450555Y-55146953D01*
X176419745Y-55138138D01*
X176387883Y-55132642D01*
X176369783Y-55131688D01*
X176317078Y-55134375D01*
X176267774Y-55142435D01*
X176221869Y-55155868D01*
X176179365Y-55174675D01*
X176140262Y-55198855D01*
X176104558Y-55228408D01*
X176072255Y-55263335D01*
X176043353Y-55303635D01*
X176017850Y-55349309D01*
X175995748Y-55400355D01*
X175977046Y-55456775D01*
X175961745Y-55518569D01*
X175949844Y-55585736D01*
X175941343Y-55658276D01*
X175936243Y-55736189D01*
X175934967Y-55777161D01*
X175934542Y-55819476D01*
X175934542Y-57070000D01*
X175056734Y-57070000D01*
X175056734Y-54256322D01*
X175934542Y-54256322D01*
X175934542Y-54756531D01*
X175942602Y-54756531D01*
X175958307Y-54706033D01*
X175975197Y-54657853D01*
X175993272Y-54611992D01*
X176012532Y-54568449D01*
X176032977Y-54527224D01*
X176054607Y-54488318D01*
X176077422Y-54451730D01*
X176101421Y-54417461D01*
X176126606Y-54385510D01*
X176152976Y-54355878D01*
X176171214Y-54337411D01*
X176199535Y-54311745D01*
X176228719Y-54288604D01*
X176258765Y-54267987D01*
X176289675Y-54249895D01*
X176321448Y-54234328D01*
X176354084Y-54221285D01*
X176387583Y-54210766D01*
X176421944Y-54202772D01*
X176457169Y-54197302D01*
X176493257Y-54194357D01*
X176517794Y-54193796D01*
X176548619Y-54195385D01*
X176581615Y-54201094D01*
X176612229Y-54210956D01*
X176640462Y-54224969D01*
X176643824Y-54227013D01*
X176643824Y-55256741D01*
G37*
G36*
X177308408Y-57695261D02*
G01*
X176535380Y-57695261D01*
X177996441Y-53130851D01*
X178769469Y-53130851D01*
X177308408Y-57695261D01*
G37*
G36*
X180263503Y-57070000D02*
G01*
X179793824Y-55631898D01*
X179785764Y-55631898D01*
X179785764Y-57070000D01*
X178907955Y-57070000D01*
X178907955Y-52880746D01*
X179785764Y-52880746D01*
X179785764Y-55569371D01*
X179793824Y-55569371D01*
X180220272Y-54256322D01*
X181209455Y-54256322D01*
X180638660Y-55544947D01*
X181242428Y-57070000D01*
X180263503Y-57070000D01*
G37*
G36*
X182764305Y-57070000D02*
G01*
X182764305Y-55552763D01*
X182763790Y-55505682D01*
X182762244Y-55461160D01*
X182759668Y-55419197D01*
X182756062Y-55379793D01*
X182749651Y-55331235D01*
X182741407Y-55287225D01*
X182731332Y-55247765D01*
X182716163Y-55204836D01*
X182705687Y-55182491D01*
X182685580Y-55149842D01*
X182661895Y-55122728D01*
X182634632Y-55101146D01*
X182603792Y-55085099D01*
X182569374Y-55074585D01*
X182539263Y-55070158D01*
X182515177Y-55069162D01*
X182480902Y-55072024D01*
X182449060Y-55080611D01*
X182419651Y-55094922D01*
X182392674Y-55114958D01*
X182368131Y-55140718D01*
X182346020Y-55172202D01*
X182337857Y-55186399D01*
X182319492Y-55224328D01*
X182304240Y-55265453D01*
X182292101Y-55309775D01*
X182283074Y-55357292D01*
X182278094Y-55397608D01*
X182275106Y-55439969D01*
X182274110Y-55484375D01*
X182274110Y-57070000D01*
X181396301Y-57070000D01*
X181396301Y-54256322D01*
X182274110Y-54256322D01*
X182274110Y-54694005D01*
X182282170Y-54694005D01*
X182302585Y-54650253D01*
X182324262Y-54608390D01*
X182347201Y-54568417D01*
X182371402Y-54530332D01*
X182396866Y-54494136D01*
X182423592Y-54459830D01*
X182451580Y-54427412D01*
X182480831Y-54396884D01*
X182511344Y-54368244D01*
X182543118Y-54341494D01*
X182565003Y-54324710D01*
X182598521Y-54301314D01*
X182632580Y-54280220D01*
X182667180Y-54261426D01*
X182702321Y-54244934D01*
X182738003Y-54230743D01*
X182774226Y-54218854D01*
X182810989Y-54209265D01*
X182848294Y-54201978D01*
X182886140Y-54196992D01*
X182924527Y-54194307D01*
X182950418Y-54193796D01*
X182993019Y-54194931D01*
X183034267Y-54198337D01*
X183074163Y-54204014D01*
X183112706Y-54211961D01*
X183149897Y-54222179D01*
X183185736Y-54234668D01*
X183220222Y-54249428D01*
X183253356Y-54266458D01*
X183285137Y-54285759D01*
X183315566Y-54307330D01*
X183344643Y-54331173D01*
X183372367Y-54357286D01*
X183398739Y-54385669D01*
X183423758Y-54416324D01*
X183447425Y-54449249D01*
X183469740Y-54484445D01*
X183490702Y-54521911D01*
X183510312Y-54561648D01*
X183528569Y-54603656D01*
X183545474Y-54647935D01*
X183561027Y-54694484D01*
X183575227Y-54743304D01*
X183588074Y-54794395D01*
X183599570Y-54847756D01*
X183609713Y-54903388D01*
X183618503Y-54961291D01*
X183625942Y-55021464D01*
X183632027Y-55083908D01*
X183636761Y-55148623D01*
X183640142Y-55215609D01*
X183642170Y-55284865D01*
X183642847Y-55356392D01*
X183642847Y-57070000D01*
X182764305Y-57070000D01*
G37*
D13*
%TO.P,REF\u002A\u002A,*%
%TO.N,*%
X165650000Y-46500000D03*
%TD*%
D14*
%TO.P,,*%
%TO.N,*%
X224000000Y-65550000D03*
%TD*%
%TO.P,,*%
%TO.N,5V*%
X193500000Y-48800000D03*
%TD*%
%TO.P,,*%
%TO.N,*%
X224000000Y-61700000D03*
%TD*%
D15*
%TO.P,,1*%
%TO.N,Net-(D15-Pad2)*%
X157890000Y-111080000D03*
%TD*%
D16*
%TO.P,U1,1,0*%
%TO.N,LED*%
X186875478Y-46285769D03*
%TO.P,U1,2,1*%
%TO.N,ROW0*%
X186875478Y-48825769D03*
%TO.P,U1,3,2*%
%TO.N,ROW1*%
X186875478Y-51365769D03*
%TO.P,U1,4,3*%
%TO.N,ROW2*%
X186875478Y-53905769D03*
%TO.P,U1,5,4*%
%TO.N,ROW3*%
X186875478Y-56445769D03*
%TO.P,U1,6,5*%
%TO.N,unconnected-(U1-5-Pad6)*%
X186875478Y-58985769D03*
%TO.P,U1,7,6*%
%TO.N,unconnected-(U1-6-Pad7)*%
X186875478Y-61525769D03*
%TO.P,U1,8,7*%
%TO.N,unconnected-(U1-7-Pad8)*%
X186875478Y-64065769D03*
%TO.P,U1,9,8*%
%TO.N,COL4*%
X186875478Y-66605769D03*
D17*
%TO.P,U1,10,9*%
%TO.N,NCS*%
X183520478Y-67400769D03*
%TO.P,U1,11,10*%
%TO.N,SCK*%
X180980478Y-67400769D03*
%TO.P,U1,12,11*%
%TO.N,MOSI*%
X178440478Y-67400769D03*
%TO.P,U1,13,12*%
%TO.N,MISO*%
X175900478Y-67400769D03*
%TO.P,U1,14,13*%
%TO.N,unconnected-(U1-13-Pad14)*%
X173360478Y-67400769D03*
D16*
%TO.P,U1,15,14*%
%TO.N,COL3*%
X170005478Y-66605769D03*
%TO.P,U1,16,15*%
%TO.N,COL2*%
X170005478Y-64065769D03*
%TO.P,U1,17,26*%
%TO.N,COL1*%
X170005478Y-61525769D03*
%TO.P,U1,18,27*%
%TO.N,COL0*%
X170005478Y-58985769D03*
%TO.P,U1,19,28*%
%TO.N,TX*%
X170005478Y-56445769D03*
%TO.P,U1,20,29*%
%TO.N,RX*%
X170005478Y-53905769D03*
%TO.P,U1,21,3V3*%
%TO.N,3V3*%
X170005478Y-51365769D03*
%TO.P,U1,22,GND*%
%TO.N,GND*%
X170005478Y-48825769D03*
%TO.P,U1,23,5V*%
%TO.N,5V*%
X170005478Y-46285769D03*
%TD*%
D18*
%TO.P,U3,*%
%TO.N,*%
X167329807Y-72215728D03*
X167779807Y-71165728D03*
X167779807Y-73265728D03*
X168829807Y-70715728D03*
D19*
X168829807Y-72215728D03*
D18*
X168829807Y-73715728D03*
X169879807Y-71165728D03*
X169879807Y-73265728D03*
X170329807Y-72215728D03*
X185319807Y-93205728D03*
X185769807Y-92155728D03*
X185769807Y-94255728D03*
X186819807Y-91705728D03*
D19*
X186819807Y-93205728D03*
D18*
X186819807Y-94705728D03*
X187869807Y-92155728D03*
X187869807Y-94255728D03*
X188319807Y-93205728D03*
D20*
%TO.P,U3,1,NC*%
%TO.N,unconnected-(U3-NC-Pad1)*%
X172400000Y-88800000D03*
D14*
%TO.P,U3,2,NC*%
%TO.N,unconnected-(U3-NC-Pad2)*%
X172400000Y-87020000D03*
%TO.P,U3,3,VDDPIX*%
%TO.N,Net-(U3-VDDPIX)*%
X172400000Y-85240000D03*
%TO.P,U3,4,VDD*%
%TO.N,2V*%
X172400000Y-83460000D03*
%TO.P,U3,5,VDDIO*%
%TO.N,3V3*%
X172400000Y-81680000D03*
%TO.P,U3,6,NC*%
%TO.N,unconnected-(U3-NC-Pad6)*%
X172400000Y-79900000D03*
%TO.P,U3,7,NRESET*%
%TO.N,unconnected-(U3-NRESET-Pad7)*%
X172400000Y-78120000D03*
%TO.P,U3,8,GND*%
%TO.N,GND*%
X172400000Y-76340000D03*
%TO.P,U3,9,MOTION*%
%TO.N,unconnected-(U3-MOTION-Pad9)*%
X183100000Y-75450000D03*
%TO.P,U3,10,SCLK*%
%TO.N,SCK*%
X183100000Y-77230000D03*
%TO.P,U3,11,MOSI*%
%TO.N,MOSI*%
X183100000Y-79010000D03*
%TO.P,U3,12,MISO*%
%TO.N,MISO*%
X183100000Y-80790000D03*
%TO.P,U3,13,NCS*%
%TO.N,NCS*%
X183100000Y-82570000D03*
%TO.P,U3,14,NC*%
%TO.N,unconnected-(U3-NC-Pad14)*%
X183100000Y-84350000D03*
%TO.P,U3,15,LED_P*%
%TO.N,Net-(U3-LED_P)*%
X183100000Y-86130000D03*
%TO.P,U3,16,NC*%
%TO.N,unconnected-(U3-NC-Pad16)*%
X183100000Y-87910000D03*
%TD*%
%TO.P,,*%
%TO.N,5V*%
X164500000Y-96200000D03*
%TD*%
%TO.P,,*%
%TO.N,*%
X241000000Y-85650000D03*
%TD*%
%TO.P,,*%
%TO.N,GND*%
X191855000Y-50070000D03*
%TD*%
D18*
%TO.P,REF\u002A\u002A,*%
%TO.N,*%
X242699042Y-88600000D03*
X242249042Y-89650000D03*
X242249042Y-87550000D03*
X241199042Y-90100000D03*
D19*
X241199042Y-88600000D03*
D18*
X241199042Y-87100000D03*
X240149042Y-89650000D03*
X240149042Y-87550000D03*
X239699042Y-88600000D03*
%TD*%
D21*
%TO.P,SW14,*%
%TO.N,*%
X178463232Y-108802659D03*
D22*
X172963232Y-108802659D03*
D21*
X167463232Y-108802659D03*
D23*
%TO.P,SW14,1*%
%TO.N,Net-(D14-Pad2)*%
X172963232Y-114702659D03*
%TO.P,SW14,2*%
%TO.N,COL3*%
X177963232Y-112602659D03*
X167963232Y-112602659D03*
%TD*%
D24*
%TO.P,REF\u002A\u002A,*%
%TO.N,*%
X205999042Y-99300000D03*
%TD*%
D18*
%TO.P,REF\u002A\u002A,*%
%TO.N,*%
X182999042Y-115300000D03*
X182549042Y-116350000D03*
X182549042Y-114250000D03*
X181499042Y-116800000D03*
D19*
X181499042Y-115300000D03*
D18*
X181499042Y-113800000D03*
X180449042Y-116350000D03*
X180449042Y-114250000D03*
X179999042Y-115300000D03*
%TD*%
D14*
%TO.P,,*%
%TO.N,LED*%
X192640478Y-46435769D03*
%TD*%
D21*
%TO.P,SW05,*%
%TO.N,*%
X255012350Y-79740283D03*
D22*
X249512350Y-79740283D03*
D21*
X244012350Y-79740283D03*
D23*
%TO.P,SW05,1*%
%TO.N,Net-(D05-Pad2)*%
X249512350Y-85640283D03*
%TO.P,SW05,2*%
%TO.N,COL0*%
X254512350Y-83540283D03*
X244512350Y-83540283D03*
%TD*%
D14*
%TO.P,,*%
%TO.N,ROW0*%
X201690478Y-55585769D03*
%TD*%
%TO.P,,*%
%TO.N,Net-(D13-Pad2)*%
X181440478Y-112050000D03*
%TD*%
%TO.P,,*%
%TO.N,GND*%
X163899042Y-78750000D03*
%TD*%
D24*
%TO.P,REF\u002A\u002A,*%
%TO.N,*%
X256999042Y-55200000D03*
%TD*%
D14*
%TO.P,,*%
%TO.N,TX*%
X164969042Y-77030000D03*
%TD*%
%TO.P,,*%
%TO.N,ROW0*%
X224000000Y-52675000D03*
%TD*%
D25*
%TO.P,U2,1,SLEEVE*%
%TO.N,GND*%
X161699042Y-78550000D03*
X157099042Y-78550000D03*
%TO.P,U2,2,TIP*%
%TO.N,TX*%
X161699042Y-77450000D03*
X157099042Y-77450000D03*
%TO.P,U2,3,RING1*%
%TO.N,RX*%
X161699042Y-73450000D03*
X157099042Y-73450000D03*
%TO.P,U2,4,RING2*%
%TO.N,5V*%
X161699042Y-70450000D03*
X157099042Y-70450000D03*
%TD*%
D24*
%TO.P,REF\u002A\u002A,*%
%TO.N,*%
X165499042Y-116335769D03*
%TD*%
D14*
%TO.P,,*%
%TO.N,ROW2*%
X195250000Y-90250000D03*
%TD*%
%TO.P,,*%
%TO.N,Net-(D04-Pad2)*%
X201690478Y-63785769D03*
%TD*%
%TO.P,,*%
%TO.N,Net-(D09-Pad2)*%
X241040478Y-97735769D03*
%TD*%
%TO.P,,*%
%TO.N,Net-(D11-Pad2)*%
X206990478Y-91900000D03*
%TD*%
%TO.P,,*%
%TO.N,Net-(D14-Pad2)*%
X176090478Y-114715769D03*
%TD*%
D24*
%TO.P,REF\u002A\u002A,*%
%TO.N,*%
X224999042Y-99300000D03*
%TD*%
%TO.P,REF\u002A\u002A,*%
%TO.N,*%
X197399042Y-116335769D03*
%TD*%
D14*
%TO.P,,*%
%TO.N,Net-(D05-Pad2)*%
X241040478Y-80435769D03*
%TD*%
D24*
%TO.P,REF\u002A\u002A,*%
%TO.N,*%
X256999042Y-104300000D03*
%TD*%
D14*
%TO.P,,*%
%TO.N,ROW1*%
X201690478Y-73500000D03*
%TD*%
%TO.P,,*%
%TO.N,ROW1*%
X206990478Y-68535769D03*
%TD*%
D21*
%TO.P,SW07,*%
%TO.N,*%
X221011817Y-70203948D03*
D22*
X215511817Y-70203948D03*
D21*
X210011817Y-70203948D03*
D23*
%TO.P,SW07,1*%
%TO.N,Net-(D07-Pad2)*%
X215511817Y-76103948D03*
%TO.P,SW07,2*%
%TO.N,COL2*%
X220511817Y-74003948D03*
X210511817Y-74003948D03*
%TD*%
D26*
%TO.P,J1,S1,SHIELD*%
%TO.N,GND*%
X157684190Y-57764234D03*
D27*
X161684190Y-57764234D03*
D26*
X157684190Y-46524234D03*
D27*
X161684190Y-46524234D03*
%TD*%
D21*
%TO.P,SW03,*%
%TO.N,*%
X221011818Y-53203948D03*
D22*
X215511818Y-53203948D03*
D21*
X210011818Y-53203948D03*
D23*
%TO.P,SW03,1*%
%TO.N,Net-(D03-Pad2)*%
X215511818Y-59103948D03*
%TO.P,SW03,2*%
%TO.N,COL2*%
X220511818Y-57003948D03*
X210511818Y-57003948D03*
%TD*%
D21*
%TO.P,SW06,*%
%TO.N,*%
X238012112Y-74759163D03*
D22*
X232512112Y-74759163D03*
D21*
X227012112Y-74759163D03*
D23*
%TO.P,SW06,1*%
%TO.N,Net-(D06-Pad2)*%
X232512112Y-80659163D03*
%TO.P,SW06,2*%
%TO.N,COL1*%
X237512112Y-78559163D03*
X227512112Y-78559163D03*
%TD*%
D18*
%TO.P,REF\u002A\u002A,*%
%TO.N,*%
X207849042Y-83650000D03*
X207399042Y-84700000D03*
X207399042Y-82600000D03*
X206349042Y-85150000D03*
D19*
X206349042Y-83650000D03*
D18*
X206349042Y-82150000D03*
X205299042Y-84700000D03*
X205299042Y-82600000D03*
X204849042Y-83650000D03*
%TD*%
D21*
%TO.P,SW10,*%
%TO.N,*%
X238012111Y-91759164D03*
D22*
X232512111Y-91759164D03*
D21*
X227012111Y-91759164D03*
D23*
%TO.P,SW10,1*%
%TO.N,Net-(D10-Pad2)*%
X232512111Y-97659164D03*
%TO.P,SW10,2*%
%TO.N,COL1*%
X237512111Y-95559164D03*
X227512111Y-95559164D03*
%TD*%
D14*
%TO.P,,*%
%TO.N,ROW2*%
X240990478Y-92085769D03*
%TD*%
D24*
%TO.P,REF\u002A\u002A,*%
%TO.N,*%
X222999042Y-45700000D03*
%TD*%
D21*
%TO.P,SW09,*%
%TO.N,*%
X255012349Y-96740284D03*
D22*
X249512349Y-96740284D03*
D21*
X244012349Y-96740284D03*
D23*
%TO.P,SW09,1*%
%TO.N,Net-(D09-Pad2)*%
X249512349Y-102640284D03*
%TO.P,SW09,2*%
%TO.N,COL0*%
X254512349Y-100540284D03*
X244512349Y-100540284D03*
%TD*%
D18*
%TO.P,REF\u002A\u002A,*%
%TO.N,*%
X207749042Y-46950000D03*
X207299042Y-48000000D03*
X207299042Y-45900000D03*
X206249042Y-48450000D03*
D19*
X206249042Y-46950000D03*
D18*
X206249042Y-45450000D03*
X205199042Y-48000000D03*
X205199042Y-45900000D03*
X204749042Y-46950000D03*
%TD*%
D14*
%TO.P,,*%
%TO.N,Net-(D10-Pad2)*%
X224040478Y-92385769D03*
%TD*%
%TO.P,,*%
%TO.N,Net-(D02-Pad2)*%
X224040478Y-58635769D03*
%TD*%
%TO.P,,*%
%TO.N,Net-(D08-Pad2)*%
X201649042Y-80750000D03*
%TD*%
D21*
%TO.P,SW13,*%
%TO.N,*%
X195463467Y-108794157D03*
D22*
X189963467Y-108794157D03*
D21*
X184463467Y-108794157D03*
D23*
%TO.P,SW13,1*%
%TO.N,Net-(D13-Pad2)*%
X189963467Y-114694157D03*
%TO.P,SW13,2*%
%TO.N,COL2*%
X194963467Y-112594157D03*
X184963467Y-112594157D03*
%TD*%
D14*
%TO.P,,*%
%TO.N,ROW1*%
X241040478Y-74835769D03*
%TD*%
D24*
%TO.P,REF\u002A\u002A,*%
%TO.N,*%
X156899042Y-116250000D03*
%TD*%
D21*
%TO.P,SW12,*%
%TO.N,*%
X203999265Y-91787819D03*
D22*
X198499265Y-91787819D03*
D21*
X192999265Y-91787819D03*
D23*
%TO.P,SW12,1*%
%TO.N,Net-(D12-Pad2)*%
X198499265Y-97687819D03*
%TO.P,SW12,2*%
%TO.N,COL3*%
X203499265Y-95587819D03*
X193499265Y-95587819D03*
%TD*%
D21*
%TO.P,SW08,*%
%TO.N,*%
X203999265Y-74787819D03*
D22*
X198499265Y-74787819D03*
D21*
X192999265Y-74787819D03*
D23*
%TO.P,SW08,1*%
%TO.N,Net-(D08-Pad2)*%
X198499265Y-80687819D03*
%TO.P,SW08,2*%
%TO.N,COL3*%
X203499265Y-78587819D03*
X193499265Y-78587819D03*
%TD*%
D21*
%TO.P,SW11,*%
%TO.N,*%
X221011816Y-87203949D03*
D22*
X215511816Y-87203949D03*
D21*
X210011816Y-87203949D03*
D23*
%TO.P,SW11,1*%
%TO.N,Net-(D11-Pad2)*%
X215511816Y-93103949D03*
%TO.P,SW11,2*%
%TO.N,COL2*%
X220511816Y-91003949D03*
X210511816Y-91003949D03*
%TD*%
D14*
%TO.P,,*%
%TO.N,ROW0*%
X206999042Y-53150000D03*
%TD*%
%TO.P,,*%
%TO.N,Net-(D12-Pad2)*%
X195250000Y-97250000D03*
%TD*%
%TO.P,,*%
%TO.N,ROW3*%
X164910000Y-111060000D03*
%TD*%
%TO.P,,*%
%TO.N,Net-(D06-Pad2)*%
X224040478Y-74985769D03*
%TD*%
%TO.P,,*%
%TO.N,Net-(LED01-DIN)*%
X199440478Y-46535769D03*
%TD*%
D21*
%TO.P,SW02,*%
%TO.N,*%
X238012111Y-57759164D03*
D22*
X232512111Y-57759164D03*
D21*
X227012111Y-57759164D03*
D23*
%TO.P,SW02,1*%
%TO.N,Net-(D02-Pad2)*%
X232512111Y-63659164D03*
%TO.P,SW02,2*%
%TO.N,COL1*%
X237512111Y-61559164D03*
X227512111Y-61559164D03*
%TD*%
D18*
%TO.P,REF\u002A\u002A,*%
%TO.N,*%
X161649042Y-114250000D03*
X161199042Y-115300000D03*
X161199042Y-113200000D03*
X160149042Y-115750000D03*
D19*
X160149042Y-114250000D03*
D18*
X160149042Y-112750000D03*
X159099042Y-115300000D03*
X159099042Y-113200000D03*
X158649042Y-114250000D03*
%TD*%
D14*
%TO.P,,*%
%TO.N,Net-(D03-Pad2)*%
X207049042Y-59100000D03*
%TD*%
D18*
%TO.P,REF\u002A\u002A,*%
%TO.N,*%
X241849042Y-66600000D03*
X241399042Y-67650000D03*
X241399042Y-65550000D03*
X240349042Y-68100000D03*
D19*
X240349042Y-66600000D03*
D18*
X240349042Y-65100000D03*
X239299042Y-67650000D03*
X239299042Y-65550000D03*
X238849042Y-66600000D03*
%TD*%
D14*
%TO.P,,*%
%TO.N,ROW2*%
X224040478Y-86435769D03*
%TD*%
D18*
%TO.P,REF\u002A\u002A,*%
%TO.N,*%
X160899042Y-61750000D03*
X160449042Y-62800000D03*
X160449042Y-60700000D03*
X159399042Y-63250000D03*
D19*
X159399042Y-61750000D03*
D18*
X159399042Y-60250000D03*
X158349042Y-62800000D03*
X158349042Y-60700000D03*
X157899042Y-61750000D03*
%TD*%
D14*
%TO.P,,*%
%TO.N,ROW3*%
X181490478Y-106185769D03*
%TD*%
%TO.P,,*%
%TO.N,Net-(D07-Pad2)*%
X206990478Y-74435769D03*
%TD*%
D21*
%TO.P,SW04,*%
%TO.N,*%
X203999264Y-57787820D03*
D22*
X198499264Y-57787820D03*
D21*
X192999264Y-57787820D03*
D23*
%TO.P,SW04,1*%
%TO.N,Net-(D04-Pad2)*%
X198499264Y-63687820D03*
%TO.P,SW04,2*%
%TO.N,COL3*%
X203499264Y-61587820D03*
X193499264Y-61587820D03*
%TD*%
D24*
%TO.P,REF\u002A\u002A,*%
%TO.N,*%
X239999042Y-50200000D03*
%TD*%
D14*
%TO.P,,*%
%TO.N,ROW1*%
X223990478Y-69135769D03*
%TD*%
%TO.P,,*%
%TO.N,ROW0*%
X240990478Y-57935769D03*
%TD*%
%TO.P,,*%
%TO.N,Net-(D01-Pad2)*%
X240990478Y-63235769D03*
%TD*%
%TO.P,,*%
%TO.N,ROW2*%
X206999042Y-86600000D03*
%TD*%
%TO.P,,*%
%TO.N,ROW3*%
X176090478Y-107235769D03*
%TD*%
D24*
%TO.P,REF\u002A\u002A,*%
%TO.N,*%
X241999042Y-104200000D03*
%TD*%
%TO.P,REF\u002A\u002A,*%
%TO.N,*%
X156799042Y-45550000D03*
%TD*%
D15*
%TO.P,SW15,1*%
%TO.N,Net-(D15-Pad2)*%
X157899042Y-101750000D03*
X157899042Y-108250000D03*
%TO.P,SW15,2*%
%TO.N,COL4*%
X162399042Y-101750000D03*
X162399042Y-108250000D03*
%TD*%
D21*
%TO.P,SW01,*%
%TO.N,*%
X255012350Y-62740284D03*
D22*
X249512350Y-62740284D03*
D21*
X244012350Y-62740284D03*
D23*
%TO.P,SW01,1*%
%TO.N,Net-(D01-Pad2)*%
X249512350Y-68640284D03*
%TO.P,SW01,2*%
%TO.N,COL0*%
X254512350Y-66540284D03*
X244512350Y-66540284D03*
%TD*%
D18*
%TO.P,REF\u002A\u002A,*%
%TO.N,*%
X224849042Y-79050000D03*
X224399042Y-80100000D03*
X224399042Y-78000000D03*
X223349042Y-80550000D03*
D19*
X223349042Y-79050000D03*
D18*
X223349042Y-77550000D03*
X222299042Y-80100000D03*
X222299042Y-78000000D03*
X221849042Y-79050000D03*
%TD*%
%TO.P,REF\u002A\u002A,*%
%TO.N,*%
X160899042Y-61750000D03*
X160449042Y-62800000D03*
X160449042Y-60700000D03*
X159399042Y-63250000D03*
D19*
X159399042Y-61750000D03*
D18*
X159399042Y-60250000D03*
X158349042Y-62800000D03*
X158349042Y-60700000D03*
X157899042Y-61750000D03*
%TD*%
D28*
%TO.N,ROW1*%
X191190478Y-70785769D03*
X241040478Y-70400000D03*
%TO.N,ROW2*%
X193500000Y-89785769D03*
D29*
%TO.N,COL0*%
X167100000Y-98900000D03*
%TO.N,COL1*%
X168100000Y-98900000D03*
%TO.N,COL2*%
X196700000Y-98325500D03*
X180200000Y-98325500D03*
%TO.N,COL3*%
X181040478Y-100495291D03*
X181040478Y-97000000D03*
D28*
X192690478Y-88785769D03*
X198500000Y-61587820D03*
X198500000Y-78587819D03*
D29*
%TO.N,ROW3*%
X182440478Y-100535769D03*
X182440478Y-96200000D03*
D28*
%TO.N,GND*%
X168750000Y-82000000D03*
X194000000Y-105000000D03*
X164750000Y-82000000D03*
X235750000Y-54000000D03*
X246000000Y-76000000D03*
X205499042Y-93000000D03*
X163970000Y-72015000D03*
X202000000Y-53750000D03*
X246000000Y-58750000D03*
X183250000Y-102800000D03*
X253000000Y-76000000D03*
X195699042Y-70900000D03*
X193525000Y-53010000D03*
X229000000Y-88000000D03*
X212400000Y-70800000D03*
X212000000Y-66250000D03*
X218190478Y-72785769D03*
X246000000Y-94250000D03*
X218750000Y-49500000D03*
X229100000Y-92250000D03*
X253000000Y-58750000D03*
X169500000Y-105000000D03*
X219250000Y-66250000D03*
X158000000Y-82200000D03*
X218190478Y-77700000D03*
X163899042Y-72000000D03*
X236000000Y-88000000D03*
X229000000Y-71000000D03*
X200750000Y-49750000D03*
X235750000Y-63500000D03*
X195699042Y-80800000D03*
X221250000Y-83500000D03*
X196700000Y-62450000D03*
X176250000Y-105000000D03*
X162050000Y-84325000D03*
X202750000Y-71000000D03*
X186750000Y-105000000D03*
X164750000Y-86800000D03*
X229000000Y-54000000D03*
X235750000Y-71000000D03*
X195699042Y-77200000D03*
X229306906Y-75680062D03*
X252690478Y-81935769D03*
X212000000Y-83500000D03*
X197050000Y-100500000D03*
X212250000Y-50000000D03*
X163470000Y-47265000D03*
X218750000Y-83500000D03*
X240840478Y-81935769D03*
X212300000Y-87750000D03*
X195699042Y-64600000D03*
X235349042Y-81935769D03*
X218199042Y-61300000D03*
X229250000Y-58400000D03*
X252690478Y-93000000D03*
X212400000Y-54750000D03*
X163470000Y-60015000D03*
%TO.N,Net-(LED10-DOUT)*%
X214000000Y-85000000D03*
X221250000Y-85000000D03*
%TO.N,Net-(LED11-DOUT)*%
X195000000Y-88000000D03*
X208500000Y-80750000D03*
%TO.N,Net-(LED13-DOUT)*%
X169500000Y-106100000D03*
X193000000Y-103250000D03*
%TO.N,2V*%
X168250000Y-91000000D03*
%TO.N,5V*%
X228940478Y-67250000D03*
X229000000Y-86250000D03*
X229000000Y-52250000D03*
X212250000Y-47750000D03*
X246000000Y-74250000D03*
X169500000Y-103000000D03*
X246000000Y-90524500D03*
X196750000Y-67000000D03*
X195750000Y-84250000D03*
X196500000Y-50500000D03*
X186750000Y-103000000D03*
X226399042Y-64700000D03*
X212000000Y-64500000D03*
X212000000Y-81500000D03*
X229250000Y-69250000D03*
X246000000Y-57250000D03*
%TO.N,Net-(LED12-DOUT)*%
X201500000Y-86250000D03*
X188000000Y-106500000D03*
%TO.N,Net-(LED01-DOUT)*%
X242610000Y-56940000D03*
X238000000Y-55750000D03*
%TO.N,Net-(LED02-DOUT)*%
X219625000Y-51525000D03*
X226000000Y-52000000D03*
%TO.N,Net-(LED03-DOUT)*%
X195250000Y-54000000D03*
X218700000Y-47700000D03*
%TO.N,Net-(LED04-DOUT)*%
X202000000Y-47400000D03*
X255500000Y-77500000D03*
%TO.N,Net-(LED05-DOUT)*%
X242500000Y-73500000D03*
X238000000Y-73000000D03*
%TO.N,Net-(LED06-DOUT)*%
X223500000Y-67000000D03*
X217750000Y-68250000D03*
%TO.N,Net-(LED07-DOUT)*%
X197000000Y-71861269D03*
X205500000Y-66750000D03*
%TO.N,Net-(LED08-DOUT)*%
X246250000Y-93000000D03*
X191190478Y-72535769D03*
X192940478Y-70785769D03*
X201750000Y-69250000D03*
%TO.N,Net-(LED09-DOUT)*%
X231000000Y-89500000D03*
X244000000Y-89750000D03*
%TO.N,Net-(IC1-ADJ)*%
X158750000Y-89250000D03*
X164750000Y-89250000D03*
D29*
%TO.N,TX*%
X164445000Y-51040000D03*
X168070000Y-52870000D03*
X168070000Y-55185000D03*
%TO.N,RX*%
X165095000Y-51620000D03*
X165530000Y-53155000D03*
%TO.N,COL4*%
X163250000Y-98250000D03*
X167500000Y-96500000D03*
X174750000Y-71500000D03*
%TO.N,MISO*%
X177500000Y-73000000D03*
%TO.N,SCK*%
X184500000Y-72250000D03*
%TD*%
D30*
%TO.N,GND*%
X184420000Y-50080000D02*
X191845000Y-50080000D01*
X184000000Y-51250000D02*
X184000000Y-50500000D01*
X182950000Y-52300000D02*
X184000000Y-51250000D01*
X184000000Y-50500000D02*
X184420000Y-50080000D01*
X173550000Y-52300000D02*
X182950000Y-52300000D01*
X172500000Y-49250000D02*
X172500000Y-51250000D01*
X172500000Y-51250000D02*
X173550000Y-52300000D01*
X170820478Y-48825769D02*
X172075769Y-48825769D01*
X172075769Y-48825769D02*
X172500000Y-49250000D01*
D31*
%TO.N,ROW1*%
X203750000Y-72750000D02*
X202440478Y-72750000D01*
X208399042Y-69500000D02*
X207434811Y-68535769D01*
X206990478Y-69509522D02*
X203750000Y-72750000D01*
X193040478Y-72635769D02*
X191190478Y-70785769D01*
X236584811Y-66285769D02*
X225940478Y-66285769D01*
X202440478Y-72750000D02*
X201690478Y-73500000D01*
X223990478Y-68235769D02*
X223990478Y-69135769D01*
X201690478Y-73500000D02*
X200826247Y-72635769D01*
X223990478Y-69135769D02*
X223990478Y-69408564D01*
X221649042Y-71750000D02*
X217449521Y-71750000D01*
X211399042Y-72000000D02*
X209149042Y-72000000D01*
X223990478Y-69408564D02*
X221649042Y-71750000D01*
X225940478Y-66285769D02*
X223990478Y-68235769D01*
X206990478Y-68535769D02*
X206990478Y-69509522D01*
X217449521Y-71750000D02*
X216449521Y-72750000D01*
X200826247Y-72635769D02*
X193040478Y-72635769D01*
X212149042Y-72750000D02*
X211399042Y-72000000D01*
X207434811Y-68535769D02*
X206990478Y-68535769D01*
X240699042Y-70400000D02*
X236584811Y-66285769D01*
X209149042Y-72000000D02*
X208399042Y-71250000D01*
X216449521Y-72750000D02*
X212149042Y-72750000D01*
X241040478Y-70400000D02*
X240699042Y-70400000D01*
X208399042Y-71250000D02*
X208399042Y-69500000D01*
%TO.N,ROW2*%
X193685769Y-89600000D02*
X194600000Y-89600000D01*
X230149042Y-93250000D02*
X226389078Y-93250000D01*
X194600000Y-89600000D02*
X195250000Y-90250000D01*
X225399042Y-87794333D02*
X224040478Y-86435769D01*
X221147298Y-89328949D02*
X209227991Y-89328949D01*
X240990478Y-92085769D02*
X240151876Y-92085769D01*
X195837181Y-89662819D02*
X195250000Y-90250000D01*
X208399042Y-87300000D02*
X207699042Y-86600000D01*
X205499042Y-86600000D02*
X202436223Y-89662819D01*
X209227991Y-89328949D02*
X208399042Y-88500000D01*
X226389078Y-93250000D02*
X225399042Y-92259964D01*
X206999042Y-86600000D02*
X205499042Y-86600000D01*
X224040478Y-86435769D02*
X221147298Y-89328949D01*
X208399042Y-88500000D02*
X208399042Y-87300000D01*
X225399042Y-92259964D02*
X225399042Y-87794333D01*
X202436223Y-89662819D02*
X195837181Y-89662819D01*
X230899042Y-94000000D02*
X230149042Y-93250000D01*
X238237645Y-94000000D02*
X230899042Y-94000000D01*
X193500000Y-89785769D02*
X193685769Y-89600000D01*
X207699042Y-86600000D02*
X206999042Y-86600000D01*
X240151876Y-92085769D02*
X238237645Y-94000000D01*
%TO.N,COL0*%
X167100000Y-98900000D02*
X166036436Y-97836436D01*
X166490000Y-58995000D02*
X170890000Y-58995000D01*
X166036436Y-97836436D02*
X166036436Y-59448564D01*
X166036436Y-59448564D02*
X166490000Y-58995000D01*
%TO.N,COL1*%
X166536436Y-97336436D02*
X166536436Y-62948564D01*
X168100000Y-98900000D02*
X166536436Y-97336436D01*
X166536436Y-62948564D02*
X167950000Y-61535000D01*
X167950000Y-61535000D02*
X170890000Y-61535000D01*
%TO.N,COL2*%
X197095000Y-102295000D02*
X197095000Y-110462624D01*
X171725000Y-70225000D02*
X170600000Y-69100000D01*
X167900000Y-64800000D02*
X168625000Y-64075000D01*
X180200000Y-94878248D02*
X187600000Y-87478248D01*
X180200000Y-98325500D02*
X180200000Y-94878248D01*
X168625000Y-64075000D02*
X170890000Y-64075000D01*
X196700000Y-98325500D02*
X196150000Y-98875500D01*
X196150000Y-98875500D02*
X196150000Y-101350000D01*
X187125000Y-70225000D02*
X171725000Y-70225000D01*
X168500000Y-69100000D02*
X167900000Y-68500000D01*
X170600000Y-69100000D02*
X168500000Y-69100000D01*
X187600000Y-87478248D02*
X187600000Y-70700000D01*
X167900000Y-68500000D02*
X167900000Y-64800000D01*
X196150000Y-101350000D02*
X197095000Y-102295000D01*
X197095000Y-110462624D02*
X194963467Y-112594157D01*
X187600000Y-70700000D02*
X187125000Y-70225000D01*
%TO.N,COL3*%
X181040478Y-94959522D02*
X181040478Y-97000000D01*
X198500000Y-61587820D02*
X203499264Y-61587820D01*
X181040478Y-97000000D02*
X181040478Y-100495291D01*
X171975000Y-69725000D02*
X187525000Y-69725000D01*
X167963232Y-112602659D02*
X177963232Y-112602659D01*
X170820478Y-68570478D02*
X171975000Y-69725000D01*
X191440478Y-93529032D02*
X193499265Y-95587819D01*
X198500000Y-78587819D02*
X203499265Y-78587819D01*
X187525000Y-69725000D02*
X188200000Y-70400000D01*
X191440478Y-90035769D02*
X191440478Y-93529032D01*
X170820478Y-66605769D02*
X170820478Y-68570478D01*
X192690478Y-88785769D02*
X191440478Y-90035769D01*
X188200000Y-87800000D02*
X181040478Y-94959522D01*
X188200000Y-70400000D02*
X188200000Y-87800000D01*
X193499265Y-95587819D02*
X203499265Y-95587819D01*
%TO.N,Net-(D11-Pad2)*%
X208194427Y-93103949D02*
X206990478Y-91900000D01*
X215511816Y-93103949D02*
X208194427Y-93103949D01*
D32*
%TO.N,Net-(D12-Pad2)*%
X198499265Y-97687819D02*
X198061446Y-97250000D01*
X198061446Y-97250000D02*
X195250000Y-97250000D01*
D31*
%TO.N,ROW3*%
X180763273Y-107235769D02*
X181490478Y-106508564D01*
X182440478Y-100535769D02*
X182440478Y-96200000D01*
X181490478Y-106508564D02*
X181490478Y-106185769D01*
X176090478Y-107235769D02*
X180763273Y-107235769D01*
D32*
%TO.N,Net-(D01-Pad2)*%
X245607835Y-64735769D02*
X242490478Y-64735769D01*
X249512350Y-68640284D02*
X245607835Y-64735769D01*
X242490478Y-64735769D02*
X240990478Y-63235769D01*
%TO.N,Net-(D02-Pad2)*%
X229380478Y-59605769D02*
X225010478Y-59605769D01*
X225010478Y-59605769D02*
X224040478Y-58635769D01*
X232512111Y-62737402D02*
X229380478Y-59605769D01*
X232512111Y-63659164D02*
X232512111Y-62737402D01*
%TO.N,Net-(D05-Pad2)*%
X241854709Y-81250000D02*
X241040478Y-80435769D01*
X246414709Y-81250000D02*
X241854709Y-81250000D01*
X249512350Y-84347641D02*
X246414709Y-81250000D01*
X249512350Y-85640283D02*
X249512350Y-84347641D01*
%TO.N,Net-(D06-Pad2)*%
X228618718Y-76765769D02*
X225820478Y-76765769D01*
X225820478Y-76765769D02*
X224040478Y-74985769D01*
X232512112Y-80659163D02*
X228618718Y-76765769D01*
%TO.N,Net-(D07-Pad2)*%
X208658657Y-76103948D02*
X206990478Y-74435769D01*
X215511817Y-76103948D02*
X208658657Y-76103948D01*
%TO.N,Net-(D09-Pad2)*%
X249512349Y-102640284D02*
X249512349Y-101867640D01*
X241870478Y-98565769D02*
X241040478Y-97735769D01*
X246210478Y-98565769D02*
X241870478Y-98565769D01*
X249512349Y-101867640D02*
X246210478Y-98565769D01*
%TO.N,Net-(D10-Pad2)*%
X229334709Y-94000000D02*
X226050000Y-94000000D01*
X224435769Y-92385769D02*
X224040478Y-92385769D01*
X232512111Y-97659164D02*
X232512111Y-97177402D01*
X232512111Y-97177402D02*
X229334709Y-94000000D01*
X226050000Y-94000000D02*
X224435769Y-92385769D01*
D31*
%TO.N,Net-(D13-Pad2)*%
X189963467Y-114694157D02*
X184493199Y-114694157D01*
X184493199Y-114694157D02*
X181849042Y-112050000D01*
X181849042Y-112050000D02*
X181440478Y-112050000D01*
D30*
%TO.N,GND*%
X219250000Y-66250000D02*
X212000000Y-66250000D01*
X218190478Y-77700000D02*
X218190478Y-72785769D01*
X218750000Y-49500000D02*
X218750000Y-50990478D01*
X164175000Y-84325000D02*
X162050000Y-84325000D01*
X202000000Y-53750000D02*
X202000000Y-51000000D01*
X194799042Y-59800000D02*
X195699042Y-60700000D01*
X235299042Y-76450958D02*
X235299042Y-81885769D01*
X158000000Y-82200000D02*
X157100000Y-83100000D01*
X248750000Y-66000000D02*
X246000000Y-63250000D01*
X197050000Y-100500000D02*
X197050000Y-100180000D01*
X179449042Y-105000000D02*
X181649042Y-102800000D01*
X253000000Y-68000000D02*
X251000000Y-66000000D01*
X246000000Y-58750000D02*
X253000000Y-58750000D01*
X240840478Y-81935769D02*
X235349042Y-81935769D01*
X202750000Y-71000000D02*
X202650000Y-70900000D01*
X202000000Y-51000000D02*
X200750000Y-49750000D01*
X253000000Y-76000000D02*
X253000000Y-68000000D01*
X169160000Y-76340000D02*
X168750000Y-76750000D01*
X221250000Y-83500000D02*
X218750000Y-83500000D01*
X163970000Y-60515000D02*
X163470000Y-60015000D01*
X198150000Y-99080000D02*
X204019042Y-99080000D01*
X235750000Y-54000000D02*
X235750000Y-63500000D01*
X204019042Y-99080000D02*
X205499042Y-97600000D01*
X158210000Y-80780000D02*
X161270000Y-80780000D01*
X218750000Y-83500000D02*
X212000000Y-83500000D01*
X157100000Y-83500000D02*
X157100000Y-81890000D01*
X246000000Y-63250000D02*
X246000000Y-58750000D01*
X162050000Y-84325000D02*
X157925000Y-84325000D01*
X161699042Y-80350958D02*
X161699042Y-78900000D01*
X252690478Y-81935769D02*
X252690478Y-93000000D01*
X202650000Y-70900000D02*
X195699042Y-70900000D01*
X163970000Y-72015000D02*
X163970000Y-60515000D01*
X235750000Y-71000000D02*
X235750000Y-76000000D01*
X165030769Y-48825769D02*
X163470000Y-47265000D01*
X235750000Y-54000000D02*
X229000000Y-54000000D01*
X235299042Y-81885769D02*
X235349042Y-81935769D01*
X176250000Y-105000000D02*
X169500000Y-105000000D01*
X201250000Y-53000000D02*
X202000000Y-53750000D01*
X246000000Y-94250000D02*
X251750000Y-94250000D01*
X253000000Y-76000000D02*
X246000000Y-76000000D01*
X193535000Y-53000000D02*
X201250000Y-53000000D01*
X193525000Y-53010000D02*
X193525000Y-55525958D01*
X194799042Y-56800000D02*
X194799042Y-59800000D01*
X194000000Y-105000000D02*
X186750000Y-105000000D01*
X172400000Y-76340000D02*
X169160000Y-76340000D01*
X252690478Y-93309522D02*
X252690478Y-93000000D01*
X168750000Y-76750000D02*
X168750000Y-82000000D01*
X193525000Y-53010000D02*
X193535000Y-53000000D01*
X195699042Y-60700000D02*
X195699042Y-64600000D01*
X164750000Y-83750000D02*
X164175000Y-84325000D01*
X181649042Y-102800000D02*
X183250000Y-102800000D01*
X253000000Y-81626247D02*
X252690478Y-81935769D01*
X212750000Y-49500000D02*
X212250000Y-50000000D01*
X157100000Y-81890000D02*
X158210000Y-80780000D01*
X195699042Y-77200000D02*
X195699042Y-80800000D01*
X218750000Y-49500000D02*
X212750000Y-49500000D01*
X176250000Y-105000000D02*
X179449042Y-105000000D01*
X218750000Y-50990478D02*
X218199042Y-51541436D01*
X253000000Y-76000000D02*
X253000000Y-81626247D01*
X235750000Y-71000000D02*
X229000000Y-71000000D01*
X157925000Y-84325000D02*
X157100000Y-83500000D01*
X251000000Y-66000000D02*
X248750000Y-66000000D01*
X193525000Y-55525958D02*
X194799042Y-56800000D01*
X236000000Y-88000000D02*
X229000000Y-88000000D01*
X197050000Y-100180000D02*
X198150000Y-99080000D01*
X235750000Y-76000000D02*
X235299042Y-76450958D01*
X170880769Y-48825769D02*
X165030769Y-48825769D01*
X251750000Y-94250000D02*
X252690478Y-93309522D01*
X218199042Y-51541436D02*
X218199042Y-61300000D01*
X205499042Y-97600000D02*
X205499042Y-93000000D01*
X164750000Y-82000000D02*
X164750000Y-86800000D01*
X161270000Y-80780000D02*
X161699042Y-80350958D01*
D32*
%TO.N,Net-(LED10-DOUT)*%
X221250000Y-85000000D02*
X214000000Y-85000000D01*
D31*
%TO.N,Net-(LED11-DOUT)*%
X203749042Y-87250958D02*
X203749042Y-82550000D01*
X195000000Y-88000000D02*
X195000000Y-88500000D01*
X195662819Y-89162819D02*
X201837181Y-89162819D01*
X208400000Y-80850000D02*
X208500000Y-80750000D01*
X203749042Y-82550000D02*
X205449042Y-80850000D01*
X201837181Y-89162819D02*
X203749042Y-87250958D01*
X205449042Y-80850000D02*
X208400000Y-80850000D01*
X195000000Y-88500000D02*
X195662819Y-89162819D01*
%TO.N,Net-(LED13-DOUT)*%
X169500000Y-106100000D02*
X179849042Y-106100000D01*
X192250000Y-104000000D02*
X193000000Y-103250000D01*
X181949042Y-104000000D02*
X192250000Y-104000000D01*
X179849042Y-106100000D02*
X181949042Y-104000000D01*
D30*
%TO.N,2V*%
X168250000Y-84250000D02*
X169040000Y-83460000D01*
X168250000Y-91000000D02*
X168250000Y-84250000D01*
X169040000Y-83460000D02*
X172400000Y-83460000D01*
%TO.N,5V*%
X213000000Y-79610769D02*
X219459811Y-79610769D01*
X226399042Y-64700000D02*
X224499042Y-62800000D01*
X230250000Y-84285769D02*
X229964231Y-84285769D01*
X224134811Y-84285769D02*
X219459811Y-79610769D01*
X169500000Y-102250000D02*
X169500000Y-103000000D01*
X202417110Y-82900000D02*
X205706341Y-79610769D01*
X246000000Y-89095291D02*
X241190478Y-84285769D01*
X186250000Y-101500000D02*
X186750000Y-102000000D01*
X185999042Y-101500000D02*
X189750000Y-97749042D01*
X239299042Y-52999042D02*
X239299042Y-54450000D01*
X164500000Y-96200000D02*
X164500000Y-98165697D01*
X207913747Y-62800000D02*
X204963747Y-65750000D01*
X167834303Y-101500000D02*
X185999042Y-101500000D01*
X205706341Y-79610769D02*
X213000000Y-79610769D01*
X211000000Y-62800000D02*
X211050000Y-62800000D01*
X196500000Y-82900000D02*
X195750000Y-83650000D01*
X229250000Y-67559522D02*
X229250000Y-69250000D01*
X211000000Y-62800000D02*
X208013747Y-62800000D01*
X211999042Y-46300000D02*
X211999042Y-47499042D01*
X196500000Y-82900000D02*
X190900000Y-82900000D01*
X224499042Y-62800000D02*
X211000000Y-62800000D01*
X218900000Y-46300000D02*
X223500000Y-50900000D01*
X208013747Y-62800000D02*
X207913747Y-62800000D01*
X228940478Y-67250000D02*
X236250000Y-67250000D01*
X211999042Y-46300000D02*
X218900000Y-46300000D01*
X244750000Y-56000000D02*
X246000000Y-57250000D01*
X240849042Y-56000000D02*
X244750000Y-56000000D01*
X212000000Y-63750000D02*
X212000000Y-64500000D01*
X191440478Y-52894522D02*
X195985000Y-48350000D01*
X211999042Y-47499042D02*
X212250000Y-47750000D01*
X212639231Y-79610769D02*
X212000000Y-80250000D01*
X204963747Y-65750000D02*
X198000000Y-65750000D01*
X192726247Y-65750000D02*
X191440478Y-64464231D01*
X213000000Y-79610769D02*
X212639231Y-79610769D01*
X196500000Y-82900000D02*
X200299042Y-82900000D01*
X198000000Y-65750000D02*
X192726247Y-65750000D01*
X236250000Y-67250000D02*
X241300000Y-72300000D01*
X246000000Y-73000000D02*
X246000000Y-74250000D01*
X196500000Y-50500000D02*
X198650000Y-48350000D01*
X230250000Y-84285769D02*
X224134811Y-84285769D01*
X198000000Y-65750000D02*
X196750000Y-67000000D01*
X198650000Y-48350000D02*
X200099042Y-48350000D01*
X190000000Y-65904709D02*
X191440478Y-64464231D01*
X190900000Y-82900000D02*
X190000000Y-82000000D01*
X202049042Y-48350000D02*
X203799042Y-50100000D01*
X227650000Y-50900000D02*
X229000000Y-52250000D01*
X168750000Y-101500000D02*
X169500000Y-102250000D01*
X211050000Y-62800000D02*
X212000000Y-63750000D01*
X186750000Y-102000000D02*
X186750000Y-103000000D01*
X203799042Y-50100000D02*
X208199042Y-50100000D01*
X208199042Y-50100000D02*
X211999042Y-46300000D01*
X191440478Y-64464231D02*
X191440478Y-52894522D01*
X237200000Y-50900000D02*
X239299042Y-52999042D01*
X239299042Y-54450000D02*
X240849042Y-56000000D01*
X229964231Y-84285769D02*
X229000000Y-85250000D01*
X223500000Y-50900000D02*
X237200000Y-50900000D01*
X190000000Y-82000000D02*
X190000000Y-65904709D01*
X195750000Y-83650000D02*
X195750000Y-84250000D01*
X164500000Y-98165697D02*
X167834303Y-101500000D01*
X189750000Y-84050000D02*
X190900000Y-82900000D01*
X245300000Y-72300000D02*
X246000000Y-73000000D01*
X229000000Y-85250000D02*
X229000000Y-86250000D01*
X189750000Y-97749042D02*
X189750000Y-84050000D01*
X246000000Y-90524500D02*
X246000000Y-89095291D01*
X185999042Y-101500000D02*
X186250000Y-101500000D01*
X168500000Y-101500000D02*
X168750000Y-101500000D01*
X241300000Y-72300000D02*
X245300000Y-72300000D01*
X228940478Y-67250000D02*
X229250000Y-67559522D01*
X241190478Y-84285769D02*
X230250000Y-84285769D01*
X193500000Y-48800000D02*
X195549042Y-48800000D01*
X212000000Y-80250000D02*
X212000000Y-81500000D01*
X195985000Y-48350000D02*
X202049042Y-48350000D01*
X227625000Y-50900000D02*
X227650000Y-50900000D01*
X200299042Y-82900000D02*
X202417110Y-82900000D01*
D31*
%TO.N,Net-(D15-Pad2)*%
X157899042Y-101750000D02*
X157899042Y-108250000D01*
D32*
%TO.N,Net-(LED12-DOUT)*%
X194850000Y-106500000D02*
X188000000Y-106500000D01*
X191500000Y-86250000D02*
X190750000Y-87000000D01*
X195600000Y-100900958D02*
X195600000Y-105750000D01*
X201500000Y-86250000D02*
X191500000Y-86250000D01*
X190750000Y-96050958D02*
X195600000Y-100900958D01*
X195600000Y-105750000D02*
X194850000Y-106500000D01*
X190750000Y-87000000D02*
X190750000Y-96050958D01*
D31*
%TO.N,Net-(LED01-DOUT)*%
X239550000Y-56920000D02*
X238380000Y-55750000D01*
X238380000Y-55750000D02*
X238000000Y-55750000D01*
X242610000Y-56940000D02*
X242590000Y-56920000D01*
X242590000Y-56920000D02*
X239550000Y-56920000D01*
%TO.N,Net-(LED02-DOUT)*%
X225550000Y-51550000D02*
X226000000Y-52000000D01*
X219625000Y-51525000D02*
X219650000Y-51550000D01*
X219650000Y-51550000D02*
X225550000Y-51550000D01*
%TO.N,Net-(LED03-DOUT)*%
X212750000Y-48750000D02*
X210799042Y-48750000D01*
X213800000Y-47700000D02*
X212750000Y-48750000D01*
X218700000Y-47700000D02*
X213800000Y-47700000D01*
X207799042Y-51750000D02*
X205500000Y-51750000D01*
X210799042Y-48750000D02*
X207799042Y-51750000D01*
X205500000Y-51750000D02*
X202725000Y-54525000D01*
X202725000Y-54525000D02*
X195775000Y-54525000D01*
X195775000Y-54525000D02*
X195250000Y-54000000D01*
%TO.N,Net-(LED04-DOUT)*%
X219325000Y-45725000D02*
X223925000Y-50325000D01*
X202150000Y-47550000D02*
X202199042Y-47550000D01*
X240959859Y-55297645D02*
X255202355Y-55297645D01*
X239874042Y-52760870D02*
X239874042Y-54211828D01*
X207824042Y-49525000D02*
X211624042Y-45725000D01*
X237438172Y-50325000D02*
X239874042Y-52760870D01*
X202000000Y-47400000D02*
X202150000Y-47550000D01*
X256940478Y-57035769D02*
X256940478Y-76059522D01*
X223925000Y-50325000D02*
X237438172Y-50325000D01*
X204174042Y-49525000D02*
X207824042Y-49525000D01*
X202199042Y-47550000D02*
X204174042Y-49525000D01*
X255202355Y-55297645D02*
X256940478Y-57035769D01*
X211624042Y-45725000D02*
X219325000Y-45725000D01*
X239874042Y-54211828D02*
X240959859Y-55297645D01*
X256940478Y-76059522D02*
X255500000Y-77500000D01*
%TO.N,Net-(LED05-DOUT)*%
X242000000Y-73000000D02*
X242500000Y-73500000D01*
X238000000Y-73000000D02*
X242000000Y-73000000D01*
%TO.N,Net-(LED06-DOUT)*%
X222250000Y-68250000D02*
X217750000Y-68250000D01*
X223500000Y-67000000D02*
X222250000Y-68250000D01*
D32*
%TO.N,Net-(LED07-DOUT)*%
X203500000Y-72000000D02*
X205500000Y-70000000D01*
X205500000Y-70000000D02*
X205500000Y-66750000D01*
X197138731Y-72000000D02*
X203500000Y-72000000D01*
X197000000Y-71861269D02*
X197138731Y-72000000D01*
D31*
%TO.N,Net-(LED08-DOUT)*%
X247000000Y-91500000D02*
X247000000Y-89063705D01*
X191190478Y-80791436D02*
X191190478Y-72535769D01*
X219697983Y-79035769D02*
X205468169Y-79035769D01*
X246250000Y-92250000D02*
X247000000Y-91500000D01*
X247000000Y-89063705D02*
X241472064Y-83535769D01*
X192940478Y-70785769D02*
X194476247Y-69250000D01*
X241472064Y-83535769D02*
X224197983Y-83535769D01*
X194476247Y-69250000D02*
X201750000Y-69250000D01*
X192599042Y-82200000D02*
X191190478Y-80791436D01*
X224197983Y-83535769D02*
X219697983Y-79035769D01*
X246250000Y-93000000D02*
X246250000Y-92250000D01*
X205468169Y-79035769D02*
X202303938Y-82200000D01*
X202303938Y-82200000D02*
X192599042Y-82200000D01*
%TO.N,Net-(LED09-DOUT)*%
X231000000Y-89500000D02*
X238250000Y-89500000D01*
X239750000Y-91000000D02*
X242750000Y-91000000D01*
X238250000Y-89500000D02*
X239750000Y-91000000D01*
X242750000Y-91000000D02*
X244000000Y-89750000D01*
D30*
%TO.N,Net-(IC1-ADJ)*%
X158750000Y-89250000D02*
X164750000Y-89250000D01*
D32*
%TO.N,TX*%
X165910000Y-56455000D02*
X170890000Y-56455000D01*
X164969042Y-77030000D02*
X165561436Y-76437606D01*
X164969042Y-75799042D02*
X164320000Y-75150000D01*
X157099042Y-75629042D02*
X157099042Y-77200000D01*
X168395000Y-56455000D02*
X168070000Y-56130000D01*
X167395000Y-52195000D02*
X167395000Y-51195000D01*
X164995000Y-50490000D02*
X164445000Y-51040000D01*
X164320000Y-75150000D02*
X157578084Y-75150000D01*
X165561436Y-56803564D02*
X165910000Y-56455000D01*
X168070000Y-56130000D02*
X168070000Y-55185000D01*
X167395000Y-51195000D02*
X166690000Y-50490000D01*
X166690000Y-50490000D02*
X164995000Y-50490000D01*
X168070000Y-52870000D02*
X167395000Y-52195000D01*
X165561436Y-76437606D02*
X165561436Y-56803564D01*
X157578084Y-75150000D02*
X157099042Y-75629042D01*
X164969042Y-77030000D02*
X164969042Y-75799042D01*
%TO.N,RX*%
X166795000Y-53915000D02*
X166035000Y-53155000D01*
X165530000Y-52055000D02*
X165095000Y-51620000D01*
X165111436Y-53573564D02*
X165111436Y-72873564D01*
X165530000Y-53155000D02*
X165111436Y-53573564D01*
X164520000Y-73465000D02*
X161770000Y-73465000D01*
X170890000Y-53915000D02*
X166795000Y-53915000D01*
X165530000Y-53155000D02*
X165530000Y-52055000D01*
X165111436Y-72873564D02*
X164520000Y-73465000D01*
D31*
X161699042Y-73450000D02*
X157099042Y-73450000D01*
D32*
X166035000Y-53155000D02*
X165530000Y-53155000D01*
%TO.N,COL4*%
X167500000Y-75250000D02*
X167500000Y-96500000D01*
X171750000Y-73250000D02*
X170000000Y-75000000D01*
X167750000Y-75000000D02*
X167500000Y-75250000D01*
X172500000Y-71500000D02*
X171750000Y-72250000D01*
X162399042Y-99100958D02*
X162399042Y-101750000D01*
X163250000Y-98250000D02*
X162399042Y-99100958D01*
X171750000Y-72250000D02*
X171750000Y-73250000D01*
X170000000Y-75000000D02*
X167750000Y-75000000D01*
X174750000Y-71500000D02*
X172500000Y-71500000D01*
D31*
X162399042Y-101750000D02*
X162399042Y-108250000D01*
%TO.N,MISO*%
X183100000Y-80790000D02*
X184460000Y-80790000D01*
X185000000Y-71500000D02*
X178000000Y-71500000D01*
X177500000Y-72000000D02*
X177500000Y-73000000D01*
X184460000Y-80790000D02*
X185250000Y-80000000D01*
X178000000Y-71500000D02*
X177500000Y-72000000D01*
X185250000Y-80000000D02*
X185250000Y-71750000D01*
X185250000Y-71750000D02*
X185000000Y-71500000D01*
%TO.N,SCK*%
X184500000Y-72250000D02*
X184500000Y-76750000D01*
X184500000Y-76750000D02*
X184020000Y-77230000D01*
X184020000Y-77230000D02*
X183100000Y-77230000D01*
%TD*%
M02*
