%TF.GenerationSoftware,KiCad,Pcbnew,7.0.2*%
%TF.CreationDate,2024-03-22T10:09:10-05:00*%
%TF.ProjectId,02_capsule5_right,30325f63-6170-4737-956c-65355f726967,v1.0.0*%
%TF.SameCoordinates,Original*%
%TF.FileFunction,Profile,NP*%
%FSLAX46Y46*%
G04 Gerber Fmt 4.6, Leading zero omitted, Abs format (unit mm)*
G04 Created by KiCad (PCBNEW 7.0.2) date 2024-03-22 10:09:10*
%MOMM*%
%LPD*%
G01*
G04 APERTURE LIST*
%TA.AperFunction,Profile*%
%ADD10C,0.150000*%
%TD*%
%TA.AperFunction,Profile*%
%ADD11C,0.100000*%
%TD*%
%TA.AperFunction,Profile*%
%ADD12C,0.120000*%
%TD*%
G04 APERTURE END LIST*
D10*
X224020674Y-45712581D02*
G75*
G03*
X223016668Y-44708426I-1004274J-119D01*
G01*
X173700000Y-44700000D02*
X173700000Y-51475000D01*
X241002718Y-101260537D02*
G75*
G03*
X239998847Y-100256382I-1004218J-63D01*
G01*
X241002380Y-104236864D02*
G75*
G03*
X242006343Y-105241020I1004220J64D01*
G01*
X258023203Y-55252711D02*
X258017143Y-104238837D01*
X182825000Y-44700000D02*
X182825000Y-51475000D01*
X199463202Y-100291247D02*
G75*
G03*
X198459047Y-101295199I-102J-1004053D01*
G01*
X162280968Y-48125164D02*
G75*
G03*
X162280968Y-47525236I32J299964D01*
G01*
X208003312Y-95697257D02*
G75*
G03*
X206999157Y-96701229I88J-1004243D01*
G01*
X198459047Y-101295199D02*
X198457846Y-116291669D01*
X205996892Y-100287184D02*
X199463202Y-100291280D01*
X156869042Y-44700000D02*
X173700000Y-44700000D01*
X241014407Y-50265578D02*
X241012047Y-53247288D01*
X155834875Y-116302870D02*
G75*
G03*
X156838785Y-117307025I1004125J-30D01*
G01*
X224019707Y-48269237D02*
G75*
G03*
X225023550Y-49273393I1004193J37D01*
G01*
X156869042Y-44699987D02*
G75*
G03*
X155864887Y-45703919I158J-1004313D01*
G01*
X162280968Y-56765164D02*
G75*
G03*
X162280968Y-56165236I32J299964D01*
G01*
X241012056Y-53247288D02*
G75*
G03*
X242015967Y-54251444I1004144J-12D01*
G01*
X239998847Y-100256382D02*
X225015383Y-100253863D01*
X241002766Y-101260537D02*
X241002424Y-104236864D01*
X155849042Y-56765000D02*
X155834866Y-116302870D01*
X197453691Y-117295588D02*
X156838785Y-117307025D01*
X197453691Y-117295546D02*
G75*
G03*
X198457846Y-116291669I-91J1004246D01*
G01*
X241014477Y-50265578D02*
G75*
G03*
X240010488Y-49261423I-1004177J-22D01*
G01*
X240010488Y-49261423D02*
X225023550Y-49273393D01*
X224013425Y-96703080D02*
X224011464Y-99249708D01*
X223016668Y-44708426D02*
X182825000Y-44700000D01*
X224014304Y-96698251D02*
G75*
G03*
X223010392Y-95694096I-1004304J-149D01*
G01*
X257012988Y-105242756D02*
X242006343Y-105241020D01*
X258023145Y-55252711D02*
G75*
G03*
X257019284Y-54248555I-1004245J-89D01*
G01*
X155880968Y-56765236D02*
X155849042Y-56765000D01*
X162280968Y-56165236D02*
X162280968Y-48125236D01*
X155880968Y-56765236D02*
X162280968Y-56765236D01*
X182825000Y-51475000D02*
X173700000Y-51475000D01*
X155865123Y-45704155D02*
X155880968Y-47525236D01*
D11*
X172000000Y-58000000D02*
X184950000Y-58000000D01*
X184950000Y-62850000D01*
X172000000Y-62850000D01*
X172000000Y-58000000D01*
D10*
X257012988Y-105242743D02*
G75*
G03*
X258017143Y-104238837I12J1004143D01*
G01*
X162280968Y-47525236D02*
X155880968Y-47525236D01*
X223010392Y-95694096D02*
X208003312Y-95697309D01*
X205996892Y-100287147D02*
G75*
G03*
X207001047Y-99283265I-92J1004247D01*
G01*
X224020587Y-45712581D02*
X224019631Y-48269237D01*
X242015967Y-54251444D02*
X257019284Y-54248555D01*
X224011537Y-99249708D02*
G75*
G03*
X225015383Y-100253863I1004263J108D01*
G01*
X206999157Y-96701229D02*
X207001047Y-99283265D01*
D11*
%TO.C,U3*%
X173512613Y-90565729D02*
X173512613Y-74815729D01*
X174012613Y-74315729D02*
X181512613Y-74315729D01*
X174012613Y-91065729D02*
X181512613Y-91065729D01*
X182012613Y-74815729D02*
X182012613Y-90565729D01*
X174012613Y-74315729D02*
G75*
G03*
X173512613Y-74815729I1J-500001D01*
G01*
X173512613Y-90565729D02*
G75*
G03*
X174012613Y-91065729I499988J-12D01*
G01*
X182012606Y-74815729D02*
G75*
G03*
X181512613Y-74315729I-500029J-29D01*
G01*
X181512613Y-91065734D02*
G75*
G03*
X182012613Y-90565729I-6J500006D01*
G01*
D12*
%TO.C,J1*%
X155584190Y-56764234D02*
X162284190Y-56764234D01*
X155584190Y-56764234D02*
X155584190Y-47524234D01*
X162284190Y-56164234D02*
X162284190Y-48124234D01*
X162284190Y-47524234D02*
X155584190Y-47524234D01*
X162284190Y-56764234D02*
G75*
G03*
X162284190Y-56164234I0J300000D01*
G01*
X162284190Y-48124234D02*
G75*
G03*
X162284190Y-47524234I0J300000D01*
G01*
%TD*%
M02*
