M48
; DRILL file {KiCad 7.0.2} date Mon Mar  4 12:18:36 2024
; FORMAT={-:-/ absolute / metric / decimal}
; #@! TF.CreationDate,2024-03-04T12:18:36-06:00
; #@! TF.GenerationSoftware,Kicad,Pcbnew,7.0.2
; #@! TF.FileFunction,NonPlated,1,2,NPTH
FMAT,2
METRIC
; #@! TA.AperFunction,NonPlated,NPTH,ComponentDrill
T1C0.800
; #@! TA.AperFunction,NonPlated,NPTH,ComponentDrill
T2C1.650
; #@! TA.AperFunction,NonPlated,NPTH,ComponentDrill
T3C3.250
%
G90
G05
T1
X261.0Y-68.85
X261.0Y-75.85
T2
X165.387Y-62.74
X165.387Y-79.74
X165.387Y-96.74
X176.387Y-62.74
X176.387Y-79.74
X176.387Y-96.74
X182.387Y-74.759
X182.387Y-57.759
X182.387Y-91.759
X193.387Y-74.759
X193.387Y-57.759
X193.387Y-91.759
X199.387Y-53.204
X199.387Y-70.204
X199.387Y-87.204
X210.387Y-53.204
X210.387Y-70.204
X210.387Y-87.204
X216.4Y-74.788
X216.4Y-91.788
X216.4Y-57.788
X224.936Y-108.794
X227.4Y-74.788
X227.4Y-91.788
X227.4Y-57.788
X235.936Y-108.794
X241.936Y-108.803
X252.936Y-108.803
T3
X170.887Y-62.74
X170.887Y-79.74
X170.887Y-96.74
X187.887Y-74.759
X187.887Y-57.759
X187.887Y-91.759
X204.887Y-53.204
X204.887Y-70.204
X204.887Y-87.204
X221.9Y-74.788
X221.9Y-91.788
X221.9Y-57.788
X230.436Y-108.794
X247.436Y-108.803
T0
M30
