%TF.GenerationSoftware,KiCad,Pcbnew,7.0.2*%
%TF.CreationDate,2024-03-04T12:18:32-06:00*%
%TF.ProjectId,01_capsule5_left,30315f63-6170-4737-956c-65355f6c6566,v1.0.0*%
%TF.SameCoordinates,Original*%
%TF.FileFunction,Legend,Top*%
%TF.FilePolarity,Positive*%
%FSLAX46Y46*%
G04 Gerber Fmt 4.6, Leading zero omitted, Abs format (unit mm)*
G04 Created by KiCad (PCBNEW 7.0.2) date 2024-03-04 12:18:32*
%MOMM*%
%LPD*%
G01*
G04 APERTURE LIST*
%ADD10C,0.100000*%
%ADD11C,0.150000*%
%ADD12C,0.400000*%
%ADD13C,0.120000*%
G04 APERTURE END LIST*
D10*
%TO.C,U3*%
X235481904Y-89287619D02*
X234910476Y-89287619D01*
X235196190Y-89287619D02*
X235196190Y-88287619D01*
X235196190Y-88287619D02*
X235100952Y-88430476D01*
X235100952Y-88430476D02*
X235005714Y-88525714D01*
X235005714Y-88525714D02*
X234910476Y-88573333D01*
X241281428Y-73483809D02*
X240948095Y-73483809D01*
X240948095Y-74007619D02*
X240948095Y-73007619D01*
X240948095Y-73007619D02*
X241424285Y-73007619D01*
X241805238Y-74007619D02*
X241805238Y-73340952D01*
X241805238Y-73531428D02*
X241852857Y-73436190D01*
X241852857Y-73436190D02*
X241900476Y-73388571D01*
X241900476Y-73388571D02*
X241995714Y-73340952D01*
X241995714Y-73340952D02*
X242090952Y-73340952D01*
X242567143Y-74007619D02*
X242471905Y-73960000D01*
X242471905Y-73960000D02*
X242424286Y-73912380D01*
X242424286Y-73912380D02*
X242376667Y-73817142D01*
X242376667Y-73817142D02*
X242376667Y-73531428D01*
X242376667Y-73531428D02*
X242424286Y-73436190D01*
X242424286Y-73436190D02*
X242471905Y-73388571D01*
X242471905Y-73388571D02*
X242567143Y-73340952D01*
X242567143Y-73340952D02*
X242710000Y-73340952D01*
X242710000Y-73340952D02*
X242805238Y-73388571D01*
X242805238Y-73388571D02*
X242852857Y-73436190D01*
X242852857Y-73436190D02*
X242900476Y-73531428D01*
X242900476Y-73531428D02*
X242900476Y-73817142D01*
X242900476Y-73817142D02*
X242852857Y-73912380D01*
X242852857Y-73912380D02*
X242805238Y-73960000D01*
X242805238Y-73960000D02*
X242710000Y-74007619D01*
X242710000Y-74007619D02*
X242567143Y-74007619D01*
X243329048Y-73340952D02*
X243329048Y-74007619D01*
X243329048Y-73436190D02*
X243376667Y-73388571D01*
X243376667Y-73388571D02*
X243471905Y-73340952D01*
X243471905Y-73340952D02*
X243614762Y-73340952D01*
X243614762Y-73340952D02*
X243710000Y-73388571D01*
X243710000Y-73388571D02*
X243757619Y-73483809D01*
X243757619Y-73483809D02*
X243757619Y-74007619D01*
X244090953Y-73340952D02*
X244471905Y-73340952D01*
X244233810Y-73007619D02*
X244233810Y-73864761D01*
X244233810Y-73864761D02*
X244281429Y-73960000D01*
X244281429Y-73960000D02*
X244376667Y-74007619D01*
X244376667Y-74007619D02*
X244471905Y-74007619D01*
D11*
%TO.C,*%
%TO.C,U3*%
X235620000Y-72220000D02*
G75*
G03*
X235620000Y-72220000I-1900000J0D01*
G01*
D12*
X236265193Y-88804272D02*
G75*
G03*
X236265193Y-88804272I-200000J0D01*
G01*
D11*
X253610000Y-93210000D02*
G75*
G03*
X253610000Y-93210000I-1900000J0D01*
G01*
%TO.C,REF\u002A\u002A*%
X262900000Y-61750000D02*
G75*
G03*
X262900000Y-61750000I-1900000J0D01*
G01*
X181100000Y-88600000D02*
G75*
G03*
X181100000Y-88600000I-1900000J0D01*
G01*
X240800000Y-115300000D02*
G75*
G03*
X240800000Y-115300000I-1900000J0D01*
G01*
X262150000Y-114250000D02*
G75*
G03*
X262150000Y-114250000I-1900000J0D01*
G01*
X215950000Y-83650000D02*
G75*
G03*
X215950000Y-83650000I-1900000J0D01*
G01*
D13*
%TO.C,SW15*%
X261000000Y-101500000D02*
X259500000Y-101500000D01*
X257000000Y-102750000D02*
X257000000Y-107250000D01*
X262900000Y-103050000D02*
X262900000Y-107050000D01*
X263500000Y-107250000D02*
X263500000Y-102750000D01*
X259500000Y-108500000D02*
X261000000Y-108500000D01*
D11*
%TO.C,REF\u002A\u002A*%
X216050000Y-46950000D02*
G75*
G03*
X216050000Y-46950000I-1900000J0D01*
G01*
X181950000Y-66600000D02*
G75*
G03*
X181950000Y-66600000I-1900000J0D01*
G01*
X198950000Y-79050000D02*
G75*
G03*
X198950000Y-79050000I-1900000J0D01*
G01*
%TD*%
M02*
