M48
; DRILL file {KiCad 7.0.2} date Mon Mar  4 12:18:36 2024
; FORMAT={-:-/ absolute / metric / decimal}
; #@! TF.CreationDate,2024-03-04T12:18:36-06:00
; #@! TF.GenerationSoftware,Kicad,Pcbnew,7.0.2
; #@! TF.FileFunction,Plated,1,2,PTH
FMAT,2
METRIC
; #@! TA.AperFunction,Plated,PTH,ViaDrill
T1C0.300
; #@! TA.AperFunction,Plated,PTH,ViaDrill
T2C0.400
; #@! TA.AperFunction,Plated,PTH,ComponentDrill
T3C0.400
; #@! TA.AperFunction,Plated,PTH,ComponentDrill
T4C0.600
; #@! TA.AperFunction,Plated,PTH,ComponentDrill
T5C0.700
; #@! TA.AperFunction,Plated,PTH,ComponentDrill
T6C0.900
; #@! TA.AperFunction,Plated,PTH,ComponentDrill
T7C1.000
; #@! TA.AperFunction,Plated,PTH,ComponentDrill
T8C1.100
; #@! TA.AperFunction,Plated,PTH,ComponentDrill
T9C2.000
; #@! TA.AperFunction,Plated,PTH,ComponentDrill
T10C2.200
%
G90
G05
T1
X254.749Y-50.475
X255.375Y-51.6
X255.375Y-53.1
T2
X165.75Y-77.75
X167.3Y-87.9
X167.3Y-92.9
X167.6Y-75.9
X167.7Y-58.9
X167.709Y-81.936
X174.65Y-71.15
X179.359Y-70.4
X179.559Y-81.936
X182.8Y-55.851
X182.8Y-72.7
X183.07Y-89.46
X184.2Y-70.8
X184.8Y-53.9
X185.05Y-81.936
X185.1Y-63.8
X185.1Y-72.3
X191.459Y-67.25
X192.8Y-87.94
X194.0Y-64.7
X194.0Y-67.3
X196.2Y-66.4
X199.6Y-68.3
X199.75Y-84.65
X200.1Y-51.15
X201.5Y-66.4
X201.5Y-84.65
X201.7Y-67.8
X201.851Y-49.399
X202.2Y-61.3
X202.209Y-72.786
X202.209Y-77.7
X209.2Y-83.65
X214.9Y-92.75
X219.2Y-47.5
X221.3Y-95.588
X223.175Y-100.5
X223.979Y-96.956
X224.7Y-64.6
X224.7Y-67.1
X224.7Y-70.9
X224.7Y-77.2
X224.7Y-80.8
X224.7Y-84.2
X225.3Y-52.2
X225.3Y-88.0
X225.709Y-89.786
X226.9Y-104.85
X226.925Y-70.325
X227.5Y-53.75
X227.709Y-88.786
X228.711Y-72.039
X228.75Y-70.25
X233.0Y-93.5
X233.0Y-97.0
X233.6Y-106.4
X234.75Y-88.75
X235.679Y-94.25
X235.679Y-100.52
X236.7Y-102.8
X237.959Y-94.813
X237.959Y-100.536
X239.359Y-95.686
X239.5Y-100.536
X242.5Y-71.25
X242.75Y-92.75
X243.0Y-97.0
X243.7Y-104.75
X246.75Y-71.25
X247.418Y-64.5
X250.5Y-69.25
X251.25Y-71.5
X251.35Y-106.3
X252.25Y-99.25
X255.75Y-86.75
X255.75Y-91.5
X256.5Y-72.0
X256.5Y-85.0
X257.0Y-47.25
X257.0Y-60.0
X259.5Y-85.0
X261.75Y-82.0
X262.5Y-90.25
T3
X177.7Y-88.6
X178.15Y-87.55
X178.15Y-89.65
X178.55Y-66.6
X179.0Y-65.55
X179.0Y-67.65
X179.2Y-87.1
X179.2Y-90.1
X180.05Y-65.1
X180.05Y-68.1
X180.25Y-87.55
X180.25Y-89.65
X180.7Y-88.6
X181.1Y-65.55
X181.1Y-67.65
X181.55Y-66.6
X195.55Y-79.05
X196.0Y-78.0
X196.0Y-80.1
X197.05Y-77.55
X197.05Y-80.55
X198.1Y-78.0
X198.1Y-80.1
X198.55Y-79.05
X212.55Y-83.65
X212.65Y-46.95
X213.0Y-82.6
X213.0Y-84.7
X213.1Y-45.9
X213.1Y-48.0
X214.05Y-82.15
X214.05Y-85.15
X214.15Y-45.45
X214.15Y-48.45
X215.1Y-82.6
X215.1Y-84.7
X215.2Y-45.9
X215.2Y-48.0
X215.55Y-83.65
X215.65Y-46.95
X232.22Y-72.22
X232.67Y-71.17
X232.67Y-73.27
X233.72Y-70.72
X233.72Y-73.72
X234.77Y-71.17
X234.77Y-73.27
X235.22Y-72.22
X237.4Y-115.3
X237.85Y-114.25
X237.85Y-116.35
X238.9Y-113.8
X238.9Y-116.8
X239.95Y-114.25
X239.95Y-116.35
X240.4Y-115.3
X250.21Y-93.21
X250.66Y-92.16
X250.66Y-94.26
X251.71Y-91.71
X251.71Y-94.71
X252.76Y-92.16
X252.76Y-94.26
X253.21Y-93.21
X258.75Y-114.25
X259.2Y-113.2
X259.2Y-115.3
X259.5Y-61.75
X259.95Y-60.7
X259.95Y-62.8
X260.25Y-112.75
X260.25Y-115.75
X261.0Y-60.25
X261.0Y-63.25
X261.3Y-113.2
X261.3Y-115.3
X261.75Y-114.25
X262.05Y-60.7
X262.05Y-62.8
X262.5Y-61.75
T4
X163.4Y-55.2
X163.4Y-104.3
X178.4Y-104.2
X180.4Y-50.2
X195.4Y-99.3
X197.4Y-45.7
X214.4Y-99.3
X223.0Y-116.336
X254.9Y-116.336
X263.5Y-116.25
X263.6Y-45.55
T5
X179.359Y-74.836
X179.359Y-80.436
X179.359Y-97.736
X179.409Y-57.936
X179.409Y-63.236
X179.409Y-92.086
X196.359Y-52.386
X196.359Y-58.636
X196.359Y-74.986
X196.359Y-86.436
X196.359Y-92.386
X196.409Y-69.136
X212.5Y-77.75
X213.35Y-59.1
X213.4Y-53.15
X213.4Y-86.6
X213.409Y-68.536
X213.409Y-74.436
X213.409Y-91.9
X218.709Y-55.586
X218.709Y-63.786
X218.709Y-72.636
X218.75Y-80.75
X218.759Y-89.686
X218.759Y-97.736
X220.959Y-46.536
X227.5Y-48.675
X227.759Y-46.436
X237.29Y-76.344
X237.29Y-78.124
X237.29Y-79.904
X237.29Y-81.684
X237.29Y-83.464
X237.29Y-85.244
X237.29Y-87.024
X237.29Y-88.804
X238.909Y-106.186
X238.959Y-112.05
X244.309Y-107.236
X244.309Y-114.716
X247.99Y-75.454
X247.99Y-77.234
X247.99Y-79.014
X247.99Y-80.794
X247.99Y-82.574
X247.99Y-84.354
X247.99Y-86.134
X247.99Y-87.914
X255.43Y-77.03
X256.5Y-78.75
T7
X234.34Y-46.28
X234.34Y-48.82
X234.34Y-51.36
X234.34Y-53.9
X234.34Y-56.44
X234.34Y-58.98
X234.34Y-61.52
X234.34Y-64.06
X234.34Y-66.6
X236.88Y-66.6
X239.42Y-66.6
X241.96Y-66.6
X244.5Y-66.6
X247.04Y-66.6
X249.58Y-46.28
X249.58Y-48.82
X249.58Y-51.36
X249.58Y-53.9
X249.58Y-56.44
X249.58Y-58.98
X249.58Y-61.52
X249.58Y-64.06
X249.58Y-66.6
T8
X258.0Y-101.75
X258.0Y-108.25
X262.5Y-101.75
X262.5Y-108.25
T9
X254.75Y-46.5
T10
X179.2Y-88.6
X180.05Y-66.6
X197.05Y-79.05
X214.05Y-83.65
X214.15Y-46.95
X233.72Y-72.22
X238.9Y-115.3
X251.71Y-93.21
X260.25Y-114.25
X261.0Y-61.75
T3
X165.587Y-66.54G85X166.187Y-66.54
G05
X165.587Y-83.54G85X166.187Y-83.54
G05
X165.587Y-100.54G85X166.187Y-100.54
G05
X170.587Y-68.64G85X171.187Y-68.64
G05
X170.587Y-85.64G85X171.187Y-85.64
G05
X170.587Y-102.64G85X171.187Y-102.64
G05
X175.587Y-66.54G85X176.187Y-66.54
G05
X175.587Y-83.54G85X176.187Y-83.54
G05
X175.587Y-100.54G85X176.187Y-100.54
G05
X182.587Y-78.559G85X183.187Y-78.559
G05
X182.587Y-61.559G85X183.187Y-61.559
G05
X182.587Y-95.559G85X183.187Y-95.559
G05
X187.587Y-80.659G85X188.187Y-80.659
G05
X187.587Y-63.659G85X188.187Y-63.659
G05
X187.587Y-97.659G85X188.187Y-97.659
G05
X192.587Y-78.559G85X193.187Y-78.559
G05
X192.587Y-61.559G85X193.187Y-61.559
G05
X192.587Y-95.559G85X193.187Y-95.559
G05
X199.587Y-57.004G85X200.187Y-57.004
G05
X199.587Y-74.004G85X200.187Y-74.004
G05
X199.587Y-91.004G85X200.187Y-91.004
G05
X204.587Y-59.104G85X205.187Y-59.104
G05
X204.587Y-76.104G85X205.187Y-76.104
G05
X204.587Y-93.104G85X205.187Y-93.104
G05
X209.587Y-57.004G85X210.187Y-57.004
G05
X209.587Y-74.004G85X210.187Y-74.004
G05
X209.587Y-91.004G85X210.187Y-91.004
G05
X216.6Y-78.588G85X217.2Y-78.588
G05
X216.6Y-95.588G85X217.2Y-95.588
G05
X216.6Y-61.588G85X217.2Y-61.588
G05
X221.6Y-80.688G85X222.2Y-80.688
G05
X221.6Y-97.688G85X222.2Y-97.688
G05
X221.6Y-63.688G85X222.2Y-63.688
G05
X225.136Y-112.594G85X225.736Y-112.594
G05
X226.6Y-78.588G85X227.2Y-78.588
G05
X226.6Y-95.588G85X227.2Y-95.588
G05
X226.6Y-61.588G85X227.2Y-61.588
G05
X230.136Y-114.694G85X230.736Y-114.694
G05
X235.136Y-112.594G85X235.736Y-112.594
G05
X242.136Y-112.603G85X242.736Y-112.603
G05
X247.136Y-114.703G85X247.736Y-114.703
G05
X252.136Y-112.603G85X252.736Y-112.603
G05
T4
X259.15Y-46.525G85X258.35Y-46.525
G05
X259.15Y-57.765G85X258.35Y-57.765
G05
X263.35Y-46.525G85X262.15Y-46.525
G05
X263.35Y-57.765G85X262.15Y-57.765
G05
T6
X258.7Y-70.25G85X258.7Y-70.65
G05
X258.7Y-73.25G85X258.7Y-73.65
G05
X258.7Y-77.25G85X258.7Y-77.65
G05
X258.7Y-78.35G85X258.7Y-78.75
G05
X263.3Y-70.25G85X263.3Y-70.65
G05
X263.3Y-73.25G85X263.3Y-73.65
G05
X263.3Y-77.25G85X263.3Y-77.65
G05
X263.3Y-78.35G85X263.3Y-78.75
G05
T0
M30
