%TF.GenerationSoftware,KiCad,Pcbnew,7.0.2*%
%TF.CreationDate,2024-03-04T12:18:32-06:00*%
%TF.ProjectId,01_capsule5_left,30315f63-6170-4737-956c-65355f6c6566,v1.0.0*%
%TF.SameCoordinates,Original*%
%TF.FileFunction,Soldermask,Bot*%
%TF.FilePolarity,Negative*%
%FSLAX46Y46*%
G04 Gerber Fmt 4.6, Leading zero omitted, Abs format (unit mm)*
G04 Created by KiCad (PCBNEW 7.0.2) date 2024-03-04 12:18:32*
%MOMM*%
%LPD*%
G01*
G04 APERTURE LIST*
G04 Aperture macros list*
%AMRoundRect*
0 Rectangle with rounded corners*
0 $1 Rounding radius*
0 $2 $3 $4 $5 $6 $7 $8 $9 X,Y pos of 4 corners*
0 Add a 4 corners polygon primitive as box body*
4,1,4,$2,$3,$4,$5,$6,$7,$8,$9,$2,$3,0*
0 Add four circle primitives for the rounded corners*
1,1,$1+$1,$2,$3*
1,1,$1+$1,$4,$5*
1,1,$1+$1,$6,$7*
1,1,$1+$1,$8,$9*
0 Add four rect primitives between the rounded corners*
20,1,$1+$1,$2,$3,$4,$5,0*
20,1,$1+$1,$4,$5,$6,$7,0*
20,1,$1+$1,$6,$7,$8,$9,0*
20,1,$1+$1,$8,$9,$2,$3,0*%
G04 Aperture macros list end*
%ADD10C,0.200000*%
%ADD11C,0.400000*%
%ADD12C,3.600000*%
%ADD13R,1.200000X1.200000*%
%ADD14C,1.200000*%
%ADD15C,0.800000*%
%ADD16O,1.600000X2.000000*%
%ADD17RoundRect,0.112500X-0.187500X-0.112500X0.187500X-0.112500X0.187500X0.112500X-0.187500X0.112500X0*%
%ADD18C,1.900000*%
%ADD19C,3.500000*%
%ADD20O,2.200000X1.600000*%
%ADD21C,1.000000*%
%ADD22C,2.000000*%
%ADD23C,2.500000*%
%ADD24RoundRect,0.225000X0.250000X-0.225000X0.250000X0.225000X-0.250000X0.225000X-0.250000X-0.225000X0*%
%ADD25RoundRect,0.112500X-0.112500X0.187500X-0.112500X-0.187500X0.112500X-0.187500X0.112500X0.187500X0*%
%ADD26RoundRect,0.225000X0.225000X0.250000X-0.225000X0.250000X-0.225000X-0.250000X0.225000X-0.250000X0*%
%ADD27R,0.700000X1.300000*%
%ADD28RoundRect,0.219550X0.125450X0.275450X-0.125450X0.275450X-0.125450X-0.275450X0.125450X-0.275450X0*%
%ADD29RoundRect,0.219750X0.300250X0.225250X-0.300250X0.225250X-0.300250X-0.225250X0.300250X-0.225250X0*%
%ADD30RoundRect,0.220000X0.575000X0.425000X-0.575000X0.425000X-0.575000X-0.425000X0.575000X-0.425000X0*%
%ADD31RoundRect,0.232500X0.212500X0.512500X-0.212500X0.512500X-0.212500X-0.512500X0.212500X-0.512500X0*%
%ADD32RoundRect,0.020000X0.800000X0.425000X-0.800000X0.425000X-0.800000X-0.425000X0.800000X-0.425000X0*%
%ADD33RoundRect,0.225625X0.231875X0.269375X-0.231875X0.269375X-0.231875X-0.269375X0.231875X-0.269375X0*%
%ADD34R,0.650000X1.560000*%
%ADD35RoundRect,0.225000X-0.225000X-0.250000X0.225000X-0.250000X0.225000X0.250000X-0.225000X0.250000X0*%
%ADD36O,3.130000X1.500000*%
%ADD37O,1.500000X3.090000*%
%ADD38R,1.100000X0.600000*%
%ADD39R,1.100000X0.300000*%
%ADD40O,2.200000X1.000000*%
%ADD41O,1.800000X1.000000*%
%ADD42R,1.300000X0.700000*%
%ADD43RoundRect,0.225000X-0.250000X0.225000X-0.250000X-0.225000X0.250000X-0.225000X0.250000X0.225000X0*%
G04 APERTURE END LIST*
D10*
G36*
X261372854Y-104001290D02*
G01*
X261384157Y-103988987D01*
X261395717Y-103977477D01*
X261407535Y-103966761D01*
X261419611Y-103956838D01*
X261431944Y-103947710D01*
X261444535Y-103939375D01*
X261457384Y-103931834D01*
X261470490Y-103925087D01*
X261483853Y-103919133D01*
X261497475Y-103913974D01*
X261511354Y-103909608D01*
X261525490Y-103906036D01*
X261539884Y-103903258D01*
X261554536Y-103901273D01*
X261569445Y-103900082D01*
X261584612Y-103899685D01*
X261601073Y-103900064D01*
X261617177Y-103901201D01*
X261632924Y-103903094D01*
X261648314Y-103905746D01*
X261663347Y-103909155D01*
X261678024Y-103913321D01*
X261692343Y-103918245D01*
X261706306Y-103923927D01*
X261719912Y-103930366D01*
X261733161Y-103937562D01*
X261746054Y-103945516D01*
X261758589Y-103954228D01*
X261770768Y-103963697D01*
X261782590Y-103973924D01*
X261794055Y-103984908D01*
X261805163Y-103996650D01*
X261815722Y-104009120D01*
X261825600Y-104022288D01*
X261834796Y-104036154D01*
X261843311Y-104050719D01*
X261851145Y-104065982D01*
X261858298Y-104081944D01*
X261864769Y-104098604D01*
X261870560Y-104115963D01*
X261875669Y-104134019D01*
X261880096Y-104152774D01*
X261882055Y-104162414D01*
X261883843Y-104172228D01*
X261885461Y-104182217D01*
X261886909Y-104192380D01*
X261888186Y-104202718D01*
X261889293Y-104213230D01*
X261890229Y-104223917D01*
X261890996Y-104234779D01*
X261891592Y-104245815D01*
X261892018Y-104257026D01*
X261892273Y-104268412D01*
X261892358Y-104279972D01*
X261892271Y-104291281D01*
X261892008Y-104302433D01*
X261891570Y-104313429D01*
X261890958Y-104324267D01*
X261890170Y-104334949D01*
X261889207Y-104345474D01*
X261888069Y-104355841D01*
X261886756Y-104366052D01*
X261885268Y-104376106D01*
X261883605Y-104386003D01*
X261881766Y-104395742D01*
X261879753Y-104405325D01*
X261875201Y-104424020D01*
X261869949Y-104442088D01*
X261863996Y-104459527D01*
X261857344Y-104476339D01*
X261849991Y-104492523D01*
X261841937Y-104508079D01*
X261833184Y-104523008D01*
X261823730Y-104537308D01*
X261813576Y-104550981D01*
X261802721Y-104564026D01*
X261791375Y-104576330D01*
X261779747Y-104587840D01*
X261767836Y-104598556D01*
X261755643Y-104608478D01*
X261743168Y-104617607D01*
X261730410Y-104625942D01*
X261717370Y-104633483D01*
X261704047Y-104640230D01*
X261690442Y-104646183D01*
X261676554Y-104651343D01*
X261662384Y-104655709D01*
X261647932Y-104659281D01*
X261633197Y-104662059D01*
X261618180Y-104664043D01*
X261602881Y-104665234D01*
X261587299Y-104665631D01*
X261579579Y-104665514D01*
X261568012Y-104664898D01*
X261556463Y-104663753D01*
X261544931Y-104662081D01*
X261533417Y-104659881D01*
X261521919Y-104657152D01*
X261510439Y-104653896D01*
X261498976Y-104650111D01*
X261487529Y-104645799D01*
X261476101Y-104640958D01*
X261464689Y-104635589D01*
X261457150Y-104631677D01*
X261446077Y-104625338D01*
X261435288Y-104618431D01*
X261424782Y-104610958D01*
X261414560Y-104602918D01*
X261404621Y-104594311D01*
X261394965Y-104585138D01*
X261385593Y-104575398D01*
X261376504Y-104565091D01*
X261367698Y-104554217D01*
X261359176Y-104542777D01*
X261359176Y-104650000D01*
X261179902Y-104650000D01*
X261179902Y-104288032D01*
X261372365Y-104288032D01*
X261372411Y-104295362D01*
X261372777Y-104309679D01*
X261373510Y-104323536D01*
X261374609Y-104336933D01*
X261376075Y-104349871D01*
X261377906Y-104362348D01*
X261380105Y-104374365D01*
X261382669Y-104385923D01*
X261385600Y-104397021D01*
X261388897Y-104407659D01*
X261392561Y-104417837D01*
X261396591Y-104427555D01*
X261400987Y-104436813D01*
X261405750Y-104445612D01*
X261410879Y-104453950D01*
X261419260Y-104465596D01*
X261425168Y-104472783D01*
X261434321Y-104482694D01*
X261443821Y-104491562D01*
X261453670Y-104499387D01*
X261463866Y-104506168D01*
X261474409Y-104511906D01*
X261485301Y-104516601D01*
X261496540Y-104520252D01*
X261508127Y-104522861D01*
X261520062Y-104524426D01*
X261532344Y-104524947D01*
X261537559Y-104524870D01*
X261547769Y-104524252D01*
X261557688Y-104523015D01*
X261572018Y-104520001D01*
X261585692Y-104515596D01*
X261598709Y-104509800D01*
X261611068Y-104502613D01*
X261622771Y-104494035D01*
X261630208Y-104487544D01*
X261637353Y-104480434D01*
X261644207Y-104472706D01*
X261650768Y-104464360D01*
X261657037Y-104455395D01*
X261663014Y-104445812D01*
X261664998Y-104442327D01*
X261670570Y-104431078D01*
X261675576Y-104418639D01*
X261680016Y-104405012D01*
X261682660Y-104395266D01*
X261685053Y-104384991D01*
X261687194Y-104374188D01*
X261689083Y-104362857D01*
X261690720Y-104350997D01*
X261692106Y-104338608D01*
X261693239Y-104325691D01*
X261694121Y-104312245D01*
X261694750Y-104298271D01*
X261695128Y-104283768D01*
X261695254Y-104268736D01*
X261695073Y-104254731D01*
X261694529Y-104241168D01*
X261693623Y-104228047D01*
X261692354Y-104215369D01*
X261690722Y-104203134D01*
X261688728Y-104191342D01*
X261686372Y-104179992D01*
X261683653Y-104169085D01*
X261680571Y-104158621D01*
X261677127Y-104148599D01*
X261673320Y-104139021D01*
X261669151Y-104129884D01*
X261664619Y-104121191D01*
X261657141Y-104108981D01*
X261648848Y-104097766D01*
X261642960Y-104090816D01*
X261633804Y-104081231D01*
X261624256Y-104072655D01*
X261614318Y-104065088D01*
X261603988Y-104058530D01*
X261593269Y-104052981D01*
X261582158Y-104048441D01*
X261570657Y-104044910D01*
X261558765Y-104042387D01*
X261546483Y-104040874D01*
X261533810Y-104040369D01*
X261525056Y-104040596D01*
X261512301Y-104041789D01*
X261499997Y-104044002D01*
X261488144Y-104047238D01*
X261476742Y-104051496D01*
X261465790Y-104056775D01*
X261455289Y-104063076D01*
X261445239Y-104070399D01*
X261435640Y-104078744D01*
X261426492Y-104088111D01*
X261417794Y-104098499D01*
X261414999Y-104102189D01*
X261407147Y-104114123D01*
X261402356Y-104122799D01*
X261397919Y-104132052D01*
X261393838Y-104141881D01*
X261390111Y-104152286D01*
X261386739Y-104163267D01*
X261383722Y-104174825D01*
X261381061Y-104186959D01*
X261378754Y-104199669D01*
X261376802Y-104212956D01*
X261375204Y-104226818D01*
X261373962Y-104241257D01*
X261373075Y-104256272D01*
X261372543Y-104271864D01*
X261372365Y-104288032D01*
X261179902Y-104288032D01*
X261179902Y-103633949D01*
X261372854Y-103633949D01*
X261372854Y-104001290D01*
G37*
G36*
X260994277Y-103805896D02*
G01*
X260994277Y-103633949D01*
X260801081Y-103633949D01*
X260801081Y-103805896D01*
X260994277Y-103805896D01*
G37*
G36*
X260994277Y-104650000D02*
G01*
X260994277Y-103915317D01*
X260801081Y-103915317D01*
X260801081Y-104650000D01*
X260994277Y-104650000D01*
G37*
G36*
X260673342Y-104446789D02*
G01*
X260479658Y-104415526D01*
X260477101Y-104425374D01*
X260474102Y-104434766D01*
X260469416Y-104446581D01*
X260463943Y-104457588D01*
X260457684Y-104467785D01*
X260450639Y-104477173D01*
X260442808Y-104485752D01*
X260434191Y-104493522D01*
X260429588Y-104497103D01*
X260419650Y-104503629D01*
X260408766Y-104509285D01*
X260396936Y-104514071D01*
X260387442Y-104517089D01*
X260377415Y-104519618D01*
X260366856Y-104521657D01*
X260355765Y-104523207D01*
X260344142Y-104524267D01*
X260331986Y-104524838D01*
X260323586Y-104524947D01*
X260309897Y-104524705D01*
X260296856Y-104523977D01*
X260284463Y-104522764D01*
X260272719Y-104521066D01*
X260261623Y-104518883D01*
X260251175Y-104516215D01*
X260241376Y-104513061D01*
X260232224Y-104509422D01*
X260221031Y-104503816D01*
X260210990Y-104497348D01*
X260202358Y-104489731D01*
X260195512Y-104481170D01*
X260190451Y-104471665D01*
X260187177Y-104461215D01*
X260185688Y-104449821D01*
X260185589Y-104445812D01*
X260186444Y-104435295D01*
X260189009Y-104425724D01*
X260193937Y-104416087D01*
X260199267Y-104409420D01*
X260207289Y-104403530D01*
X260216901Y-104398630D01*
X260226839Y-104394651D01*
X260238530Y-104390768D01*
X260249145Y-104387730D01*
X260260882Y-104384754D01*
X260263991Y-104384019D01*
X260278418Y-104380807D01*
X260292510Y-104377611D01*
X260306269Y-104374433D01*
X260319694Y-104371273D01*
X260332785Y-104368129D01*
X260345542Y-104365002D01*
X260357965Y-104361893D01*
X260370054Y-104358801D01*
X260381809Y-104355726D01*
X260393230Y-104352668D01*
X260404317Y-104349628D01*
X260415071Y-104346604D01*
X260425490Y-104343598D01*
X260435576Y-104340609D01*
X260445327Y-104337637D01*
X260454745Y-104334682D01*
X260472578Y-104328824D01*
X260489076Y-104323035D01*
X260504238Y-104317314D01*
X260518065Y-104311662D01*
X260530555Y-104306079D01*
X260541711Y-104300564D01*
X260551530Y-104295118D01*
X260560013Y-104289741D01*
X260570483Y-104282141D01*
X260580278Y-104274178D01*
X260589397Y-104265853D01*
X260597841Y-104257165D01*
X260605609Y-104248115D01*
X260612701Y-104238702D01*
X260619118Y-104228927D01*
X260624860Y-104218789D01*
X260629926Y-104208288D01*
X260634317Y-104197425D01*
X260638032Y-104186200D01*
X260641072Y-104174611D01*
X260643436Y-104162661D01*
X260645124Y-104150347D01*
X260646138Y-104137672D01*
X260646475Y-104124633D01*
X260646183Y-104112846D01*
X260645308Y-104101296D01*
X260643848Y-104089986D01*
X260641804Y-104078914D01*
X260639177Y-104068080D01*
X260635965Y-104057485D01*
X260632170Y-104047129D01*
X260627791Y-104037011D01*
X260622828Y-104027132D01*
X260617281Y-104017491D01*
X260611150Y-104008088D01*
X260604435Y-103998924D01*
X260597136Y-103989999D01*
X260589254Y-103981312D01*
X260580787Y-103972864D01*
X260571737Y-103964654D01*
X260562043Y-103956787D01*
X260551705Y-103949427D01*
X260540725Y-103942575D01*
X260529101Y-103936230D01*
X260516835Y-103930393D01*
X260503925Y-103925064D01*
X260490373Y-103920242D01*
X260476177Y-103915928D01*
X260461338Y-103912121D01*
X260445857Y-103908822D01*
X260429732Y-103906030D01*
X260412964Y-103903746D01*
X260395553Y-103901970D01*
X260377499Y-103900701D01*
X260358802Y-103899939D01*
X260339462Y-103899685D01*
X260321048Y-103899886D01*
X260303234Y-103900487D01*
X260286022Y-103901489D01*
X260269410Y-103902891D01*
X260253400Y-103904694D01*
X260237991Y-103906898D01*
X260223183Y-103909503D01*
X260208975Y-103912508D01*
X260195369Y-103915914D01*
X260182364Y-103919721D01*
X260169960Y-103923928D01*
X260158158Y-103928537D01*
X260146956Y-103933546D01*
X260136355Y-103938955D01*
X260126356Y-103944765D01*
X260116957Y-103950976D01*
X260108007Y-103957581D01*
X260099413Y-103964570D01*
X260091177Y-103971945D01*
X260083297Y-103979706D01*
X260075774Y-103987851D01*
X260068608Y-103996383D01*
X260061799Y-104005300D01*
X260055347Y-104014602D01*
X260049251Y-104024289D01*
X260043512Y-104034363D01*
X260038130Y-104044821D01*
X260033105Y-104055665D01*
X260028437Y-104066895D01*
X260024126Y-104078509D01*
X260020171Y-104090510D01*
X260016573Y-104102896D01*
X260198778Y-104134159D01*
X260202037Y-104123133D01*
X260205953Y-104112772D01*
X260210525Y-104103075D01*
X260215753Y-104094042D01*
X260221638Y-104085673D01*
X260228179Y-104077967D01*
X260235377Y-104070926D01*
X260243230Y-104064549D01*
X260251787Y-104058882D01*
X260261213Y-104053971D01*
X260271509Y-104049815D01*
X260282676Y-104046414D01*
X260294712Y-104043770D01*
X260307619Y-104041881D01*
X260317870Y-104040960D01*
X260328611Y-104040464D01*
X260336043Y-104040369D01*
X260349951Y-104040556D01*
X260363099Y-104041116D01*
X260375488Y-104042050D01*
X260387116Y-104043358D01*
X260397985Y-104045038D01*
X260408093Y-104047093D01*
X260420390Y-104050413D01*
X260431335Y-104054397D01*
X260440929Y-104059045D01*
X260445219Y-104061618D01*
X260453785Y-104068676D01*
X260460246Y-104076598D01*
X260464604Y-104085386D01*
X260466858Y-104095038D01*
X260467201Y-104100942D01*
X260465995Y-104110818D01*
X260462377Y-104119931D01*
X260456348Y-104128282D01*
X260449093Y-104134962D01*
X260447906Y-104135868D01*
X260439373Y-104140940D01*
X260430348Y-104145070D01*
X260419074Y-104149478D01*
X260405550Y-104154166D01*
X260395284Y-104157446D01*
X260384018Y-104160850D01*
X260371753Y-104164378D01*
X260358487Y-104168030D01*
X260344222Y-104171807D01*
X260328957Y-104175707D01*
X260312692Y-104179731D01*
X260295427Y-104183879D01*
X260277162Y-104188152D01*
X260267655Y-104190334D01*
X260258113Y-104192533D01*
X260239574Y-104197025D01*
X260221759Y-104201643D01*
X260204670Y-104206386D01*
X260188305Y-104211256D01*
X260172666Y-104216251D01*
X260157752Y-104221373D01*
X260143563Y-104226620D01*
X260130099Y-104231994D01*
X260117361Y-104237493D01*
X260105347Y-104243118D01*
X260094058Y-104248869D01*
X260083495Y-104254746D01*
X260073656Y-104260749D01*
X260064543Y-104266878D01*
X260056155Y-104273133D01*
X260052233Y-104276308D01*
X260044927Y-104282910D01*
X260034853Y-104293414D01*
X260025839Y-104304640D01*
X260017886Y-104316587D01*
X260010993Y-104329255D01*
X260005160Y-104342645D01*
X260001861Y-104351972D01*
X259999033Y-104361619D01*
X259996677Y-104371587D01*
X259994791Y-104381876D01*
X259993377Y-104392485D01*
X259992435Y-104403415D01*
X259991964Y-104414666D01*
X259991905Y-104420411D01*
X259992232Y-104432850D01*
X259993214Y-104445072D01*
X259994850Y-104457076D01*
X259997141Y-104468863D01*
X260000086Y-104480432D01*
X260003685Y-104491784D01*
X260007940Y-104502918D01*
X260012848Y-104513834D01*
X260018412Y-104524533D01*
X260024629Y-104535015D01*
X260031502Y-104545278D01*
X260039028Y-104555325D01*
X260047209Y-104565154D01*
X260056045Y-104574765D01*
X260065535Y-104584159D01*
X260075680Y-104593335D01*
X260086466Y-104602090D01*
X260097879Y-104610280D01*
X260109921Y-104617904D01*
X260122590Y-104624965D01*
X260135887Y-104631460D01*
X260149811Y-104637390D01*
X260164364Y-104642756D01*
X260179544Y-104647557D01*
X260195352Y-104651793D01*
X260211788Y-104655464D01*
X260228852Y-104658571D01*
X260246543Y-104661113D01*
X260264862Y-104663089D01*
X260283809Y-104664501D01*
X260303384Y-104665349D01*
X260313407Y-104665560D01*
X260323586Y-104665631D01*
X260341997Y-104665401D01*
X260359921Y-104664711D01*
X260377359Y-104663562D01*
X260394310Y-104661952D01*
X260410774Y-104659883D01*
X260426752Y-104657353D01*
X260442244Y-104654364D01*
X260457248Y-104650915D01*
X260471766Y-104647007D01*
X260485798Y-104642638D01*
X260499343Y-104637809D01*
X260512401Y-104632521D01*
X260524973Y-104626773D01*
X260537058Y-104620564D01*
X260548657Y-104613896D01*
X260559769Y-104606769D01*
X260570374Y-104599246D01*
X260580511Y-104591393D01*
X260590180Y-104583210D01*
X260599382Y-104574696D01*
X260608117Y-104565853D01*
X260616384Y-104556680D01*
X260624183Y-104547176D01*
X260631516Y-104537342D01*
X260638380Y-104527179D01*
X260644777Y-104516685D01*
X260650707Y-104505861D01*
X260656169Y-104494707D01*
X260661163Y-104483223D01*
X260665690Y-104471408D01*
X260669750Y-104459264D01*
X260673342Y-104446789D01*
G37*
G36*
X259190544Y-104118527D02*
G01*
X259380809Y-104149790D01*
X259382812Y-104139816D01*
X259385248Y-104130318D01*
X259389171Y-104118396D01*
X259393865Y-104107321D01*
X259399330Y-104097094D01*
X259405566Y-104087713D01*
X259412573Y-104079180D01*
X259420351Y-104071494D01*
X259424528Y-104067969D01*
X259433333Y-104061500D01*
X259442770Y-104055894D01*
X259452842Y-104051150D01*
X259463546Y-104047269D01*
X259474884Y-104044251D01*
X259486856Y-104042094D01*
X259499461Y-104040801D01*
X259509331Y-104040396D01*
X259512700Y-104040369D01*
X259525954Y-104040837D01*
X259538698Y-104042241D01*
X259550930Y-104044581D01*
X259562652Y-104047857D01*
X259573862Y-104052069D01*
X259584562Y-104057216D01*
X259594751Y-104063300D01*
X259604429Y-104070320D01*
X259613596Y-104078275D01*
X259622252Y-104087167D01*
X259627739Y-104093614D01*
X259635421Y-104104227D01*
X259642347Y-104116097D01*
X259648518Y-104129225D01*
X259652212Y-104138676D01*
X259655571Y-104148687D01*
X259658593Y-104159256D01*
X259661280Y-104170384D01*
X259663631Y-104182071D01*
X259665646Y-104194318D01*
X259667325Y-104207124D01*
X259668668Y-104220488D01*
X259669676Y-104234412D01*
X259670347Y-104248895D01*
X259670683Y-104263937D01*
X259670725Y-104271667D01*
X259670555Y-104288691D01*
X259670046Y-104305079D01*
X259669197Y-104320832D01*
X259668008Y-104335949D01*
X259666480Y-104350431D01*
X259664612Y-104364277D01*
X259662404Y-104377488D01*
X259659856Y-104390064D01*
X259656969Y-104402004D01*
X259653743Y-104413309D01*
X259650176Y-104423979D01*
X259646270Y-104434012D01*
X259642025Y-104443411D01*
X259637440Y-104452174D01*
X259629925Y-104464128D01*
X259627250Y-104467794D01*
X259618791Y-104478008D01*
X259609808Y-104487217D01*
X259600301Y-104495422D01*
X259590270Y-104502622D01*
X259579716Y-104508817D01*
X259568637Y-104514008D01*
X259557035Y-104518194D01*
X259544910Y-104521375D01*
X259532260Y-104523552D01*
X259519087Y-104524724D01*
X259510013Y-104524947D01*
X259499885Y-104524670D01*
X259490110Y-104523839D01*
X259477623Y-104521870D01*
X259465762Y-104518916D01*
X259454526Y-104514978D01*
X259443917Y-104510055D01*
X259433934Y-104504147D01*
X259424576Y-104497255D01*
X259420132Y-104493440D01*
X259411664Y-104484788D01*
X259403844Y-104474709D01*
X259398405Y-104466214D01*
X259393331Y-104456915D01*
X259388622Y-104446814D01*
X259384278Y-104435909D01*
X259380299Y-104424202D01*
X259376685Y-104411692D01*
X259373435Y-104398379D01*
X259370551Y-104384263D01*
X259181018Y-104415526D01*
X259184924Y-104430769D01*
X259189254Y-104445538D01*
X259194007Y-104459834D01*
X259199184Y-104473656D01*
X259204784Y-104487006D01*
X259210808Y-104499882D01*
X259217256Y-104512285D01*
X259224127Y-104524214D01*
X259231422Y-104535671D01*
X259239141Y-104546654D01*
X259247283Y-104557164D01*
X259255848Y-104567201D01*
X259264838Y-104576765D01*
X259274250Y-104585855D01*
X259284087Y-104594472D01*
X259294347Y-104602616D01*
X259305042Y-104610247D01*
X259316184Y-104617385D01*
X259327772Y-104624032D01*
X259339807Y-104630185D01*
X259352288Y-104635847D01*
X259365216Y-104641016D01*
X259378590Y-104645693D01*
X259392411Y-104649877D01*
X259406678Y-104653570D01*
X259421391Y-104656770D01*
X259436552Y-104659477D01*
X259452158Y-104661693D01*
X259468212Y-104663416D01*
X259484711Y-104664646D01*
X259501658Y-104665385D01*
X259519050Y-104665631D01*
X259528986Y-104665532D01*
X259538795Y-104665235D01*
X259558034Y-104664047D01*
X259576767Y-104662068D01*
X259594995Y-104659296D01*
X259612717Y-104655733D01*
X259629933Y-104651377D01*
X259646643Y-104646230D01*
X259662848Y-104640291D01*
X259678548Y-104633560D01*
X259693741Y-104626037D01*
X259708429Y-104617722D01*
X259722612Y-104608616D01*
X259736288Y-104598717D01*
X259749459Y-104588027D01*
X259762125Y-104576544D01*
X259774284Y-104564270D01*
X259785789Y-104551266D01*
X259796552Y-104537655D01*
X259806573Y-104523438D01*
X259815851Y-104508613D01*
X259824387Y-104493182D01*
X259832181Y-104477144D01*
X259839233Y-104460499D01*
X259845542Y-104443248D01*
X259851109Y-104425390D01*
X259855934Y-104406924D01*
X259860016Y-104387853D01*
X259861779Y-104378089D01*
X259863357Y-104368174D01*
X259864748Y-104358107D01*
X259865954Y-104347888D01*
X259866975Y-104337518D01*
X259867810Y-104326996D01*
X259868460Y-104316322D01*
X259868924Y-104305497D01*
X259869202Y-104294520D01*
X259869295Y-104283391D01*
X259869201Y-104272127D01*
X259868922Y-104261021D01*
X259868455Y-104250071D01*
X259867803Y-104239278D01*
X259866963Y-104228643D01*
X259865937Y-104218164D01*
X259864725Y-104207842D01*
X259863326Y-104197677D01*
X259861741Y-104187669D01*
X259859969Y-104177818D01*
X259858010Y-104168124D01*
X259855865Y-104158587D01*
X259851016Y-104139983D01*
X259845420Y-104122008D01*
X259839078Y-104104660D01*
X259831990Y-104087939D01*
X259824157Y-104071847D01*
X259815577Y-104056383D01*
X259806250Y-104041546D01*
X259796178Y-104027337D01*
X259785360Y-104013755D01*
X259773796Y-104000802D01*
X259761595Y-103988557D01*
X259748868Y-103977103D01*
X259735614Y-103966438D01*
X259721833Y-103956564D01*
X259707526Y-103947479D01*
X259692692Y-103939184D01*
X259677331Y-103931679D01*
X259661444Y-103924965D01*
X259645030Y-103919040D01*
X259628090Y-103913905D01*
X259610622Y-103909560D01*
X259592629Y-103906005D01*
X259574108Y-103903240D01*
X259555061Y-103901265D01*
X259535487Y-103900080D01*
X259525503Y-103899784D01*
X259515387Y-103899685D01*
X259498961Y-103899897D01*
X259482960Y-103900533D01*
X259467384Y-103901592D01*
X259452235Y-103903074D01*
X259437511Y-103904981D01*
X259423212Y-103907310D01*
X259409339Y-103910064D01*
X259395891Y-103913241D01*
X259382869Y-103916842D01*
X259370272Y-103920866D01*
X259358101Y-103925314D01*
X259346355Y-103930185D01*
X259335035Y-103935480D01*
X259324141Y-103941199D01*
X259313672Y-103947341D01*
X259303628Y-103953907D01*
X259293970Y-103960876D01*
X259284657Y-103968287D01*
X259275690Y-103976141D01*
X259267068Y-103984438D01*
X259258792Y-103993177D01*
X259250860Y-104002359D01*
X259243275Y-104011984D01*
X259236034Y-104022051D01*
X259229139Y-104032561D01*
X259222589Y-104043514D01*
X259216385Y-104054909D01*
X259210526Y-104066748D01*
X259205012Y-104079028D01*
X259199844Y-104091752D01*
X259195021Y-104104918D01*
X259190544Y-104118527D01*
G37*
G36*
X258730251Y-103899872D02*
G01*
X258743389Y-103900430D01*
X258756370Y-103901360D01*
X258769194Y-103902662D01*
X258781863Y-103904337D01*
X258794374Y-103906383D01*
X258806730Y-103908802D01*
X258818928Y-103911592D01*
X258830971Y-103914755D01*
X258842856Y-103918290D01*
X258854586Y-103922197D01*
X258866159Y-103926476D01*
X258877575Y-103931127D01*
X258888835Y-103936150D01*
X258899939Y-103941545D01*
X258910886Y-103947313D01*
X258921600Y-103953433D01*
X258932005Y-103959888D01*
X258942101Y-103966676D01*
X258951888Y-103973798D01*
X258961366Y-103981254D01*
X258970534Y-103989044D01*
X258979394Y-103997168D01*
X258987944Y-104005626D01*
X258996186Y-104014418D01*
X259004118Y-104023543D01*
X259011741Y-104033003D01*
X259019055Y-104042797D01*
X259026060Y-104052924D01*
X259032755Y-104063385D01*
X259039142Y-104074181D01*
X259045219Y-104085310D01*
X259050957Y-104096631D01*
X259056325Y-104108002D01*
X259061322Y-104119422D01*
X259065949Y-104130892D01*
X259070207Y-104142411D01*
X259074093Y-104153980D01*
X259077610Y-104165599D01*
X259080757Y-104177267D01*
X259083533Y-104188985D01*
X259085939Y-104200753D01*
X259087975Y-104212570D01*
X259089641Y-104224437D01*
X259090937Y-104236353D01*
X259091862Y-104248319D01*
X259092417Y-104260335D01*
X259092602Y-104272400D01*
X259092417Y-104288034D01*
X259091862Y-104303369D01*
X259090937Y-104318405D01*
X259089641Y-104333140D01*
X259087975Y-104347576D01*
X259085939Y-104361713D01*
X259083533Y-104375550D01*
X259080757Y-104389087D01*
X259077610Y-104402325D01*
X259074093Y-104415263D01*
X259070207Y-104427902D01*
X259065949Y-104440241D01*
X259061322Y-104452280D01*
X259056325Y-104464020D01*
X259050957Y-104475460D01*
X259045219Y-104486601D01*
X259039127Y-104497427D01*
X259032694Y-104507923D01*
X259025922Y-104518088D01*
X259018811Y-104527924D01*
X259011359Y-104537429D01*
X259003568Y-104546605D01*
X258995438Y-104555450D01*
X258986967Y-104563965D01*
X258978157Y-104572150D01*
X258969008Y-104580005D01*
X258959519Y-104587530D01*
X258949690Y-104594724D01*
X258939521Y-104601589D01*
X258929013Y-104608123D01*
X258918165Y-104614328D01*
X258906978Y-104620202D01*
X258895554Y-104625703D01*
X258884057Y-104630849D01*
X258872488Y-104635641D01*
X258860846Y-104640077D01*
X258849132Y-104644159D01*
X258837346Y-104647885D01*
X258825487Y-104651257D01*
X258813555Y-104654274D01*
X258801551Y-104656936D01*
X258789474Y-104659243D01*
X258777325Y-104661195D01*
X258765103Y-104662792D01*
X258752809Y-104664034D01*
X258740442Y-104664921D01*
X258728003Y-104665454D01*
X258715491Y-104665631D01*
X258705425Y-104665524D01*
X258695465Y-104665204D01*
X258685614Y-104664669D01*
X258675871Y-104663921D01*
X258656707Y-104661784D01*
X258637975Y-104658792D01*
X258619674Y-104654945D01*
X258601804Y-104650244D01*
X258584366Y-104644687D01*
X258567358Y-104638276D01*
X258550782Y-104631010D01*
X258534637Y-104622889D01*
X258518924Y-104613913D01*
X258503641Y-104604082D01*
X258488790Y-104593396D01*
X258474370Y-104581856D01*
X258460382Y-104569460D01*
X258446824Y-104556210D01*
X258433870Y-104542311D01*
X258421751Y-104527970D01*
X258410468Y-104513185D01*
X258400021Y-104497958D01*
X258390410Y-104482289D01*
X258381634Y-104466176D01*
X258373695Y-104449621D01*
X258366591Y-104432623D01*
X258360322Y-104415183D01*
X258354890Y-104397300D01*
X258350293Y-104378974D01*
X258346532Y-104360205D01*
X258343607Y-104340994D01*
X258342458Y-104331223D01*
X258341518Y-104321340D01*
X258340786Y-104311347D01*
X258340264Y-104301244D01*
X258339950Y-104291029D01*
X258339851Y-104281193D01*
X258538415Y-104281193D01*
X258538616Y-104295841D01*
X258539217Y-104310048D01*
X258540219Y-104323814D01*
X258541621Y-104337140D01*
X258543424Y-104350024D01*
X258545628Y-104362468D01*
X258548233Y-104374472D01*
X258551238Y-104386034D01*
X258554644Y-104397156D01*
X258558451Y-104407837D01*
X258562658Y-104418077D01*
X258567267Y-104427876D01*
X258572275Y-104437234D01*
X258577685Y-104446152D01*
X258583495Y-104454629D01*
X258589706Y-104462665D01*
X258596183Y-104470207D01*
X258606255Y-104480608D01*
X258616756Y-104489914D01*
X258627687Y-104498125D01*
X258639047Y-104505241D01*
X258650837Y-104511262D01*
X258663056Y-104516189D01*
X258675704Y-104520021D01*
X258688781Y-104522758D01*
X258702288Y-104524400D01*
X258716224Y-104524947D01*
X258730165Y-104524400D01*
X258743684Y-104522758D01*
X258756783Y-104520021D01*
X258769462Y-104516189D01*
X258781719Y-104511262D01*
X258793556Y-104505241D01*
X258804972Y-104498125D01*
X258815967Y-104489914D01*
X258826541Y-104480608D01*
X258836695Y-104470207D01*
X258843230Y-104462665D01*
X258849471Y-104454635D01*
X258855309Y-104446175D01*
X258860744Y-104437286D01*
X258865777Y-104427967D01*
X258870407Y-104418220D01*
X258874635Y-104408043D01*
X258878460Y-104397436D01*
X258881882Y-104386400D01*
X258884902Y-104374935D01*
X258887519Y-104363041D01*
X258889733Y-104350717D01*
X258891545Y-104337964D01*
X258892954Y-104324782D01*
X258893960Y-104311170D01*
X258894564Y-104297129D01*
X258894766Y-104282658D01*
X258894564Y-104268189D01*
X258893960Y-104254151D01*
X258892954Y-104240544D01*
X258891545Y-104227368D01*
X258889733Y-104214623D01*
X258887519Y-104202310D01*
X258884902Y-104190428D01*
X258881882Y-104178977D01*
X258878460Y-104167958D01*
X258874635Y-104157369D01*
X258870407Y-104147212D01*
X258865777Y-104137486D01*
X258860744Y-104128192D01*
X258855309Y-104119328D01*
X258849471Y-104110896D01*
X258843230Y-104102896D01*
X258836695Y-104095324D01*
X258826541Y-104084883D01*
X258815967Y-104075540D01*
X258804972Y-104067297D01*
X258793556Y-104060153D01*
X258781719Y-104054108D01*
X258769462Y-104049162D01*
X258756783Y-104045315D01*
X258743684Y-104042568D01*
X258730165Y-104040919D01*
X258716224Y-104040369D01*
X258702288Y-104040919D01*
X258688781Y-104042568D01*
X258675704Y-104045315D01*
X258663056Y-104049162D01*
X258650837Y-104054108D01*
X258639047Y-104060153D01*
X258627687Y-104067297D01*
X258616756Y-104075540D01*
X258606255Y-104084883D01*
X258596183Y-104095324D01*
X258589706Y-104102896D01*
X258583495Y-104110891D01*
X258577685Y-104119306D01*
X258572275Y-104128140D01*
X258567267Y-104137395D01*
X258562658Y-104147069D01*
X258558451Y-104157163D01*
X258554644Y-104167677D01*
X258551238Y-104178611D01*
X258548233Y-104189964D01*
X258545628Y-104201738D01*
X258543424Y-104213931D01*
X258541621Y-104226543D01*
X258540219Y-104239576D01*
X258539217Y-104253029D01*
X258538616Y-104266901D01*
X258538415Y-104281193D01*
X258339851Y-104281193D01*
X258339846Y-104280704D01*
X258339949Y-104270441D01*
X258340259Y-104260289D01*
X258340775Y-104250249D01*
X258341498Y-104240320D01*
X258342428Y-104230503D01*
X258343564Y-104220798D01*
X258346456Y-104201722D01*
X258350174Y-104183093D01*
X258354718Y-104164910D01*
X258360089Y-104147174D01*
X258366285Y-104129884D01*
X258373308Y-104113041D01*
X258381157Y-104096644D01*
X258389833Y-104080694D01*
X258399334Y-104065191D01*
X258409662Y-104050133D01*
X258420816Y-104035523D01*
X258432797Y-104021358D01*
X258445603Y-104007641D01*
X258459057Y-103994568D01*
X258472977Y-103982339D01*
X258487366Y-103970953D01*
X258502222Y-103960410D01*
X258517545Y-103950711D01*
X258533336Y-103941856D01*
X258549594Y-103933843D01*
X258566320Y-103926674D01*
X258583514Y-103920349D01*
X258601174Y-103914867D01*
X258619303Y-103910228D01*
X258637899Y-103906433D01*
X258656962Y-103903481D01*
X258666669Y-103902321D01*
X258676493Y-103901372D01*
X258686433Y-103900634D01*
X258696491Y-103900107D01*
X258706666Y-103899791D01*
X258716957Y-103899685D01*
X258730251Y-103899872D01*
G37*
G36*
X258008408Y-104650000D02*
G01*
X258201360Y-104650000D01*
X258201360Y-103915317D01*
X258022086Y-103915317D01*
X258022086Y-104019120D01*
X258016383Y-104010128D01*
X258010752Y-104001531D01*
X258005193Y-103993329D01*
X257996992Y-103981766D01*
X257988953Y-103971092D01*
X257981078Y-103961307D01*
X257973365Y-103952410D01*
X257965816Y-103944403D01*
X257958430Y-103937284D01*
X257948836Y-103929174D01*
X257939532Y-103922644D01*
X257930155Y-103917263D01*
X257920466Y-103912600D01*
X257910463Y-103908654D01*
X257900148Y-103905425D01*
X257889519Y-103902914D01*
X257878578Y-103901120D01*
X257867324Y-103900044D01*
X257855757Y-103899685D01*
X257843435Y-103900033D01*
X257831199Y-103901077D01*
X257819049Y-103902815D01*
X257806984Y-103905250D01*
X257795006Y-103908379D01*
X257783113Y-103912205D01*
X257771307Y-103916726D01*
X257759586Y-103921942D01*
X257747951Y-103927854D01*
X257736402Y-103934461D01*
X257728750Y-103939253D01*
X257788590Y-104119016D01*
X257797687Y-104113341D01*
X257806659Y-104108225D01*
X257815507Y-104103667D01*
X257827110Y-104098458D01*
X257838492Y-104094241D01*
X257849653Y-104091016D01*
X257860593Y-104088783D01*
X257871311Y-104087543D01*
X257879204Y-104087264D01*
X257889149Y-104087607D01*
X257901044Y-104089003D01*
X257912343Y-104091471D01*
X257923045Y-104095013D01*
X257933151Y-104099629D01*
X257942661Y-104105317D01*
X257948080Y-104109246D01*
X257956566Y-104116980D01*
X257962933Y-104124412D01*
X257968927Y-104132951D01*
X257974546Y-104142597D01*
X257979792Y-104153349D01*
X257984663Y-104165208D01*
X257988071Y-104174829D01*
X257991269Y-104185072D01*
X257992288Y-104188625D01*
X257995169Y-104200446D01*
X257997767Y-104214479D01*
X257999341Y-104225063D01*
X258000789Y-104236629D01*
X258002112Y-104249178D01*
X258003308Y-104262710D01*
X258004378Y-104277224D01*
X258005323Y-104292721D01*
X258006142Y-104309201D01*
X258006834Y-104326663D01*
X258007401Y-104345108D01*
X258007842Y-104364536D01*
X258008015Y-104374618D01*
X258008157Y-104384946D01*
X258008267Y-104395520D01*
X258008345Y-104406340D01*
X258008393Y-104417405D01*
X258008408Y-104428715D01*
X258008408Y-104650000D01*
G37*
G36*
X257172854Y-104001290D02*
G01*
X257184157Y-103988987D01*
X257195717Y-103977477D01*
X257207535Y-103966761D01*
X257219611Y-103956838D01*
X257231944Y-103947710D01*
X257244535Y-103939375D01*
X257257384Y-103931834D01*
X257270490Y-103925087D01*
X257283853Y-103919133D01*
X257297475Y-103913974D01*
X257311354Y-103909608D01*
X257325490Y-103906036D01*
X257339884Y-103903258D01*
X257354536Y-103901273D01*
X257369445Y-103900082D01*
X257384612Y-103899685D01*
X257401073Y-103900064D01*
X257417177Y-103901201D01*
X257432924Y-103903094D01*
X257448314Y-103905746D01*
X257463347Y-103909155D01*
X257478024Y-103913321D01*
X257492343Y-103918245D01*
X257506306Y-103923927D01*
X257519912Y-103930366D01*
X257533161Y-103937562D01*
X257546054Y-103945516D01*
X257558589Y-103954228D01*
X257570768Y-103963697D01*
X257582590Y-103973924D01*
X257594055Y-103984908D01*
X257605163Y-103996650D01*
X257615722Y-104009120D01*
X257625600Y-104022288D01*
X257634796Y-104036154D01*
X257643311Y-104050719D01*
X257651145Y-104065982D01*
X257658298Y-104081944D01*
X257664769Y-104098604D01*
X257670560Y-104115963D01*
X257675669Y-104134019D01*
X257680096Y-104152774D01*
X257682055Y-104162414D01*
X257683843Y-104172228D01*
X257685461Y-104182217D01*
X257686909Y-104192380D01*
X257688186Y-104202718D01*
X257689293Y-104213230D01*
X257690229Y-104223917D01*
X257690996Y-104234779D01*
X257691592Y-104245815D01*
X257692018Y-104257026D01*
X257692273Y-104268412D01*
X257692358Y-104279972D01*
X257692271Y-104291281D01*
X257692008Y-104302433D01*
X257691570Y-104313429D01*
X257690958Y-104324267D01*
X257690170Y-104334949D01*
X257689207Y-104345474D01*
X257688069Y-104355841D01*
X257686756Y-104366052D01*
X257685268Y-104376106D01*
X257683605Y-104386003D01*
X257681766Y-104395742D01*
X257679753Y-104405325D01*
X257675201Y-104424020D01*
X257669949Y-104442088D01*
X257663996Y-104459527D01*
X257657344Y-104476339D01*
X257649991Y-104492523D01*
X257641937Y-104508079D01*
X257633184Y-104523008D01*
X257623730Y-104537308D01*
X257613576Y-104550981D01*
X257602721Y-104564026D01*
X257591375Y-104576330D01*
X257579747Y-104587840D01*
X257567836Y-104598556D01*
X257555643Y-104608478D01*
X257543168Y-104617607D01*
X257530410Y-104625942D01*
X257517370Y-104633483D01*
X257504047Y-104640230D01*
X257490442Y-104646183D01*
X257476554Y-104651343D01*
X257462384Y-104655709D01*
X257447932Y-104659281D01*
X257433197Y-104662059D01*
X257418180Y-104664043D01*
X257402881Y-104665234D01*
X257387299Y-104665631D01*
X257379579Y-104665514D01*
X257368012Y-104664898D01*
X257356463Y-104663753D01*
X257344931Y-104662081D01*
X257333417Y-104659881D01*
X257321919Y-104657152D01*
X257310439Y-104653896D01*
X257298976Y-104650111D01*
X257287529Y-104645799D01*
X257276101Y-104640958D01*
X257264689Y-104635589D01*
X257257150Y-104631677D01*
X257246077Y-104625338D01*
X257235288Y-104618431D01*
X257224782Y-104610958D01*
X257214560Y-104602918D01*
X257204621Y-104594311D01*
X257194965Y-104585138D01*
X257185593Y-104575398D01*
X257176504Y-104565091D01*
X257167698Y-104554217D01*
X257159176Y-104542777D01*
X257159176Y-104650000D01*
X256979902Y-104650000D01*
X256979902Y-104288032D01*
X257172365Y-104288032D01*
X257172411Y-104295362D01*
X257172777Y-104309679D01*
X257173510Y-104323536D01*
X257174609Y-104336933D01*
X257176075Y-104349871D01*
X257177906Y-104362348D01*
X257180105Y-104374365D01*
X257182669Y-104385923D01*
X257185600Y-104397021D01*
X257188897Y-104407659D01*
X257192561Y-104417837D01*
X257196591Y-104427555D01*
X257200987Y-104436813D01*
X257205750Y-104445612D01*
X257210879Y-104453950D01*
X257219260Y-104465596D01*
X257225168Y-104472783D01*
X257234321Y-104482694D01*
X257243821Y-104491562D01*
X257253670Y-104499387D01*
X257263866Y-104506168D01*
X257274409Y-104511906D01*
X257285301Y-104516601D01*
X257296540Y-104520252D01*
X257308127Y-104522861D01*
X257320062Y-104524426D01*
X257332344Y-104524947D01*
X257337559Y-104524870D01*
X257347769Y-104524252D01*
X257357688Y-104523015D01*
X257372018Y-104520001D01*
X257385692Y-104515596D01*
X257398709Y-104509800D01*
X257411068Y-104502613D01*
X257422771Y-104494035D01*
X257430208Y-104487544D01*
X257437353Y-104480434D01*
X257444207Y-104472706D01*
X257450768Y-104464360D01*
X257457037Y-104455395D01*
X257463014Y-104445812D01*
X257464998Y-104442327D01*
X257470570Y-104431078D01*
X257475576Y-104418639D01*
X257480016Y-104405012D01*
X257482660Y-104395266D01*
X257485053Y-104384991D01*
X257487194Y-104374188D01*
X257489083Y-104362857D01*
X257490720Y-104350997D01*
X257492106Y-104338608D01*
X257493239Y-104325691D01*
X257494121Y-104312245D01*
X257494750Y-104298271D01*
X257495128Y-104283768D01*
X257495254Y-104268736D01*
X257495073Y-104254731D01*
X257494529Y-104241168D01*
X257493623Y-104228047D01*
X257492354Y-104215369D01*
X257490722Y-104203134D01*
X257488728Y-104191342D01*
X257486372Y-104179992D01*
X257483653Y-104169085D01*
X257480571Y-104158621D01*
X257477127Y-104148599D01*
X257473320Y-104139021D01*
X257469151Y-104129884D01*
X257464619Y-104121191D01*
X257457141Y-104108981D01*
X257448848Y-104097766D01*
X257442960Y-104090816D01*
X257433804Y-104081231D01*
X257424256Y-104072655D01*
X257414318Y-104065088D01*
X257403988Y-104058530D01*
X257393269Y-104052981D01*
X257382158Y-104048441D01*
X257370657Y-104044910D01*
X257358765Y-104042387D01*
X257346483Y-104040874D01*
X257333810Y-104040369D01*
X257325056Y-104040596D01*
X257312301Y-104041789D01*
X257299997Y-104044002D01*
X257288144Y-104047238D01*
X257276742Y-104051496D01*
X257265790Y-104056775D01*
X257255289Y-104063076D01*
X257245239Y-104070399D01*
X257235640Y-104078744D01*
X257226492Y-104088111D01*
X257217794Y-104098499D01*
X257214999Y-104102189D01*
X257207147Y-104114123D01*
X257202356Y-104122799D01*
X257197919Y-104132052D01*
X257193838Y-104141881D01*
X257190111Y-104152286D01*
X257186739Y-104163267D01*
X257183722Y-104174825D01*
X257181061Y-104186959D01*
X257178754Y-104199669D01*
X257176802Y-104212956D01*
X257175204Y-104226818D01*
X257173962Y-104241257D01*
X257173075Y-104256272D01*
X257172543Y-104271864D01*
X257172365Y-104288032D01*
X256979902Y-104288032D01*
X256979902Y-103633949D01*
X257172854Y-103633949D01*
X257172854Y-104001290D01*
G37*
G36*
X256757152Y-104102896D02*
G01*
X256757152Y-103915317D01*
X256563956Y-103915317D01*
X256563956Y-104102896D01*
X256757152Y-104102896D01*
G37*
G36*
X256757152Y-104650000D02*
G01*
X256757152Y-104462421D01*
X256563956Y-104462421D01*
X256563956Y-104650000D01*
X256757152Y-104650000D01*
G37*
G36*
X261139357Y-106126789D02*
G01*
X260945673Y-106095526D01*
X260943116Y-106105374D01*
X260940117Y-106114766D01*
X260935431Y-106126581D01*
X260929958Y-106137588D01*
X260923700Y-106147785D01*
X260916655Y-106157173D01*
X260908824Y-106165752D01*
X260900207Y-106173522D01*
X260895603Y-106177103D01*
X260885665Y-106183629D01*
X260874781Y-106189285D01*
X260862951Y-106194071D01*
X260853457Y-106197089D01*
X260843431Y-106199618D01*
X260832872Y-106201657D01*
X260821781Y-106203207D01*
X260810157Y-106204267D01*
X260798001Y-106204838D01*
X260789602Y-106204947D01*
X260775912Y-106204705D01*
X260762871Y-106203977D01*
X260750479Y-106202764D01*
X260738734Y-106201066D01*
X260727638Y-106198883D01*
X260717190Y-106196215D01*
X260707391Y-106193061D01*
X260698240Y-106189422D01*
X260687046Y-106183816D01*
X260677006Y-106177348D01*
X260668373Y-106169731D01*
X260661527Y-106161170D01*
X260656466Y-106151665D01*
X260653192Y-106141215D01*
X260651704Y-106129821D01*
X260651605Y-106125812D01*
X260652459Y-106115295D01*
X260655024Y-106105724D01*
X260659953Y-106096087D01*
X260665282Y-106089420D01*
X260673305Y-106083530D01*
X260682916Y-106078630D01*
X260692854Y-106074651D01*
X260704545Y-106070768D01*
X260715160Y-106067730D01*
X260726897Y-106064754D01*
X260730006Y-106064019D01*
X260744433Y-106060807D01*
X260758526Y-106057611D01*
X260772284Y-106054433D01*
X260785709Y-106051273D01*
X260798800Y-106048129D01*
X260811557Y-106045002D01*
X260823980Y-106041893D01*
X260836069Y-106038801D01*
X260847824Y-106035726D01*
X260859245Y-106032668D01*
X260870333Y-106029628D01*
X260881086Y-106026604D01*
X260891505Y-106023598D01*
X260901591Y-106020609D01*
X260911342Y-106017637D01*
X260920760Y-106014682D01*
X260938594Y-106008824D01*
X260955092Y-106003035D01*
X260970254Y-105997314D01*
X260984080Y-105991662D01*
X260996571Y-105986079D01*
X261007726Y-105980564D01*
X261017545Y-105975118D01*
X261026029Y-105969741D01*
X261036499Y-105962141D01*
X261046293Y-105954178D01*
X261055412Y-105945853D01*
X261063856Y-105937165D01*
X261071624Y-105928115D01*
X261078717Y-105918702D01*
X261085134Y-105908927D01*
X261090875Y-105898789D01*
X261095941Y-105888288D01*
X261100332Y-105877425D01*
X261104047Y-105866200D01*
X261107087Y-105854611D01*
X261109451Y-105842661D01*
X261111140Y-105830347D01*
X261112153Y-105817672D01*
X261112491Y-105804633D01*
X261112199Y-105792846D01*
X261111323Y-105781296D01*
X261109863Y-105769986D01*
X261107820Y-105758914D01*
X261105192Y-105748080D01*
X261101981Y-105737485D01*
X261098185Y-105727129D01*
X261093806Y-105717011D01*
X261088843Y-105707132D01*
X261083296Y-105697491D01*
X261077165Y-105688088D01*
X261070450Y-105678924D01*
X261063152Y-105669999D01*
X261055269Y-105661312D01*
X261046803Y-105652864D01*
X261037752Y-105644654D01*
X261028058Y-105636787D01*
X261017721Y-105629427D01*
X261006740Y-105622575D01*
X260995117Y-105616230D01*
X260982850Y-105610393D01*
X260969941Y-105605064D01*
X260956388Y-105600242D01*
X260942192Y-105595928D01*
X260927354Y-105592121D01*
X260911872Y-105588822D01*
X260895747Y-105586030D01*
X260878979Y-105583746D01*
X260861568Y-105581970D01*
X260843515Y-105580701D01*
X260824818Y-105579939D01*
X260805478Y-105579685D01*
X260787063Y-105579886D01*
X260769249Y-105580487D01*
X260752037Y-105581489D01*
X260735426Y-105582891D01*
X260719415Y-105584694D01*
X260704006Y-105586898D01*
X260689198Y-105589503D01*
X260674991Y-105592508D01*
X260661385Y-105595914D01*
X260648380Y-105599721D01*
X260635976Y-105603928D01*
X260624173Y-105608537D01*
X260612971Y-105613546D01*
X260602371Y-105618955D01*
X260592371Y-105624765D01*
X260582972Y-105630976D01*
X260574022Y-105637581D01*
X260565429Y-105644570D01*
X260557192Y-105651945D01*
X260549313Y-105659706D01*
X260541790Y-105667851D01*
X260534624Y-105676383D01*
X260527814Y-105685300D01*
X260521362Y-105694602D01*
X260515266Y-105704289D01*
X260509528Y-105714363D01*
X260504146Y-105724821D01*
X260499121Y-105735665D01*
X260494452Y-105746895D01*
X260490141Y-105758509D01*
X260486186Y-105770510D01*
X260482588Y-105782896D01*
X260664794Y-105814159D01*
X260668053Y-105803133D01*
X260671968Y-105792772D01*
X260676540Y-105783075D01*
X260681769Y-105774042D01*
X260687653Y-105765673D01*
X260694194Y-105757967D01*
X260701392Y-105750926D01*
X260709246Y-105744549D01*
X260717802Y-105738882D01*
X260727228Y-105733971D01*
X260737525Y-105729815D01*
X260748691Y-105726414D01*
X260760728Y-105723770D01*
X260773634Y-105721881D01*
X260783885Y-105720960D01*
X260794626Y-105720464D01*
X260802058Y-105720369D01*
X260815966Y-105720556D01*
X260829115Y-105721116D01*
X260841503Y-105722050D01*
X260853132Y-105723358D01*
X260864000Y-105725038D01*
X260874109Y-105727093D01*
X260886405Y-105730413D01*
X260897350Y-105734397D01*
X260906944Y-105739045D01*
X260911235Y-105741618D01*
X260919800Y-105748676D01*
X260926261Y-105756598D01*
X260930619Y-105765386D01*
X260932873Y-105775038D01*
X260933217Y-105780942D01*
X260932011Y-105790818D01*
X260928393Y-105799931D01*
X260922363Y-105808282D01*
X260915108Y-105814962D01*
X260913921Y-105815868D01*
X260905388Y-105820940D01*
X260896364Y-105825070D01*
X260885089Y-105829478D01*
X260871565Y-105834166D01*
X260861299Y-105837446D01*
X260850034Y-105840850D01*
X260837768Y-105844378D01*
X260824503Y-105848030D01*
X260810237Y-105851807D01*
X260794972Y-105855707D01*
X260778707Y-105859731D01*
X260761442Y-105863879D01*
X260743177Y-105868152D01*
X260733670Y-105870334D01*
X260724128Y-105872533D01*
X260705589Y-105877025D01*
X260687774Y-105881643D01*
X260670685Y-105886386D01*
X260654321Y-105891256D01*
X260638682Y-105896251D01*
X260623768Y-105901373D01*
X260609579Y-105906620D01*
X260596115Y-105911994D01*
X260583376Y-105917493D01*
X260571362Y-105923118D01*
X260560074Y-105928869D01*
X260549510Y-105934746D01*
X260539672Y-105940749D01*
X260530558Y-105946878D01*
X260522170Y-105953133D01*
X260518248Y-105956308D01*
X260510943Y-105962910D01*
X260500868Y-105973414D01*
X260491854Y-105984640D01*
X260483901Y-105996587D01*
X260477008Y-106009255D01*
X260471176Y-106022645D01*
X260467876Y-106031972D01*
X260465049Y-106041619D01*
X260462692Y-106051587D01*
X260460807Y-106061876D01*
X260459393Y-106072485D01*
X260458450Y-106083415D01*
X260457979Y-106094666D01*
X260457920Y-106100411D01*
X260458247Y-106112850D01*
X260459229Y-106125072D01*
X260460865Y-106137076D01*
X260463156Y-106148863D01*
X260466101Y-106160432D01*
X260469701Y-106171784D01*
X260473955Y-106182918D01*
X260478864Y-106193834D01*
X260484427Y-106204533D01*
X260490645Y-106215015D01*
X260497517Y-106225278D01*
X260505044Y-106235325D01*
X260513225Y-106245154D01*
X260522060Y-106254765D01*
X260531551Y-106264159D01*
X260541695Y-106273335D01*
X260552481Y-106282090D01*
X260563895Y-106290280D01*
X260575936Y-106297904D01*
X260588605Y-106304965D01*
X260601902Y-106311460D01*
X260615827Y-106317390D01*
X260630379Y-106322756D01*
X260645560Y-106327557D01*
X260661368Y-106331793D01*
X260677803Y-106335464D01*
X260694867Y-106338571D01*
X260712558Y-106341113D01*
X260730878Y-106343089D01*
X260749824Y-106344501D01*
X260769399Y-106345349D01*
X260779422Y-106345560D01*
X260789602Y-106345631D01*
X260808012Y-106345401D01*
X260825937Y-106344711D01*
X260843374Y-106343562D01*
X260860325Y-106341952D01*
X260876790Y-106339883D01*
X260892768Y-106337353D01*
X260908259Y-106334364D01*
X260923264Y-106330915D01*
X260937782Y-106327007D01*
X260951813Y-106322638D01*
X260965358Y-106317809D01*
X260978417Y-106312521D01*
X260990989Y-106306773D01*
X261003074Y-106300564D01*
X261014672Y-106293896D01*
X261025785Y-106286769D01*
X261036389Y-106279246D01*
X261046526Y-106271393D01*
X261056196Y-106263210D01*
X261065398Y-106254696D01*
X261074132Y-106245853D01*
X261082399Y-106236680D01*
X261090199Y-106227176D01*
X261097531Y-106217342D01*
X261104395Y-106207179D01*
X261110793Y-106196685D01*
X261116722Y-106185861D01*
X261122184Y-106174707D01*
X261127179Y-106163223D01*
X261131706Y-106151408D01*
X261135765Y-106139264D01*
X261139357Y-106126789D01*
G37*
G36*
X260032313Y-105580089D02*
G01*
X260049859Y-105581300D01*
X260067011Y-105583318D01*
X260083770Y-105586143D01*
X260100137Y-105589775D01*
X260116110Y-105594214D01*
X260131690Y-105599461D01*
X260146877Y-105605514D01*
X260161671Y-105612375D01*
X260176071Y-105620043D01*
X260190079Y-105628518D01*
X260203694Y-105637800D01*
X260216915Y-105647889D01*
X260229744Y-105658786D01*
X260242179Y-105670489D01*
X260254221Y-105683000D01*
X260265697Y-105696193D01*
X260276432Y-105710004D01*
X260286427Y-105724434D01*
X260295682Y-105739481D01*
X260304196Y-105755147D01*
X260311970Y-105771431D01*
X260319003Y-105788334D01*
X260325296Y-105805854D01*
X260330849Y-105823993D01*
X260335661Y-105842750D01*
X260337790Y-105852361D01*
X260339733Y-105862126D01*
X260341491Y-105872045D01*
X260343065Y-105882119D01*
X260344453Y-105892348D01*
X260345656Y-105902731D01*
X260346674Y-105913269D01*
X260347507Y-105923961D01*
X260348155Y-105934808D01*
X260348617Y-105945809D01*
X260348895Y-105956965D01*
X260348988Y-105968276D01*
X260348706Y-105987123D01*
X260347862Y-106005561D01*
X260346455Y-106023591D01*
X260344484Y-106041213D01*
X260341951Y-106058426D01*
X260338855Y-106075231D01*
X260335197Y-106091628D01*
X260330975Y-106107616D01*
X260326190Y-106123196D01*
X260320842Y-106138368D01*
X260314932Y-106153131D01*
X260308459Y-106167486D01*
X260301422Y-106181433D01*
X260293823Y-106194971D01*
X260285661Y-106208101D01*
X260276936Y-106220823D01*
X260265130Y-106235936D01*
X260252550Y-106250075D01*
X260239195Y-106263238D01*
X260225065Y-106275426D01*
X260210160Y-106286640D01*
X260194481Y-106296878D01*
X260178027Y-106306141D01*
X260160799Y-106314429D01*
X260142795Y-106321742D01*
X260133503Y-106325033D01*
X260124017Y-106328080D01*
X260114338Y-106330883D01*
X260104464Y-106333443D01*
X260094397Y-106335759D01*
X260084137Y-106337831D01*
X260073683Y-106339659D01*
X260063035Y-106341243D01*
X260052193Y-106342584D01*
X260041158Y-106343681D01*
X260029929Y-106344534D01*
X260018506Y-106345144D01*
X260006890Y-106345509D01*
X259995080Y-106345631D01*
X259980216Y-106345429D01*
X259965668Y-106344822D01*
X259951434Y-106343811D01*
X259937515Y-106342395D01*
X259923911Y-106340574D01*
X259910621Y-106338350D01*
X259897647Y-106335720D01*
X259884987Y-106332686D01*
X259872643Y-106329248D01*
X259860613Y-106325405D01*
X259848898Y-106321157D01*
X259837497Y-106316505D01*
X259826412Y-106311448D01*
X259815641Y-106305987D01*
X259805186Y-106300122D01*
X259795045Y-106293852D01*
X259785199Y-106287164D01*
X259775689Y-106280105D01*
X259766514Y-106272677D01*
X259757676Y-106264878D01*
X259749173Y-106256709D01*
X259741006Y-106248171D01*
X259733175Y-106239261D01*
X259725680Y-106229982D01*
X259718521Y-106220333D01*
X259711697Y-106210313D01*
X259705209Y-106199923D01*
X259699057Y-106189163D01*
X259693241Y-106178033D01*
X259687761Y-106166532D01*
X259682617Y-106154662D01*
X259677808Y-106142421D01*
X259870272Y-106111158D01*
X259873381Y-106120170D01*
X259877942Y-106131446D01*
X259882976Y-106141874D01*
X259888483Y-106151454D01*
X259894463Y-106160188D01*
X259900916Y-106168074D01*
X259907843Y-106175114D01*
X259917166Y-106182721D01*
X259921069Y-106185413D01*
X259931320Y-106191381D01*
X259942274Y-106196265D01*
X259951543Y-106199391D01*
X259961264Y-106201822D01*
X259971434Y-106203558D01*
X259982055Y-106204600D01*
X259993126Y-106204947D01*
X260001375Y-106204754D01*
X260013426Y-106203743D01*
X260025091Y-106201864D01*
X260036370Y-106199117D01*
X260047262Y-106195504D01*
X260057768Y-106191023D01*
X260067887Y-106185675D01*
X260077620Y-106179460D01*
X260086967Y-106172377D01*
X260095927Y-106164427D01*
X260104501Y-106155610D01*
X260107252Y-106152488D01*
X260115007Y-106142658D01*
X260122010Y-106132132D01*
X260128262Y-106120910D01*
X260133762Y-106108994D01*
X260138511Y-106096381D01*
X260142509Y-106083073D01*
X260145756Y-106069070D01*
X260147503Y-106059348D01*
X260148916Y-106049317D01*
X260149995Y-106038977D01*
X260150740Y-106028327D01*
X260151151Y-106017369D01*
X259667550Y-106017369D01*
X259667387Y-106003589D01*
X259667416Y-105990033D01*
X259667637Y-105976702D01*
X259668050Y-105963593D01*
X259668656Y-105950709D01*
X259669453Y-105938048D01*
X259670444Y-105925611D01*
X259671626Y-105913398D01*
X259673000Y-105901408D01*
X259674211Y-105892316D01*
X259859281Y-105892316D01*
X260147732Y-105892316D01*
X260147659Y-105882523D01*
X260146935Y-105868315D01*
X260145472Y-105854688D01*
X260143271Y-105841640D01*
X260140332Y-105829171D01*
X260136654Y-105817282D01*
X260132237Y-105805973D01*
X260127083Y-105795243D01*
X260121189Y-105785093D01*
X260114557Y-105775522D01*
X260107187Y-105766531D01*
X260101943Y-105760941D01*
X260093757Y-105753233D01*
X260085190Y-105746335D01*
X260076241Y-105740250D01*
X260066909Y-105734975D01*
X260057195Y-105730512D01*
X260047100Y-105726861D01*
X260036622Y-105724021D01*
X260025762Y-105721992D01*
X260014520Y-105720775D01*
X260002896Y-105720369D01*
X259995577Y-105720541D01*
X259984860Y-105721443D01*
X259974456Y-105723117D01*
X259964366Y-105725564D01*
X259954590Y-105728784D01*
X259945127Y-105732777D01*
X259935977Y-105737543D01*
X259927140Y-105743081D01*
X259918617Y-105749392D01*
X259910408Y-105756476D01*
X259902512Y-105764333D01*
X259897506Y-105769956D01*
X259890573Y-105778985D01*
X259884331Y-105788727D01*
X259878780Y-105799181D01*
X259873921Y-105810348D01*
X259869753Y-105822228D01*
X259866276Y-105834820D01*
X259863490Y-105848125D01*
X259861396Y-105862143D01*
X259860384Y-105871884D01*
X259859679Y-105881942D01*
X259859281Y-105892316D01*
X259674211Y-105892316D01*
X259674567Y-105889642D01*
X259676326Y-105878100D01*
X259678278Y-105866781D01*
X259680421Y-105855687D01*
X259682757Y-105844816D01*
X259685285Y-105834169D01*
X259688005Y-105823745D01*
X259690918Y-105813545D01*
X259694023Y-105803569D01*
X259697320Y-105793817D01*
X259700809Y-105784288D01*
X259704491Y-105774984D01*
X259708364Y-105765903D01*
X259716689Y-105748411D01*
X259725782Y-105731815D01*
X259735644Y-105716114D01*
X259746275Y-105701308D01*
X259757676Y-105687397D01*
X259763620Y-105680770D01*
X259775910Y-105668147D01*
X259788737Y-105656367D01*
X259802100Y-105645427D01*
X259815998Y-105635329D01*
X259830434Y-105626073D01*
X259845405Y-105617658D01*
X259860912Y-105610084D01*
X259876956Y-105603352D01*
X259893536Y-105597462D01*
X259910652Y-105592413D01*
X259928304Y-105588206D01*
X259946493Y-105584840D01*
X259965217Y-105582315D01*
X259984478Y-105580632D01*
X259994310Y-105580106D01*
X260004275Y-105579791D01*
X260014375Y-105579685D01*
X260032313Y-105580089D01*
G37*
G36*
X259121189Y-105579818D02*
G01*
X259134571Y-105580514D01*
X259147725Y-105581807D01*
X259160651Y-105583697D01*
X259173350Y-105586184D01*
X259185822Y-105589267D01*
X259198066Y-105592947D01*
X259210082Y-105597224D01*
X259221871Y-105602098D01*
X259233432Y-105607568D01*
X259244766Y-105613635D01*
X259252148Y-105617961D01*
X259262857Y-105624757D01*
X259273128Y-105631923D01*
X259282962Y-105639458D01*
X259292357Y-105647362D01*
X259301314Y-105655635D01*
X259309834Y-105664277D01*
X259317915Y-105673289D01*
X259325559Y-105682670D01*
X259332764Y-105692420D01*
X259339532Y-105702540D01*
X259339532Y-105595317D01*
X259519539Y-105595317D01*
X259519539Y-106611367D01*
X259326587Y-106611367D01*
X259326587Y-106239141D01*
X259319829Y-106246304D01*
X259309768Y-106256548D01*
X259299797Y-106266191D01*
X259289916Y-106275233D01*
X259280125Y-106283674D01*
X259270424Y-106291513D01*
X259260813Y-106298752D01*
X259251293Y-106305389D01*
X259241862Y-106311426D01*
X259232522Y-106316861D01*
X259223272Y-106321695D01*
X259217062Y-106324594D01*
X259207586Y-106328591D01*
X259197917Y-106332167D01*
X259188054Y-106335323D01*
X259177999Y-106338058D01*
X259167750Y-106340372D01*
X259157308Y-106342265D01*
X259146672Y-106343738D01*
X259135844Y-106344790D01*
X259124822Y-106345421D01*
X259113607Y-106345631D01*
X259097850Y-106345234D01*
X259082390Y-106344043D01*
X259067228Y-106342059D01*
X259052363Y-106339281D01*
X259037797Y-106335709D01*
X259023528Y-106331343D01*
X259009556Y-106326183D01*
X258995882Y-106320230D01*
X258982506Y-106313483D01*
X258969428Y-106305942D01*
X258956647Y-106297607D01*
X258944164Y-106288478D01*
X258931978Y-106278556D01*
X258920091Y-106267840D01*
X258908501Y-106256330D01*
X258897208Y-106244026D01*
X258886383Y-106230975D01*
X258876257Y-106217285D01*
X258866829Y-106202956D01*
X258858099Y-106187988D01*
X258850067Y-106172380D01*
X258842734Y-106156133D01*
X258836100Y-106139247D01*
X258830163Y-106121721D01*
X258824926Y-106103557D01*
X258820386Y-106084753D01*
X258818378Y-106075111D01*
X258816545Y-106065310D01*
X258814886Y-106055349D01*
X258813402Y-106045228D01*
X258812093Y-106034947D01*
X258810958Y-106024506D01*
X258809998Y-106013906D01*
X258809212Y-106003145D01*
X258808601Y-105992225D01*
X258808164Y-105981145D01*
X258807903Y-105969906D01*
X258807828Y-105960216D01*
X259004431Y-105960216D01*
X259004605Y-105976233D01*
X259005129Y-105991677D01*
X259006002Y-106006549D01*
X259007224Y-106020849D01*
X259008796Y-106034576D01*
X259010716Y-106047731D01*
X259012986Y-106060313D01*
X259015605Y-106072323D01*
X259018573Y-106083761D01*
X259021890Y-106094626D01*
X259025557Y-106104918D01*
X259029573Y-106114638D01*
X259033937Y-106123786D01*
X259041139Y-106136434D01*
X259049127Y-106147794D01*
X259054773Y-106154715D01*
X259063579Y-106164259D01*
X259072788Y-106172799D01*
X259082401Y-106180333D01*
X259092417Y-106186864D01*
X259102837Y-106192389D01*
X259113661Y-106196910D01*
X259124888Y-106200426D01*
X259136518Y-106202938D01*
X259148553Y-106204445D01*
X259160990Y-106204947D01*
X259169670Y-106204704D01*
X259182377Y-106203427D01*
X259194711Y-106201055D01*
X259206672Y-106197588D01*
X259218259Y-106193026D01*
X259229472Y-106187370D01*
X259240312Y-106180618D01*
X259250779Y-106172772D01*
X259260871Y-106163831D01*
X259270591Y-106153796D01*
X259279937Y-106142665D01*
X259285822Y-106134614D01*
X259291328Y-106126030D01*
X259296455Y-106116914D01*
X259301201Y-106107265D01*
X259305568Y-106097084D01*
X259309555Y-106086371D01*
X259313162Y-106075125D01*
X259316390Y-106063347D01*
X259319238Y-106051037D01*
X259321706Y-106038194D01*
X259323795Y-106024819D01*
X259325503Y-106010911D01*
X259326832Y-105996472D01*
X259327782Y-105981499D01*
X259328351Y-105965995D01*
X259328541Y-105949958D01*
X259328359Y-105935949D01*
X259327812Y-105922377D01*
X259326901Y-105909243D01*
X259325625Y-105896545D01*
X259323985Y-105884284D01*
X259321981Y-105872460D01*
X259319612Y-105861073D01*
X259316878Y-105850123D01*
X259313781Y-105839610D01*
X259310318Y-105829534D01*
X259306491Y-105819895D01*
X259302300Y-105810693D01*
X259297744Y-105801928D01*
X259290228Y-105789600D01*
X259281891Y-105778255D01*
X259275965Y-105771245D01*
X259266722Y-105761579D01*
X259257054Y-105752930D01*
X259246961Y-105745299D01*
X259236443Y-105738685D01*
X259225500Y-105733088D01*
X259214132Y-105728510D01*
X259202339Y-105724948D01*
X259190121Y-105722404D01*
X259177478Y-105720878D01*
X259164410Y-105720369D01*
X259156008Y-105720600D01*
X259143728Y-105721812D01*
X259131834Y-105724064D01*
X259120326Y-105727354D01*
X259109205Y-105731683D01*
X259098470Y-105737051D01*
X259088122Y-105743458D01*
X259078160Y-105750904D01*
X259068585Y-105759389D01*
X259059395Y-105768913D01*
X259050593Y-105779476D01*
X259047753Y-105783217D01*
X259039773Y-105795176D01*
X259034905Y-105803765D01*
X259030397Y-105812846D01*
X259026249Y-105822419D01*
X259022463Y-105832484D01*
X259019037Y-105843042D01*
X259015971Y-105854092D01*
X259013266Y-105865635D01*
X259010922Y-105877669D01*
X259008939Y-105890196D01*
X259007316Y-105903216D01*
X259006054Y-105916727D01*
X259005152Y-105930731D01*
X259004611Y-105945227D01*
X259004431Y-105960216D01*
X258807828Y-105960216D01*
X258807815Y-105958506D01*
X258807902Y-105947409D01*
X258808162Y-105936466D01*
X258808595Y-105925677D01*
X258809201Y-105915042D01*
X258809980Y-105904562D01*
X258810932Y-105894235D01*
X258812058Y-105884062D01*
X258813357Y-105874044D01*
X258814828Y-105864179D01*
X258816473Y-105854469D01*
X258820283Y-105835511D01*
X258824785Y-105817169D01*
X258829980Y-105799443D01*
X258835868Y-105782334D01*
X258842448Y-105765841D01*
X258849721Y-105749964D01*
X258857687Y-105734703D01*
X258866345Y-105720059D01*
X258875696Y-105706032D01*
X258885739Y-105692620D01*
X258896475Y-105679825D01*
X258907708Y-105667699D01*
X258919240Y-105656355D01*
X258931071Y-105645793D01*
X258943202Y-105636014D01*
X258955633Y-105627017D01*
X258968363Y-105618802D01*
X258981393Y-105611370D01*
X258994722Y-105604720D01*
X259008351Y-105598853D01*
X259022280Y-105593768D01*
X259036508Y-105589465D01*
X259051035Y-105585944D01*
X259065863Y-105583206D01*
X259080989Y-105581250D01*
X259096416Y-105580077D01*
X259112142Y-105579685D01*
X259121189Y-105579818D01*
G37*
G36*
X258179134Y-106330000D02*
G01*
X258179134Y-106220823D01*
X258186820Y-106231547D01*
X258194948Y-106241829D01*
X258203518Y-106251668D01*
X258212531Y-106261066D01*
X258221985Y-106270021D01*
X258231882Y-106278534D01*
X258242221Y-106286605D01*
X258253002Y-106294233D01*
X258264226Y-106301420D01*
X258275892Y-106308164D01*
X258283914Y-106312414D01*
X258296117Y-106318350D01*
X258308452Y-106323703D01*
X258320921Y-106328471D01*
X258333522Y-106332656D01*
X258346257Y-106336256D01*
X258359125Y-106339273D01*
X258372126Y-106341706D01*
X258385260Y-106343555D01*
X258398527Y-106344820D01*
X258411927Y-106345501D01*
X258420935Y-106345631D01*
X258434542Y-106345346D01*
X258447888Y-106344489D01*
X258460972Y-106343061D01*
X258473794Y-106341063D01*
X258486354Y-106338493D01*
X258498652Y-106335353D01*
X258510689Y-106331641D01*
X258522463Y-106327359D01*
X258533976Y-106322505D01*
X258545227Y-106317080D01*
X258552581Y-106313147D01*
X258563243Y-106306826D01*
X258573338Y-106300046D01*
X258582867Y-106292807D01*
X258591828Y-106285108D01*
X258600223Y-106276950D01*
X258608051Y-106268333D01*
X258615313Y-106259256D01*
X258622008Y-106249720D01*
X258628136Y-106239724D01*
X258633697Y-106229269D01*
X258637090Y-106222044D01*
X258641760Y-106210615D01*
X258645971Y-106198399D01*
X258649723Y-106185398D01*
X258653015Y-106171612D01*
X258654955Y-106161984D01*
X258656690Y-106152008D01*
X258658221Y-106141682D01*
X258659548Y-106131006D01*
X258660671Y-106119982D01*
X258661590Y-106108609D01*
X258662305Y-106096886D01*
X258662815Y-106084814D01*
X258663121Y-106072393D01*
X258663224Y-106059623D01*
X258663224Y-105595317D01*
X258470272Y-105595317D01*
X258470272Y-105936524D01*
X258470231Y-105955621D01*
X258470108Y-105973771D01*
X258469902Y-105990975D01*
X258469615Y-106007233D01*
X258469246Y-106022544D01*
X258468795Y-106036908D01*
X258468261Y-106050326D01*
X258467646Y-106062798D01*
X258466949Y-106074323D01*
X258466169Y-106084902D01*
X258464846Y-106098995D01*
X258463338Y-106110959D01*
X258461646Y-106120794D01*
X258459769Y-106128499D01*
X258455988Y-106139138D01*
X258451359Y-106149074D01*
X258445884Y-106158306D01*
X258439562Y-106166834D01*
X258432393Y-106174658D01*
X258424378Y-106181779D01*
X258420935Y-106184431D01*
X258411717Y-106190341D01*
X258401772Y-106195250D01*
X258391100Y-106199157D01*
X258379700Y-106202062D01*
X258370056Y-106203665D01*
X258359946Y-106204627D01*
X258349371Y-106204947D01*
X258337197Y-106204516D01*
X258325344Y-106203222D01*
X258313811Y-106201066D01*
X258302599Y-106198047D01*
X258291707Y-106194166D01*
X258281136Y-106189422D01*
X258270886Y-106183816D01*
X258260956Y-106177348D01*
X258251514Y-106170242D01*
X258242851Y-106162724D01*
X258234967Y-106154793D01*
X258227861Y-106146451D01*
X258221533Y-106137696D01*
X258215984Y-106128530D01*
X258211214Y-106118951D01*
X258207222Y-106108960D01*
X258203845Y-106096851D01*
X258201607Y-106085339D01*
X258199623Y-106071746D01*
X258198441Y-106061527D01*
X258197371Y-106050382D01*
X258196414Y-106038312D01*
X258195570Y-106025317D01*
X258194838Y-106011396D01*
X258194219Y-105996550D01*
X258193712Y-105980778D01*
X258193318Y-105964081D01*
X258193037Y-105946458D01*
X258192868Y-105927910D01*
X258192812Y-105908436D01*
X258192812Y-105595317D01*
X257999860Y-105595317D01*
X257999860Y-106330000D01*
X258179134Y-106330000D01*
G37*
G36*
X257804466Y-106330000D02*
G01*
X257804466Y-105313949D01*
X257611270Y-105313949D01*
X257611270Y-106330000D01*
X257804466Y-106330000D01*
G37*
G36*
X257081018Y-105595317D02*
G01*
X257081018Y-105736001D01*
X257212909Y-105736001D01*
X257212909Y-106054982D01*
X257212895Y-106066787D01*
X257212852Y-106077960D01*
X257212781Y-106088502D01*
X257212681Y-106098411D01*
X257212477Y-106112092D01*
X257212208Y-106124352D01*
X257211876Y-106135190D01*
X257211332Y-106147431D01*
X257210491Y-106159179D01*
X257209246Y-106168066D01*
X257205873Y-106177593D01*
X257200640Y-106186022D01*
X257193547Y-106193354D01*
X257191905Y-106194689D01*
X257182960Y-106200099D01*
X257172919Y-106203505D01*
X257162943Y-106204857D01*
X257159420Y-106204947D01*
X257148504Y-106204295D01*
X257138121Y-106202754D01*
X257126570Y-106200307D01*
X257116487Y-106197696D01*
X257105656Y-106194506D01*
X257094078Y-106190735D01*
X257081751Y-106186385D01*
X257065143Y-106320230D01*
X257077937Y-106324769D01*
X257091040Y-106328862D01*
X257104452Y-106332509D01*
X257118174Y-106335709D01*
X257132204Y-106338462D01*
X257146544Y-106340769D01*
X257156276Y-106342059D01*
X257166145Y-106343150D01*
X257176151Y-106344043D01*
X257186295Y-106344738D01*
X257196576Y-106345234D01*
X257206994Y-106345532D01*
X257217550Y-106345631D01*
X257230457Y-106345349D01*
X257243043Y-106344501D01*
X257255309Y-106343089D01*
X257267254Y-106341113D01*
X257278878Y-106338571D01*
X257290182Y-106335464D01*
X257301165Y-106331793D01*
X257311828Y-106327557D01*
X257321926Y-106322874D01*
X257331337Y-106317864D01*
X257340061Y-106312525D01*
X257348098Y-106306857D01*
X257357178Y-106299312D01*
X257365185Y-106291254D01*
X257372119Y-106282682D01*
X257373377Y-106280907D01*
X257379191Y-106271482D01*
X257384420Y-106261067D01*
X257388183Y-106252022D01*
X257391572Y-106242344D01*
X257394587Y-106232032D01*
X257397228Y-106221087D01*
X257399495Y-106209509D01*
X257400488Y-106203482D01*
X257401919Y-106193708D01*
X257403159Y-106181729D01*
X257403964Y-106171297D01*
X257404662Y-106159624D01*
X257405252Y-106146710D01*
X257405735Y-106132556D01*
X257405998Y-106122430D01*
X257406212Y-106111753D01*
X257406379Y-106100525D01*
X257406499Y-106088745D01*
X257406570Y-106076413D01*
X257406594Y-106063531D01*
X257406594Y-105736001D01*
X257495254Y-105736001D01*
X257495254Y-105595317D01*
X257406594Y-105595317D01*
X257406594Y-105454633D01*
X257212909Y-105345212D01*
X257212909Y-105595317D01*
X257081018Y-105595317D01*
G37*
G36*
X256631716Y-105579872D02*
G01*
X256644854Y-105580430D01*
X256657835Y-105581360D01*
X256670660Y-105582662D01*
X256683328Y-105584337D01*
X256695840Y-105586383D01*
X256708195Y-105588802D01*
X256720394Y-105591592D01*
X256732436Y-105594755D01*
X256744322Y-105598290D01*
X256756051Y-105602197D01*
X256767624Y-105606476D01*
X256779041Y-105611127D01*
X256790301Y-105616150D01*
X256801404Y-105621545D01*
X256812351Y-105627313D01*
X256823065Y-105633433D01*
X256833471Y-105639888D01*
X256843567Y-105646676D01*
X256853353Y-105653798D01*
X256862831Y-105661254D01*
X256872000Y-105669044D01*
X256880859Y-105677168D01*
X256889410Y-105685626D01*
X256897651Y-105694418D01*
X256905583Y-105703543D01*
X256913206Y-105713003D01*
X256920520Y-105722797D01*
X256927525Y-105732924D01*
X256934221Y-105743385D01*
X256940607Y-105754181D01*
X256946685Y-105765310D01*
X256952423Y-105776631D01*
X256957790Y-105788002D01*
X256962788Y-105799422D01*
X256967415Y-105810892D01*
X256971672Y-105822411D01*
X256975559Y-105833980D01*
X256979076Y-105845599D01*
X256982222Y-105857267D01*
X256984998Y-105868985D01*
X256987405Y-105880753D01*
X256989441Y-105892570D01*
X256991106Y-105904437D01*
X256992402Y-105916353D01*
X256993328Y-105928319D01*
X256993883Y-105940335D01*
X256994068Y-105952400D01*
X256993883Y-105968034D01*
X256993328Y-105983369D01*
X256992402Y-105998405D01*
X256991106Y-106013140D01*
X256989441Y-106027576D01*
X256987405Y-106041713D01*
X256984998Y-106055550D01*
X256982222Y-106069087D01*
X256979076Y-106082325D01*
X256975559Y-106095263D01*
X256971672Y-106107902D01*
X256967415Y-106120241D01*
X256962788Y-106132280D01*
X256957790Y-106144020D01*
X256952423Y-106155460D01*
X256946685Y-106166601D01*
X256940592Y-106177427D01*
X256934160Y-106187923D01*
X256927388Y-106198088D01*
X256920276Y-106207924D01*
X256912825Y-106217429D01*
X256905034Y-106226605D01*
X256896903Y-106235450D01*
X256888433Y-106243965D01*
X256879623Y-106252150D01*
X256870473Y-106260005D01*
X256860984Y-106267530D01*
X256851155Y-106274724D01*
X256840987Y-106281589D01*
X256830479Y-106288123D01*
X256819631Y-106294328D01*
X256808443Y-106300202D01*
X256797019Y-106305703D01*
X256785523Y-106310849D01*
X256773954Y-106315641D01*
X256762312Y-106320077D01*
X256750598Y-106324159D01*
X256738811Y-106327885D01*
X256726952Y-106331257D01*
X256715020Y-106334274D01*
X256703016Y-106336936D01*
X256690940Y-106339243D01*
X256678790Y-106341195D01*
X256666569Y-106342792D01*
X256654275Y-106344034D01*
X256641908Y-106344921D01*
X256629469Y-106345454D01*
X256616957Y-106345631D01*
X256606890Y-106345524D01*
X256596931Y-106345204D01*
X256587080Y-106344669D01*
X256577336Y-106343921D01*
X256558173Y-106341784D01*
X256539440Y-106338792D01*
X256521139Y-106334945D01*
X256503270Y-106330244D01*
X256485831Y-106324687D01*
X256468824Y-106318276D01*
X256452248Y-106311010D01*
X256436103Y-106302889D01*
X256420389Y-106293913D01*
X256405107Y-106284082D01*
X256390256Y-106273396D01*
X256375836Y-106261856D01*
X256361847Y-106249460D01*
X256348290Y-106236210D01*
X256335335Y-106222311D01*
X256323217Y-106207970D01*
X256311934Y-106193185D01*
X256301487Y-106177958D01*
X256291875Y-106162289D01*
X256283100Y-106146176D01*
X256275160Y-106129621D01*
X256268056Y-106112623D01*
X256261788Y-106095183D01*
X256256355Y-106077300D01*
X256251759Y-106058974D01*
X256247998Y-106040205D01*
X256245072Y-106020994D01*
X256243923Y-106011223D01*
X256242983Y-106001340D01*
X256242252Y-105991347D01*
X256241729Y-105981244D01*
X256241416Y-105971029D01*
X256241316Y-105961193D01*
X256439881Y-105961193D01*
X256440081Y-105975841D01*
X256440682Y-105990048D01*
X256441684Y-106003814D01*
X256443087Y-106017140D01*
X256444890Y-106030024D01*
X256447094Y-106042468D01*
X256449698Y-106054472D01*
X256452704Y-106066034D01*
X256456110Y-106077156D01*
X256459916Y-106087837D01*
X256464124Y-106098077D01*
X256468732Y-106107876D01*
X256473741Y-106117234D01*
X256479151Y-106126152D01*
X256484961Y-106134629D01*
X256491172Y-106142665D01*
X256497648Y-106150207D01*
X256507720Y-106160608D01*
X256518222Y-106169914D01*
X256529153Y-106178125D01*
X256540513Y-106185241D01*
X256552302Y-106191262D01*
X256564521Y-106196189D01*
X256577169Y-106200021D01*
X256590247Y-106202758D01*
X256603754Y-106204400D01*
X256617690Y-106204947D01*
X256631630Y-106204400D01*
X256645150Y-106202758D01*
X256658249Y-106200021D01*
X256670927Y-106196189D01*
X256683184Y-106191262D01*
X256695021Y-106185241D01*
X256706437Y-106178125D01*
X256717432Y-106169914D01*
X256728007Y-106160608D01*
X256738161Y-106150207D01*
X256744696Y-106142665D01*
X256750937Y-106134635D01*
X256756775Y-106126175D01*
X256762210Y-106117286D01*
X256767243Y-106107967D01*
X256771873Y-106098220D01*
X256776100Y-106088043D01*
X256779925Y-106077436D01*
X256783347Y-106066400D01*
X256786367Y-106054935D01*
X256788984Y-106043041D01*
X256791198Y-106030717D01*
X256793010Y-106017964D01*
X256794419Y-106004782D01*
X256795426Y-105991170D01*
X256796030Y-105977129D01*
X256796231Y-105962658D01*
X256796030Y-105948189D01*
X256795426Y-105934151D01*
X256794419Y-105920544D01*
X256793010Y-105907368D01*
X256791198Y-105894623D01*
X256788984Y-105882310D01*
X256786367Y-105870428D01*
X256783347Y-105858977D01*
X256779925Y-105847958D01*
X256776100Y-105837369D01*
X256771873Y-105827212D01*
X256767243Y-105817486D01*
X256762210Y-105808192D01*
X256756775Y-105799328D01*
X256750937Y-105790896D01*
X256744696Y-105782896D01*
X256738161Y-105775324D01*
X256728007Y-105764883D01*
X256717432Y-105755540D01*
X256706437Y-105747297D01*
X256695021Y-105740153D01*
X256683184Y-105734108D01*
X256670927Y-105729162D01*
X256658249Y-105725315D01*
X256645150Y-105722568D01*
X256631630Y-105720919D01*
X256617690Y-105720369D01*
X256603754Y-105720919D01*
X256590247Y-105722568D01*
X256577169Y-105725315D01*
X256564521Y-105729162D01*
X256552302Y-105734108D01*
X256540513Y-105740153D01*
X256529153Y-105747297D01*
X256518222Y-105755540D01*
X256507720Y-105764883D01*
X256497648Y-105775324D01*
X256491172Y-105782896D01*
X256484961Y-105790891D01*
X256479151Y-105799306D01*
X256473741Y-105808140D01*
X256468732Y-105817395D01*
X256464124Y-105827069D01*
X256459916Y-105837163D01*
X256456110Y-105847677D01*
X256452704Y-105858611D01*
X256449698Y-105869964D01*
X256447094Y-105881738D01*
X256444890Y-105893931D01*
X256443087Y-105906543D01*
X256441684Y-105919576D01*
X256440682Y-105933029D01*
X256440081Y-105946901D01*
X256439881Y-105961193D01*
X256241316Y-105961193D01*
X256241311Y-105960704D01*
X256241415Y-105950441D01*
X256241725Y-105940289D01*
X256242241Y-105930249D01*
X256242964Y-105920320D01*
X256243893Y-105910503D01*
X256245029Y-105900798D01*
X256247921Y-105881722D01*
X256251639Y-105863093D01*
X256256184Y-105844910D01*
X256261554Y-105827174D01*
X256267751Y-105809884D01*
X256274774Y-105793041D01*
X256282623Y-105776644D01*
X256291298Y-105760694D01*
X256300800Y-105745191D01*
X256311128Y-105730133D01*
X256322282Y-105715523D01*
X256334262Y-105701358D01*
X256347069Y-105687641D01*
X256360522Y-105674568D01*
X256374443Y-105662339D01*
X256388831Y-105650953D01*
X256403687Y-105640410D01*
X256419011Y-105630711D01*
X256434801Y-105621856D01*
X256451060Y-105613843D01*
X256467786Y-105606674D01*
X256484979Y-105600349D01*
X256502640Y-105594867D01*
X256520768Y-105590228D01*
X256539364Y-105586433D01*
X256558427Y-105583481D01*
X256568134Y-105582321D01*
X256577958Y-105581372D01*
X256587899Y-105580634D01*
X256597957Y-105580107D01*
X256608131Y-105579791D01*
X256618422Y-105579685D01*
X256631716Y-105579872D01*
G37*
G36*
X255909874Y-106330000D02*
G01*
X256102826Y-106330000D01*
X256102826Y-105595317D01*
X255923551Y-105595317D01*
X255923551Y-105699120D01*
X255917848Y-105690128D01*
X255912217Y-105681531D01*
X255906659Y-105673329D01*
X255898457Y-105661766D01*
X255890418Y-105651092D01*
X255882543Y-105641307D01*
X255874831Y-105632410D01*
X255867282Y-105624403D01*
X255859896Y-105617284D01*
X255850302Y-105609174D01*
X255840997Y-105602644D01*
X255831621Y-105597263D01*
X255821931Y-105592600D01*
X255811929Y-105588654D01*
X255801613Y-105585425D01*
X255790985Y-105582914D01*
X255780044Y-105581120D01*
X255768789Y-105580044D01*
X255757222Y-105579685D01*
X255744900Y-105580033D01*
X255732664Y-105581077D01*
X255720514Y-105582815D01*
X255708450Y-105585250D01*
X255696471Y-105588379D01*
X255684579Y-105592205D01*
X255672772Y-105596726D01*
X255661051Y-105601942D01*
X255649417Y-105607854D01*
X255637867Y-105614461D01*
X255630216Y-105619253D01*
X255690055Y-105799016D01*
X255699152Y-105793341D01*
X255708125Y-105788225D01*
X255716972Y-105783667D01*
X255728576Y-105778458D01*
X255739958Y-105774241D01*
X255751119Y-105771016D01*
X255762058Y-105768783D01*
X255772776Y-105767543D01*
X255780669Y-105767264D01*
X255790615Y-105767607D01*
X255802510Y-105769003D01*
X255813808Y-105771471D01*
X255824511Y-105775013D01*
X255834617Y-105779629D01*
X255844126Y-105785317D01*
X255849546Y-105789246D01*
X255858031Y-105796980D01*
X255864399Y-105804412D01*
X255870392Y-105812951D01*
X255876012Y-105822597D01*
X255881257Y-105833349D01*
X255886129Y-105845208D01*
X255889537Y-105854829D01*
X255892735Y-105865072D01*
X255893754Y-105868625D01*
X255896635Y-105880446D01*
X255899232Y-105894479D01*
X255900806Y-105905063D01*
X255902255Y-105916629D01*
X255903577Y-105929178D01*
X255904773Y-105942710D01*
X255905844Y-105957224D01*
X255906788Y-105972721D01*
X255907607Y-105989201D01*
X255908300Y-106006663D01*
X255908866Y-106025108D01*
X255909307Y-106044536D01*
X255909480Y-106054618D01*
X255909622Y-106064946D01*
X255909732Y-106075520D01*
X255909811Y-106086340D01*
X255909858Y-106097405D01*
X255909874Y-106108715D01*
X255909874Y-106330000D01*
G37*
D11*
%TO.C,U3*%
X232220000Y-72220000D03*
X232670000Y-71170000D03*
X232670000Y-73270000D03*
X233720000Y-70720000D03*
D12*
X233720000Y-72220000D03*
D11*
X233720000Y-73720000D03*
X234770000Y-71170000D03*
X234770000Y-73270000D03*
X235220000Y-72220000D03*
X250210000Y-93210000D03*
X250660000Y-92160000D03*
X250660000Y-94260000D03*
X251710000Y-91710000D03*
D12*
X251710000Y-93210000D03*
D11*
X251710000Y-94710000D03*
X252760000Y-92160000D03*
X252760000Y-94260000D03*
X253210000Y-93210000D03*
D13*
X237290193Y-88804272D03*
D14*
X237290193Y-87024272D03*
X237290193Y-85244272D03*
X237290193Y-83464272D03*
X237290193Y-81684272D03*
X237290193Y-79904272D03*
X237290193Y-78124272D03*
X237290193Y-76344272D03*
X247990193Y-75454272D03*
X247990193Y-77234272D03*
X247990193Y-79014272D03*
X247990193Y-80794272D03*
X247990193Y-82574272D03*
X247990193Y-84354272D03*
X247990193Y-86134272D03*
X247990193Y-87914272D03*
%TD*%
D15*
%TO.C,U2*%
X261000000Y-68850000D03*
X261000000Y-75850000D03*
D16*
X258700000Y-78550000D03*
X263300000Y-78550000D03*
X258700000Y-77450000D03*
X263300000Y-77450000D03*
X258700000Y-73450000D03*
X263300000Y-73450000D03*
X258700000Y-70450000D03*
X263300000Y-70450000D03*
%TD*%
D17*
%TO.C,D15*%
X262600000Y-111000000D03*
X260500000Y-111000000D03*
%TD*%
D11*
%TO.C,REF\u002A\u002A*%
X259500000Y-61750000D03*
X259950000Y-60700000D03*
X259950000Y-62800000D03*
X261000000Y-60250000D03*
D12*
X261000000Y-61750000D03*
D11*
X261000000Y-63250000D03*
X262050000Y-60700000D03*
X262050000Y-62800000D03*
X262500000Y-61750000D03*
%TD*%
%TO.C,REF\u002A\u002A*%
X177700000Y-88600000D03*
X178150000Y-87550000D03*
X178150000Y-89650000D03*
X179200000Y-87100000D03*
D12*
X179200000Y-88600000D03*
D11*
X179200000Y-90100000D03*
X180250000Y-87550000D03*
X180250000Y-89650000D03*
X180700000Y-88600000D03*
%TD*%
D18*
%TO.C,SW14*%
X241935810Y-108802659D03*
D19*
X247435810Y-108802659D03*
D18*
X252935810Y-108802659D03*
D20*
X247435810Y-114702659D03*
X242435810Y-112602659D03*
X252435810Y-112602659D03*
%TD*%
D21*
%TO.C,REF\u002A\u002A*%
X214400000Y-99300000D03*
%TD*%
D11*
%TO.C,REF\u002A\u002A*%
X237400000Y-115300000D03*
X237850000Y-114250000D03*
X237850000Y-116350000D03*
X238900000Y-113800000D03*
D12*
X238900000Y-115300000D03*
D11*
X238900000Y-116800000D03*
X239950000Y-114250000D03*
X239950000Y-116350000D03*
X240400000Y-115300000D03*
%TD*%
D14*
%TO.C,*%
X227758564Y-46435769D03*
%TD*%
D18*
%TO.C,SW05*%
X165386692Y-79740283D03*
D19*
X170886692Y-79740283D03*
D18*
X176386692Y-79740283D03*
D20*
X170886692Y-85640283D03*
X165886692Y-83540283D03*
X175886692Y-83540283D03*
%TD*%
D14*
%TO.C,*%
X218708564Y-55585769D03*
%TD*%
%TO.C,*%
X238958564Y-112050000D03*
%TD*%
D21*
%TO.C,REF\u002A\u002A*%
X163400000Y-55200000D03*
%TD*%
D14*
%TO.C,*%
X196358564Y-52385769D03*
%TD*%
D21*
%TO.C,REF\u002A\u002A*%
X254900000Y-116335769D03*
%TD*%
D14*
%TO.C,*%
X218758564Y-89685769D03*
%TD*%
%TO.C,*%
X218708564Y-63785769D03*
%TD*%
%TO.C,*%
X179358564Y-97735769D03*
%TD*%
%TO.C,*%
X213408564Y-91900000D03*
%TD*%
%TO.C,*%
X255430000Y-77030000D03*
%TD*%
%TO.C,*%
X244308564Y-114715769D03*
%TD*%
D21*
%TO.C,REF\u002A\u002A*%
X195400000Y-99300000D03*
%TD*%
D14*
%TO.C,*%
X212500000Y-77750000D03*
%TD*%
D21*
%TO.C,REF\u002A\u002A*%
X223000000Y-116335769D03*
%TD*%
D14*
%TO.C,*%
X179358564Y-80435769D03*
%TD*%
D21*
%TO.C,REF\u002A\u002A*%
X163400000Y-104300000D03*
%TD*%
D14*
%TO.C,*%
X218708564Y-72635769D03*
%TD*%
%TO.C,*%
X213408564Y-68535769D03*
%TD*%
D18*
%TO.C,SW07*%
X199387225Y-70203948D03*
D19*
X204887225Y-70203948D03*
D18*
X210387225Y-70203948D03*
D20*
X204887225Y-76103948D03*
X199887225Y-74003948D03*
X209887225Y-74003948D03*
%TD*%
D11*
%TO.C,REF\u002A\u002A*%
X261750000Y-114250000D03*
X261300000Y-115300000D03*
X261300000Y-113200000D03*
X260250000Y-115750000D03*
D12*
X260250000Y-114250000D03*
D11*
X260250000Y-112750000D03*
X259200000Y-115300000D03*
X259200000Y-113200000D03*
X258750000Y-114250000D03*
%TD*%
D18*
%TO.C,SW03*%
X199387224Y-53203948D03*
D19*
X204887224Y-53203948D03*
D18*
X210387224Y-53203948D03*
D20*
X204887224Y-59103948D03*
X199887224Y-57003948D03*
X209887224Y-57003948D03*
%TD*%
D18*
%TO.C,SW06*%
X182386930Y-74759163D03*
D19*
X187886930Y-74759163D03*
D18*
X193386930Y-74759163D03*
D20*
X187886930Y-80659163D03*
X182886930Y-78559163D03*
X192886930Y-78559163D03*
%TD*%
D11*
%TO.C,REF\u002A\u002A*%
X212550000Y-83650000D03*
X213000000Y-82600000D03*
X213000000Y-84700000D03*
X214050000Y-82150000D03*
D12*
X214050000Y-83650000D03*
D11*
X214050000Y-85150000D03*
X215100000Y-82600000D03*
X215100000Y-84700000D03*
X215550000Y-83650000D03*
%TD*%
D18*
%TO.C,SW10*%
X182386931Y-91759164D03*
D19*
X187886931Y-91759164D03*
D18*
X193386931Y-91759164D03*
D20*
X187886931Y-97659164D03*
X182886931Y-95559164D03*
X192886931Y-95559164D03*
%TD*%
D22*
%TO.C,SW15*%
X262500000Y-101750000D03*
X262500000Y-108250000D03*
X258000000Y-101750000D03*
X258000000Y-108250000D03*
%TD*%
D14*
%TO.C,*%
X179408564Y-92085769D03*
%TD*%
D21*
%TO.C,REF\u002A\u002A*%
X197400000Y-45700000D03*
%TD*%
D18*
%TO.C,SW09*%
X165386693Y-96740284D03*
D19*
X170886693Y-96740284D03*
D18*
X176386693Y-96740284D03*
D20*
X170886693Y-102640284D03*
X165886693Y-100540284D03*
X175886693Y-100540284D03*
%TD*%
D23*
%TO.C,REF\u002A\u002A*%
X254750000Y-46500000D03*
%TD*%
D11*
%TO.C,REF\u002A\u002A*%
X212650000Y-46950000D03*
X213100000Y-45900000D03*
X213100000Y-48000000D03*
X214150000Y-45450000D03*
D12*
X214150000Y-46950000D03*
D11*
X214150000Y-48450000D03*
X215200000Y-45900000D03*
X215200000Y-48000000D03*
X215650000Y-46950000D03*
%TD*%
D14*
%TO.C,*%
X196358564Y-92385769D03*
%TD*%
D21*
%TO.C,REF\u002A\u002A*%
X263500000Y-116250000D03*
%TD*%
D14*
%TO.C,*%
X196358564Y-58635769D03*
%TD*%
%TO.C,*%
X218750000Y-80750000D03*
%TD*%
D18*
%TO.C,SW13*%
X224935575Y-108794157D03*
D19*
X230435575Y-108794157D03*
D18*
X235935575Y-108794157D03*
D20*
X230435575Y-114694157D03*
X225435575Y-112594157D03*
X235435575Y-112594157D03*
%TD*%
D14*
%TO.C,*%
X179358564Y-74835769D03*
%TD*%
D18*
%TO.C,SW12*%
X216399777Y-91787819D03*
D19*
X221899777Y-91787819D03*
D18*
X227399777Y-91787819D03*
D20*
X221899777Y-97687819D03*
X216899777Y-95587819D03*
X226899777Y-95587819D03*
%TD*%
D18*
%TO.C,SW08*%
X216399777Y-74787819D03*
D19*
X221899777Y-74787819D03*
D18*
X227399777Y-74787819D03*
D20*
X221899777Y-80687819D03*
X216899777Y-78587819D03*
X226899777Y-78587819D03*
%TD*%
D14*
%TO.C,*%
X256500000Y-78750000D03*
%TD*%
D18*
%TO.C,SW11*%
X199387226Y-87203949D03*
D19*
X204887226Y-87203949D03*
D18*
X210387226Y-87203949D03*
D20*
X204887226Y-93103949D03*
X199887226Y-91003949D03*
X209887226Y-91003949D03*
%TD*%
D14*
%TO.C,*%
X213400000Y-53150000D03*
%TD*%
%TO.C,*%
X218758564Y-97735769D03*
%TD*%
D21*
%TO.C,REF\u002A\u002A*%
X263600000Y-45550000D03*
%TD*%
D14*
%TO.C,*%
X196358564Y-74985769D03*
%TD*%
%TO.C,*%
X220958564Y-46535769D03*
%TD*%
D18*
%TO.C,SW02*%
X182386931Y-57759164D03*
D19*
X187886931Y-57759164D03*
D18*
X193386931Y-57759164D03*
D20*
X187886931Y-63659164D03*
X182886931Y-61559164D03*
X192886931Y-61559164D03*
%TD*%
D14*
%TO.C,*%
X213350000Y-59100000D03*
%TD*%
D11*
%TO.C,REF\u002A\u002A*%
X178550000Y-66600000D03*
X179000000Y-65550000D03*
X179000000Y-67650000D03*
X180050000Y-65100000D03*
D12*
X180050000Y-66600000D03*
D11*
X180050000Y-68100000D03*
X181100000Y-65550000D03*
X181100000Y-67650000D03*
X181550000Y-66600000D03*
%TD*%
D14*
%TO.C,*%
X196358564Y-86435769D03*
%TD*%
%TO.C,*%
X238908564Y-106185769D03*
%TD*%
%TO.C,*%
X213408564Y-74435769D03*
%TD*%
D18*
%TO.C,SW04*%
X216399778Y-57787820D03*
D19*
X221899778Y-57787820D03*
D18*
X227399778Y-57787820D03*
D20*
X221899778Y-63687820D03*
X216899778Y-61587820D03*
X226899778Y-61587820D03*
%TD*%
D21*
%TO.C,REF\u002A\u002A*%
X180400000Y-50200000D03*
%TD*%
D14*
%TO.C,*%
X196408564Y-69135769D03*
%TD*%
%TO.C,*%
X179408564Y-57935769D03*
%TD*%
%TO.C,*%
X179408564Y-63235769D03*
%TD*%
%TO.C,*%
X213400000Y-86600000D03*
%TD*%
%TO.C,*%
X244308564Y-107235769D03*
%TD*%
D21*
%TO.C,REF\u002A\u002A*%
X178400000Y-104200000D03*
%TD*%
D14*
%TO.C,*%
X227500000Y-48675000D03*
%TD*%
D18*
%TO.C,SW01*%
X165386692Y-62740284D03*
D19*
X170886692Y-62740284D03*
D18*
X176386692Y-62740284D03*
D20*
X170886692Y-68640284D03*
X165886692Y-66540284D03*
X175886692Y-66540284D03*
%TD*%
D11*
%TO.C,REF\u002A\u002A*%
X195550000Y-79050000D03*
X196000000Y-78000000D03*
X196000000Y-80100000D03*
X197050000Y-77550000D03*
D12*
X197050000Y-79050000D03*
D11*
X197050000Y-80550000D03*
X198100000Y-78000000D03*
X198100000Y-80100000D03*
X198550000Y-79050000D03*
%TD*%
D24*
%TO.C,C6*%
X182800000Y-70575000D03*
X182800000Y-69025000D03*
%TD*%
D25*
%TO.C,D14*%
X244308564Y-108685769D03*
X244308564Y-110785769D03*
%TD*%
D24*
%TO.C,C2*%
X183500000Y-53650000D03*
X183500000Y-52100000D03*
%TD*%
D25*
%TO.C,D06*%
X196358564Y-71235769D03*
X196358564Y-73335769D03*
%TD*%
D24*
%TO.C,C3*%
X200500000Y-49250000D03*
X200500000Y-47700000D03*
%TD*%
%TO.C,C13*%
X225250000Y-104800000D03*
X225250000Y-103250000D03*
%TD*%
D26*
%TO.C,C4*%
X222525000Y-49700000D03*
X220975000Y-49700000D03*
%TD*%
D25*
%TO.C,D07*%
X213408564Y-70485769D03*
X213408564Y-72585769D03*
%TD*%
D27*
%TO.C,R1*%
X225408564Y-46535769D03*
X223508564Y-46535769D03*
%TD*%
D28*
%TO.C,LED02*%
X186770000Y-53850000D03*
D29*
X186300000Y-53900000D03*
D30*
X187225000Y-52345000D03*
D29*
X186300000Y-52150000D03*
X189400000Y-52150000D03*
D31*
X188825000Y-52450000D03*
D29*
X189400000Y-53900000D03*
D32*
X188600000Y-53900000D03*
D33*
X187925000Y-53850000D03*
%TD*%
D24*
%TO.C,C14*%
X242000000Y-104750000D03*
X242000000Y-103200000D03*
%TD*%
D28*
%TO.C,LED09*%
X169745000Y-92905000D03*
D29*
X169275000Y-92955000D03*
D30*
X170200000Y-91400000D03*
D29*
X169275000Y-91205000D03*
X172375000Y-91205000D03*
D31*
X171800000Y-91505000D03*
D29*
X172375000Y-92955000D03*
D32*
X171575000Y-92955000D03*
D33*
X170900000Y-92905000D03*
%TD*%
D34*
%TO.C,IC1*%
X258600000Y-86800000D03*
X259550000Y-86800000D03*
X260500000Y-86800000D03*
X260500000Y-89500000D03*
X258600000Y-89500000D03*
%TD*%
D25*
%TO.C,D13*%
X238908564Y-107835769D03*
X238908564Y-109935769D03*
%TD*%
D24*
%TO.C,C11*%
X199750000Y-83025000D03*
X199750000Y-81475000D03*
%TD*%
D25*
%TO.C,D08*%
X218708564Y-74385769D03*
X218708564Y-76485769D03*
%TD*%
D28*
%TO.C,LED12*%
X220870000Y-87950000D03*
D29*
X220400000Y-88000000D03*
D30*
X221325000Y-86445000D03*
D29*
X220400000Y-86250000D03*
X223500000Y-86250000D03*
D31*
X222925000Y-86550000D03*
D29*
X223500000Y-88000000D03*
D32*
X222700000Y-88000000D03*
D33*
X222025000Y-87950000D03*
%TD*%
D24*
%TO.C,C5*%
X166200000Y-75800000D03*
X166200000Y-74250000D03*
%TD*%
D35*
%TO.C,C16*%
X258500000Y-82000000D03*
X260050000Y-82000000D03*
%TD*%
D36*
%TO.C,U1*%
X233525000Y-46280000D03*
X233525000Y-48820000D03*
X233525000Y-51360000D03*
X233525000Y-53900000D03*
X233525000Y-56440000D03*
X233525000Y-58980000D03*
X233525000Y-61520000D03*
X233525000Y-64060000D03*
X233525000Y-66600000D03*
D37*
X236880000Y-67395000D03*
X239420000Y-67395000D03*
X241960000Y-67395000D03*
X244500000Y-67395000D03*
X247040000Y-67395000D03*
D36*
X250395000Y-66600000D03*
X250395000Y-64060000D03*
X250395000Y-61520000D03*
X250395000Y-58980000D03*
X250395000Y-56440000D03*
X250395000Y-53900000D03*
X250395000Y-51360000D03*
X250395000Y-48820000D03*
X250395000Y-46280000D03*
%TD*%
D28*
%TO.C,LED10*%
X186770000Y-87900000D03*
D29*
X186300000Y-87950000D03*
D30*
X187225000Y-86395000D03*
D29*
X186300000Y-86200000D03*
X189400000Y-86200000D03*
D31*
X188825000Y-86500000D03*
D29*
X189400000Y-87950000D03*
D32*
X188600000Y-87950000D03*
D33*
X187925000Y-87900000D03*
%TD*%
D24*
%TO.C,C1*%
X166370000Y-58825000D03*
X166370000Y-57275000D03*
%TD*%
D28*
%TO.C,LED04*%
X220820000Y-53900000D03*
D29*
X220350000Y-53950000D03*
D30*
X221275000Y-52395000D03*
D29*
X220350000Y-52200000D03*
X223450000Y-52200000D03*
D31*
X222875000Y-52500000D03*
D29*
X223450000Y-53950000D03*
D32*
X222650000Y-53950000D03*
D33*
X221975000Y-53900000D03*
%TD*%
D27*
%TO.C,R5*%
X242550000Y-72750000D03*
X244450000Y-72750000D03*
%TD*%
%TO.C,R3*%
X260450000Y-94750000D03*
X258550000Y-94750000D03*
%TD*%
D24*
%TO.C,C7*%
X200100000Y-66250000D03*
X200100000Y-64700000D03*
%TD*%
D25*
%TO.C,D04*%
X218708564Y-57285769D03*
X218708564Y-59385769D03*
%TD*%
D24*
%TO.C,C10*%
X183100000Y-87775000D03*
X183100000Y-86225000D03*
%TD*%
D28*
%TO.C,LED05*%
X169745000Y-75905000D03*
D29*
X169275000Y-75955000D03*
D30*
X170200000Y-74400000D03*
D29*
X169275000Y-74205000D03*
X172375000Y-74205000D03*
D31*
X171800000Y-74505000D03*
D29*
X172375000Y-75955000D03*
D32*
X171575000Y-75955000D03*
D33*
X170900000Y-75905000D03*
%TD*%
D25*
%TO.C,D01*%
X179408564Y-59585769D03*
X179408564Y-61685769D03*
%TD*%
%TO.C,D10*%
X196358564Y-88335769D03*
X196358564Y-90435769D03*
%TD*%
D28*
%TO.C,LED06*%
X186770000Y-70850000D03*
D29*
X186300000Y-70900000D03*
D30*
X187225000Y-69345000D03*
D29*
X186300000Y-69150000D03*
X189400000Y-69150000D03*
D31*
X188825000Y-69450000D03*
D29*
X189400000Y-70900000D03*
D32*
X188600000Y-70900000D03*
D33*
X187925000Y-70850000D03*
%TD*%
D38*
%TO.C,J1*%
X257600000Y-48945000D03*
X257600000Y-49745000D03*
D39*
X257600000Y-50895000D03*
X257600000Y-51895000D03*
X257600000Y-52395000D03*
X257600000Y-53395000D03*
D38*
X257600000Y-54545000D03*
X257600000Y-55345000D03*
X257600000Y-55345000D03*
X257600000Y-54545000D03*
D39*
X257600000Y-53895000D03*
X257600000Y-52895000D03*
X257600000Y-51395000D03*
X257600000Y-50395000D03*
D38*
X257600000Y-49745000D03*
X257600000Y-48945000D03*
D40*
X262750000Y-46525000D03*
D41*
X258750000Y-46525000D03*
D40*
X262750000Y-57765000D03*
D41*
X258750000Y-57765000D03*
%TD*%
D42*
%TO.C,R4*%
X251000000Y-88200000D03*
X251000000Y-86300000D03*
%TD*%
D28*
%TO.C,LED07*%
X203770000Y-66300000D03*
D29*
X203300000Y-66350000D03*
D30*
X204225000Y-64795000D03*
D29*
X203300000Y-64600000D03*
X206400000Y-64600000D03*
D31*
X205825000Y-64900000D03*
D29*
X206400000Y-66350000D03*
D32*
X205600000Y-66350000D03*
D33*
X204925000Y-66300000D03*
%TD*%
D27*
%TO.C,R2*%
X260550000Y-92250000D03*
X262450000Y-92250000D03*
%TD*%
D25*
%TO.C,D05*%
X179358564Y-76485769D03*
X179358564Y-78585769D03*
%TD*%
D28*
%TO.C,LED03*%
X203820000Y-49400000D03*
D29*
X203350000Y-49450000D03*
D30*
X204275000Y-47895000D03*
D29*
X203350000Y-47700000D03*
X206450000Y-47700000D03*
D31*
X205875000Y-48000000D03*
D29*
X206450000Y-49450000D03*
D32*
X205650000Y-49450000D03*
D33*
X204975000Y-49400000D03*
%TD*%
D25*
%TO.C,D09*%
X179408564Y-93985769D03*
X179408564Y-96085769D03*
%TD*%
D35*
%TO.C,C15*%
X258700000Y-97500000D03*
X260250000Y-97500000D03*
%TD*%
D28*
%TO.C,LED08*%
X220820000Y-70900000D03*
D29*
X220350000Y-70950000D03*
D30*
X221275000Y-69395000D03*
D29*
X220350000Y-69200000D03*
X223450000Y-69200000D03*
D31*
X222875000Y-69500000D03*
D29*
X223450000Y-70950000D03*
D32*
X222650000Y-70950000D03*
D33*
X221975000Y-70900000D03*
%TD*%
D28*
%TO.C,LED11*%
X203795000Y-83355000D03*
D29*
X203325000Y-83405000D03*
D30*
X204250000Y-81850000D03*
D29*
X203325000Y-81655000D03*
X206425000Y-81655000D03*
D31*
X205850000Y-81955000D03*
D29*
X206425000Y-83405000D03*
D32*
X205625000Y-83405000D03*
D33*
X204950000Y-83355000D03*
%TD*%
D25*
%TO.C,D12*%
X218758564Y-91285769D03*
X218758564Y-93385769D03*
%TD*%
D26*
%TO.C,C8*%
X222075000Y-67100000D03*
X220525000Y-67100000D03*
%TD*%
D28*
%TO.C,LED14*%
X246370000Y-104950000D03*
D29*
X245900000Y-105000000D03*
D30*
X246825000Y-103445000D03*
D29*
X245900000Y-103250000D03*
X249000000Y-103250000D03*
D31*
X248425000Y-103550000D03*
D29*
X249000000Y-105000000D03*
D32*
X248200000Y-105000000D03*
D33*
X247525000Y-104950000D03*
%TD*%
D28*
%TO.C,LED13*%
X229320000Y-104950000D03*
D29*
X228850000Y-105000000D03*
D30*
X229775000Y-103445000D03*
D29*
X228850000Y-103250000D03*
X231950000Y-103250000D03*
D31*
X231375000Y-103550000D03*
D29*
X231950000Y-105000000D03*
D32*
X231150000Y-105000000D03*
D33*
X230475000Y-104950000D03*
%TD*%
D28*
%TO.C,LED01*%
X169820000Y-58900000D03*
D29*
X169350000Y-58950000D03*
D30*
X170275000Y-57395000D03*
D29*
X169350000Y-57200000D03*
X172450000Y-57200000D03*
D31*
X171875000Y-57500000D03*
D29*
X172450000Y-58950000D03*
D32*
X171650000Y-58950000D03*
D33*
X170975000Y-58900000D03*
%TD*%
D43*
%TO.C,C17*%
X234750000Y-85200000D03*
X234750000Y-86750000D03*
%TD*%
D25*
%TO.C,D11*%
X213400000Y-88200000D03*
X213400000Y-90300000D03*
%TD*%
%TO.C,D02*%
X196358564Y-54485769D03*
X196358564Y-56585769D03*
%TD*%
D24*
%TO.C,C9*%
X165700000Y-92750000D03*
X165700000Y-91200000D03*
%TD*%
D26*
%TO.C,C12*%
X222200000Y-84250000D03*
X220650000Y-84250000D03*
%TD*%
D25*
%TO.C,D03*%
X213358564Y-54950000D03*
X213358564Y-57050000D03*
%TD*%
M02*
