%TF.GenerationSoftware,KiCad,Pcbnew,7.0.2*%
%TF.CreationDate,2024-03-04T12:18:32-06:00*%
%TF.ProjectId,01_capsule5_left,30315f63-6170-4737-956c-65355f6c6566,v1.0.0*%
%TF.SameCoordinates,Original*%
%TF.FileFunction,Copper,L1,Top*%
%TF.FilePolarity,Positive*%
%FSLAX46Y46*%
G04 Gerber Fmt 4.6, Leading zero omitted, Abs format (unit mm)*
G04 Created by KiCad (PCBNEW 7.0.2) date 2024-03-04 12:18:32*
%MOMM*%
%LPD*%
G01*
G04 APERTURE LIST*
%TA.AperFunction,NonConductor*%
%ADD10C,0.700000*%
%TD*%
%ADD11C,0.750000*%
%TA.AperFunction,NonConductor*%
%ADD12C,0.750000*%
%TD*%
%TA.AperFunction,ComponentPad*%
%ADD13C,0.400000*%
%TD*%
%TA.AperFunction,ComponentPad*%
%ADD14C,3.600000*%
%TD*%
%TA.AperFunction,ComponentPad*%
%ADD15R,1.200000X1.200000*%
%TD*%
%TA.AperFunction,ComponentPad*%
%ADD16C,1.200000*%
%TD*%
%TA.AperFunction,ComponentPad*%
%ADD17O,1.600000X2.000000*%
%TD*%
%TA.AperFunction,WasherPad*%
%ADD18C,1.900000*%
%TD*%
%TA.AperFunction,WasherPad*%
%ADD19C,3.500000*%
%TD*%
%TA.AperFunction,ComponentPad*%
%ADD20O,2.200000X1.600000*%
%TD*%
%TA.AperFunction,ComponentPad*%
%ADD21C,1.000000*%
%TD*%
%TA.AperFunction,ComponentPad*%
%ADD22C,2.000000*%
%TD*%
%TA.AperFunction,ComponentPad*%
%ADD23C,2.500000*%
%TD*%
%TA.AperFunction,ComponentPad*%
%ADD24O,3.130000X1.500000*%
%TD*%
%TA.AperFunction,ComponentPad*%
%ADD25O,1.500000X3.090000*%
%TD*%
%TA.AperFunction,ComponentPad*%
%ADD26O,2.200000X1.000000*%
%TD*%
%TA.AperFunction,ComponentPad*%
%ADD27O,1.800000X1.000000*%
%TD*%
%TA.AperFunction,ViaPad*%
%ADD28C,0.800000*%
%TD*%
%TA.AperFunction,ViaPad*%
%ADD29C,0.600000*%
%TD*%
%TA.AperFunction,Conductor*%
%ADD30C,0.250000*%
%TD*%
%TA.AperFunction,Conductor*%
%ADD31C,0.400000*%
%TD*%
%TA.AperFunction,Conductor*%
%ADD32C,0.200000*%
%TD*%
G04 APERTURE END LIST*
D10*
X252175000Y-44900000D02*
X263325000Y-44900000D01*
X197584869Y-44930782D02*
X231725000Y-44925000D01*
X196580950Y-45934938D02*
X196569050Y-48490062D01*
X197584869Y-44930782D02*
G75*
G03*
X196580950Y-45934938I317J-1004236D01*
G01*
X195565131Y-49494218D02*
G75*
G03*
X196569050Y-48490062I-317J1004236D01*
G01*
X195565131Y-49494218D02*
X180559869Y-49455782D01*
X179555950Y-50459938D02*
X179553919Y-53445844D01*
X180559869Y-49455782D02*
G75*
G03*
X179555950Y-50459938I317J-1004236D01*
G01*
X178550000Y-54450000D02*
X163534869Y-54480782D01*
X178550000Y-54450000D02*
G75*
G03*
X179553919Y-53445844I-317J1004236D01*
G01*
X264329155Y-45903919D02*
G75*
G03*
X263325000Y-44900000I-1004252J-333D01*
G01*
X264329155Y-45903919D02*
X264325000Y-67550000D01*
X264350000Y-80250000D02*
X264369055Y-116090067D01*
X263365136Y-117094222D02*
X223134933Y-117125000D01*
X263365136Y-117094222D02*
G75*
G03*
X264369055Y-116090067I-333J1004252D01*
G01*
X222129155Y-101103919D02*
X222130778Y-116121081D01*
X222130778Y-116121081D02*
G75*
G03*
X223134933Y-117125000I1004252J333D01*
G01*
X214604155Y-100103919D02*
X221125000Y-100100000D01*
X222129155Y-101103919D02*
G75*
G03*
X221125000Y-100100000I-1004233J-314D01*
G01*
X213594222Y-96509864D02*
X213600000Y-99100000D01*
X213600000Y-99100000D02*
G75*
G03*
X214604155Y-100103919I1004233J314D01*
G01*
X197178919Y-95495845D02*
X212590067Y-95505945D01*
X213594222Y-96509864D02*
G75*
G03*
X212590067Y-95505945I-1004252J-333D01*
G01*
X196175000Y-96500000D02*
X196169055Y-99040067D01*
X197178919Y-95495845D02*
G75*
G03*
X196175000Y-96500000I333J-1004252D01*
G01*
X195165136Y-100044222D02*
X180228919Y-100045845D01*
X195165136Y-100044222D02*
G75*
G03*
X196169055Y-99040067I-333J1004252D01*
G01*
X180209875Y-100030789D02*
G75*
G03*
X179205956Y-101034944I295J-1004214D01*
G01*
X179219050Y-104015061D02*
X179205956Y-101034944D01*
X178215131Y-105019216D02*
G75*
G03*
X179219050Y-104015061I-314J1004233D01*
G01*
X178215131Y-105019216D02*
X163559938Y-105019049D01*
X162555784Y-104015130D02*
G75*
G03*
X163559938Y-105019049I1004231J312D01*
G01*
X163534869Y-54480783D02*
G75*
G03*
X162530950Y-55484938I315J-1004234D01*
G01*
X162555783Y-104015130D02*
X162530950Y-55484938D01*
D11*
D12*
G36*
X236588101Y-52131479D02*
G01*
X236596161Y-52131479D01*
X236616170Y-52094133D01*
X236637455Y-52058298D01*
X236660014Y-52023974D01*
X236683848Y-51991161D01*
X236708958Y-51959860D01*
X236735343Y-51930070D01*
X236763002Y-51901791D01*
X236791937Y-51875024D01*
X236822147Y-51849768D01*
X236853632Y-51826023D01*
X236875331Y-51811032D01*
X236908750Y-51790081D01*
X236942788Y-51771190D01*
X236977444Y-51754360D01*
X237012718Y-51739591D01*
X237048610Y-51726883D01*
X237085120Y-51716236D01*
X237122249Y-51707649D01*
X237159996Y-51701123D01*
X237198361Y-51696658D01*
X237237345Y-51694254D01*
X237263677Y-51693796D01*
X237312956Y-51695177D01*
X237360775Y-51699322D01*
X237407134Y-51706229D01*
X237452034Y-51715900D01*
X237495474Y-51728333D01*
X237537454Y-51743530D01*
X237577975Y-51761489D01*
X237617035Y-51782212D01*
X237654636Y-51805697D01*
X237690778Y-51831946D01*
X237725459Y-51860957D01*
X237758681Y-51892732D01*
X237790443Y-51927269D01*
X237820745Y-51964569D01*
X237849588Y-52004633D01*
X237876971Y-52047459D01*
X237902791Y-52092816D01*
X237926945Y-52140714D01*
X237949434Y-52191154D01*
X237970256Y-52244136D01*
X237989413Y-52299659D01*
X238006904Y-52357724D01*
X238022729Y-52418331D01*
X238036889Y-52481479D01*
X238049382Y-52547169D01*
X238060210Y-52615400D01*
X238069372Y-52686174D01*
X238076868Y-52759488D01*
X238082699Y-52835345D01*
X238086863Y-52913743D01*
X238088321Y-52953895D01*
X238089362Y-52994683D01*
X238089987Y-53036106D01*
X238090195Y-53078164D01*
X238089748Y-53135271D01*
X238088409Y-53191554D01*
X238086176Y-53247012D01*
X238083051Y-53301646D01*
X238079032Y-53355456D01*
X238074121Y-53408442D01*
X238068316Y-53460603D01*
X238061618Y-53511939D01*
X238054028Y-53562452D01*
X238045544Y-53612140D01*
X238036168Y-53661004D01*
X238025898Y-53709043D01*
X238014735Y-53756259D01*
X238002680Y-53802650D01*
X237989731Y-53848216D01*
X237975889Y-53892958D01*
X237961226Y-53936540D01*
X237945813Y-53978871D01*
X237929650Y-54019949D01*
X237912737Y-54059776D01*
X237895074Y-54098351D01*
X237876662Y-54135675D01*
X237857499Y-54171746D01*
X237837587Y-54206566D01*
X237816924Y-54240134D01*
X237795512Y-54272451D01*
X237773350Y-54303515D01*
X237750438Y-54333328D01*
X237726776Y-54361889D01*
X237702364Y-54389199D01*
X237677202Y-54415256D01*
X237651290Y-54440062D01*
X237624786Y-54463368D01*
X237597847Y-54485171D01*
X237570473Y-54505470D01*
X237542663Y-54524265D01*
X237514419Y-54541557D01*
X237485740Y-54557345D01*
X237456625Y-54571629D01*
X237427076Y-54584410D01*
X237397091Y-54595687D01*
X237366671Y-54605461D01*
X237335817Y-54613730D01*
X237304527Y-54620497D01*
X237272802Y-54625759D01*
X237240642Y-54629518D01*
X237208047Y-54631774D01*
X237175017Y-54632526D01*
X237137339Y-54631452D01*
X237100691Y-54628232D01*
X237065073Y-54622866D01*
X237030486Y-54615352D01*
X236996930Y-54605692D01*
X236964403Y-54593886D01*
X236932907Y-54579932D01*
X236902442Y-54563832D01*
X236873007Y-54545586D01*
X236844602Y-54525192D01*
X236826238Y-54510404D01*
X236799564Y-54486880D01*
X236773945Y-54462101D01*
X236749383Y-54436070D01*
X236725877Y-54408784D01*
X236703427Y-54380245D01*
X236682034Y-54350452D01*
X236661696Y-54319405D01*
X236642415Y-54287105D01*
X236624190Y-54253551D01*
X236607021Y-54218744D01*
X236596161Y-54194842D01*
X236588101Y-54194842D01*
X236588101Y-54570000D01*
X235710293Y-54570000D01*
X235710293Y-53250111D01*
X236571981Y-53250111D01*
X236572683Y-53292876D01*
X236574789Y-53333974D01*
X236578299Y-53373407D01*
X236585163Y-53423393D01*
X236594522Y-53470417D01*
X236606377Y-53514480D01*
X236620729Y-53555582D01*
X236637576Y-53593722D01*
X236651849Y-53620383D01*
X236672869Y-53652440D01*
X236695629Y-53680223D01*
X236720130Y-53703731D01*
X236746371Y-53722965D01*
X236774352Y-53737925D01*
X236804073Y-53748611D01*
X236835535Y-53755022D01*
X236868736Y-53757159D01*
X236907182Y-53754549D01*
X236943383Y-53746718D01*
X236977341Y-53733666D01*
X237009054Y-53715394D01*
X237038523Y-53691901D01*
X237065749Y-53663187D01*
X237090730Y-53629252D01*
X237113468Y-53590097D01*
X237133732Y-53545920D01*
X237147158Y-53509942D01*
X237159063Y-53471525D01*
X237169448Y-53430670D01*
X237178314Y-53387376D01*
X237185660Y-53341643D01*
X237191486Y-53293472D01*
X237195792Y-53242862D01*
X237198579Y-53189814D01*
X237199845Y-53134327D01*
X237199930Y-53115289D01*
X237199215Y-53065549D01*
X237197070Y-53018180D01*
X237193496Y-52973180D01*
X237188492Y-52930550D01*
X237182059Y-52890290D01*
X237174195Y-52852400D01*
X237161487Y-52805566D01*
X237146237Y-52762946D01*
X237128446Y-52724539D01*
X237118597Y-52706915D01*
X237097153Y-52674629D01*
X237073488Y-52646648D01*
X237047602Y-52622972D01*
X237019495Y-52603600D01*
X236989167Y-52588534D01*
X236956618Y-52577772D01*
X236921848Y-52571314D01*
X236884856Y-52569162D01*
X236852032Y-52571421D01*
X236820605Y-52578199D01*
X236790575Y-52589495D01*
X236761941Y-52605310D01*
X236734704Y-52625643D01*
X236708864Y-52650495D01*
X236684421Y-52679865D01*
X236661374Y-52713754D01*
X236640423Y-52751001D01*
X236622265Y-52790935D01*
X236606900Y-52833555D01*
X236594330Y-52878862D01*
X236584552Y-52926856D01*
X236577568Y-52977536D01*
X236574164Y-53017310D01*
X236572331Y-53058594D01*
X236571981Y-53086957D01*
X236571981Y-53250111D01*
X235710293Y-53250111D01*
X235710293Y-50380746D01*
X236588101Y-50380746D01*
X236588101Y-52131479D01*
G37*
G36*
X239993824Y-52756741D02*
G01*
X239966758Y-52733415D01*
X239939545Y-52714008D01*
X239909036Y-52695535D01*
X239880262Y-52680445D01*
X239859734Y-52670767D01*
X239829140Y-52657486D01*
X239800555Y-52646953D01*
X239769745Y-52638138D01*
X239737883Y-52632642D01*
X239719783Y-52631688D01*
X239667078Y-52634375D01*
X239617774Y-52642435D01*
X239571869Y-52655868D01*
X239529365Y-52674675D01*
X239490262Y-52698855D01*
X239454558Y-52728408D01*
X239422255Y-52763335D01*
X239393353Y-52803635D01*
X239367850Y-52849309D01*
X239345748Y-52900355D01*
X239327046Y-52956775D01*
X239311745Y-53018569D01*
X239299844Y-53085736D01*
X239291343Y-53158276D01*
X239286243Y-53236189D01*
X239284967Y-53277161D01*
X239284542Y-53319476D01*
X239284542Y-54570000D01*
X238406734Y-54570000D01*
X238406734Y-51756322D01*
X239284542Y-51756322D01*
X239284542Y-52256531D01*
X239292602Y-52256531D01*
X239308307Y-52206033D01*
X239325197Y-52157853D01*
X239343272Y-52111992D01*
X239362532Y-52068449D01*
X239382977Y-52027224D01*
X239404607Y-51988318D01*
X239427422Y-51951730D01*
X239451421Y-51917461D01*
X239476606Y-51885510D01*
X239502976Y-51855878D01*
X239521214Y-51837411D01*
X239549535Y-51811745D01*
X239578719Y-51788604D01*
X239608765Y-51767987D01*
X239639675Y-51749895D01*
X239671448Y-51734328D01*
X239704084Y-51721285D01*
X239737583Y-51710766D01*
X239771944Y-51702772D01*
X239807169Y-51697302D01*
X239843257Y-51694357D01*
X239867794Y-51693796D01*
X239898619Y-51695385D01*
X239931615Y-51701094D01*
X239962229Y-51710956D01*
X239990462Y-51724969D01*
X239993824Y-51727013D01*
X239993824Y-52756741D01*
G37*
G36*
X240658408Y-55195261D02*
G01*
X239885380Y-55195261D01*
X241346441Y-50630851D01*
X242119469Y-50630851D01*
X240658408Y-55195261D01*
G37*
G36*
X243613503Y-54570000D02*
G01*
X243143824Y-53131898D01*
X243135764Y-53131898D01*
X243135764Y-54570000D01*
X242257955Y-54570000D01*
X242257955Y-50380746D01*
X243135764Y-50380746D01*
X243135764Y-53069371D01*
X243143824Y-53069371D01*
X243570272Y-51756322D01*
X244559455Y-51756322D01*
X243988660Y-53044947D01*
X244592428Y-54570000D01*
X243613503Y-54570000D01*
G37*
G36*
X246114305Y-54570000D02*
G01*
X246114305Y-53052763D01*
X246113790Y-53005682D01*
X246112244Y-52961160D01*
X246109668Y-52919197D01*
X246106062Y-52879793D01*
X246099651Y-52831235D01*
X246091407Y-52787225D01*
X246081332Y-52747765D01*
X246066163Y-52704836D01*
X246055687Y-52682491D01*
X246035580Y-52649842D01*
X246011895Y-52622728D01*
X245984632Y-52601146D01*
X245953792Y-52585099D01*
X245919374Y-52574585D01*
X245889263Y-52570158D01*
X245865177Y-52569162D01*
X245830902Y-52572024D01*
X245799060Y-52580611D01*
X245769651Y-52594922D01*
X245742674Y-52614958D01*
X245718131Y-52640718D01*
X245696020Y-52672202D01*
X245687857Y-52686399D01*
X245669492Y-52724328D01*
X245654240Y-52765453D01*
X245642101Y-52809775D01*
X245633074Y-52857292D01*
X245628094Y-52897608D01*
X245625106Y-52939969D01*
X245624110Y-52984375D01*
X245624110Y-54570000D01*
X244746301Y-54570000D01*
X244746301Y-51756322D01*
X245624110Y-51756322D01*
X245624110Y-52194005D01*
X245632170Y-52194005D01*
X245652585Y-52150253D01*
X245674262Y-52108390D01*
X245697201Y-52068417D01*
X245721402Y-52030332D01*
X245746866Y-51994136D01*
X245773592Y-51959830D01*
X245801580Y-51927412D01*
X245830831Y-51896884D01*
X245861344Y-51868244D01*
X245893118Y-51841494D01*
X245915003Y-51824710D01*
X245948521Y-51801314D01*
X245982580Y-51780220D01*
X246017180Y-51761426D01*
X246052321Y-51744934D01*
X246088003Y-51730743D01*
X246124226Y-51718854D01*
X246160989Y-51709265D01*
X246198294Y-51701978D01*
X246236140Y-51696992D01*
X246274527Y-51694307D01*
X246300418Y-51693796D01*
X246343019Y-51694931D01*
X246384267Y-51698337D01*
X246424163Y-51704014D01*
X246462706Y-51711961D01*
X246499897Y-51722179D01*
X246535736Y-51734668D01*
X246570222Y-51749428D01*
X246603356Y-51766458D01*
X246635137Y-51785759D01*
X246665566Y-51807330D01*
X246694643Y-51831173D01*
X246722367Y-51857286D01*
X246748739Y-51885669D01*
X246773758Y-51916324D01*
X246797425Y-51949249D01*
X246819740Y-51984445D01*
X246840702Y-52021911D01*
X246860312Y-52061648D01*
X246878569Y-52103656D01*
X246895474Y-52147935D01*
X246911027Y-52194484D01*
X246925227Y-52243304D01*
X246938074Y-52294395D01*
X246949570Y-52347756D01*
X246959713Y-52403388D01*
X246968503Y-52461291D01*
X246975942Y-52521464D01*
X246982027Y-52583908D01*
X246986761Y-52648623D01*
X246990142Y-52715609D01*
X246992170Y-52784865D01*
X246992847Y-52856392D01*
X246992847Y-54570000D01*
X246114305Y-54570000D01*
G37*
D13*
%TO.P,U3,*%
%TO.N,*%
X232220000Y-72220000D03*
X232670000Y-71170000D03*
X232670000Y-73270000D03*
X233720000Y-70720000D03*
D14*
X233720000Y-72220000D03*
D13*
X233720000Y-73720000D03*
X234770000Y-71170000D03*
X234770000Y-73270000D03*
X235220000Y-72220000D03*
X250210000Y-93210000D03*
X250660000Y-92160000D03*
X250660000Y-94260000D03*
X251710000Y-91710000D03*
D14*
X251710000Y-93210000D03*
D13*
X251710000Y-94710000D03*
X252760000Y-92160000D03*
X252760000Y-94260000D03*
X253210000Y-93210000D03*
D15*
%TO.P,U3,1,NC*%
%TO.N,unconnected-(U3-NC-Pad1)*%
X237290193Y-88804272D03*
D16*
%TO.P,U3,2,NC*%
%TO.N,unconnected-(U3-NC-Pad2)*%
X237290193Y-87024272D03*
%TO.P,U3,3,VDDPIX*%
%TO.N,Net-(U3-VDDPIX)*%
X237290193Y-85244272D03*
%TO.P,U3,4,VDD*%
%TO.N,2V*%
X237290193Y-83464272D03*
%TO.P,U3,5,VDDIO*%
%TO.N,3V3*%
X237290193Y-81684272D03*
%TO.P,U3,6,NC*%
%TO.N,unconnected-(U3-NC-Pad6)*%
X237290193Y-79904272D03*
%TO.P,U3,7,NRESET*%
%TO.N,unconnected-(U3-NRESET-Pad7)*%
X237290193Y-78124272D03*
%TO.P,U3,8,GND*%
%TO.N,GND*%
X237290193Y-76344272D03*
%TO.P,U3,9,MOTION*%
%TO.N,unconnected-(U3-MOTION-Pad9)*%
X247990193Y-75454272D03*
%TO.P,U3,10,SCLK*%
%TO.N,SCK*%
X247990193Y-77234272D03*
%TO.P,U3,11,MOSI*%
%TO.N,MOSI*%
X247990193Y-79014272D03*
%TO.P,U3,12,MISO*%
%TO.N,MISO*%
X247990193Y-80794272D03*
%TO.P,U3,13,NCS*%
%TO.N,NCS*%
X247990193Y-82574272D03*
%TO.P,U3,14,NC*%
%TO.N,unconnected-(U3-NC-Pad14)*%
X247990193Y-84354272D03*
%TO.P,U3,15,LED_P*%
%TO.N,Net-(U3-LED_P)*%
X247990193Y-86134272D03*
%TO.P,U3,16,NC*%
%TO.N,unconnected-(U3-NC-Pad16)*%
X247990193Y-87914272D03*
%TD*%
D17*
%TO.P,U2,1,SLEEVE*%
%TO.N,GND*%
X258700000Y-78550000D03*
X263300000Y-78550000D03*
%TO.P,U2,2,TIP*%
%TO.N,TX*%
X258700000Y-77450000D03*
X263300000Y-77450000D03*
%TO.P,U2,3,RING1*%
%TO.N,RX*%
X258700000Y-73450000D03*
X263300000Y-73450000D03*
%TO.P,U2,4,RING2*%
%TO.N,5V*%
X258700000Y-70450000D03*
X263300000Y-70450000D03*
%TD*%
D13*
%TO.P,REF\u002A\u002A,*%
%TO.N,*%
X259500000Y-61750000D03*
X259950000Y-60700000D03*
X259950000Y-62800000D03*
X261000000Y-60250000D03*
D14*
X261000000Y-61750000D03*
D13*
X261000000Y-63250000D03*
X262050000Y-60700000D03*
X262050000Y-62800000D03*
X262500000Y-61750000D03*
%TD*%
%TO.P,REF\u002A\u002A,*%
%TO.N,*%
X177700000Y-88600000D03*
X178150000Y-87550000D03*
X178150000Y-89650000D03*
X179200000Y-87100000D03*
D14*
X179200000Y-88600000D03*
D13*
X179200000Y-90100000D03*
X180250000Y-87550000D03*
X180250000Y-89650000D03*
X180700000Y-88600000D03*
%TD*%
D18*
%TO.P,SW14,*%
%TO.N,*%
X241935810Y-108802659D03*
D19*
X247435810Y-108802659D03*
D18*
X252935810Y-108802659D03*
D20*
%TO.P,SW14,1*%
%TO.N,Net-(D14-Pad2)*%
X247435810Y-114702659D03*
%TO.P,SW14,2*%
%TO.N,COL3*%
X242435810Y-112602659D03*
X252435810Y-112602659D03*
%TD*%
D21*
%TO.P,REF\u002A\u002A,*%
%TO.N,*%
X214400000Y-99300000D03*
%TD*%
D13*
%TO.P,REF\u002A\u002A,*%
%TO.N,*%
X237400000Y-115300000D03*
X237850000Y-114250000D03*
X237850000Y-116350000D03*
X238900000Y-113800000D03*
D14*
X238900000Y-115300000D03*
D13*
X238900000Y-116800000D03*
X239950000Y-114250000D03*
X239950000Y-116350000D03*
X240400000Y-115300000D03*
%TD*%
D16*
%TO.P,,*%
%TO.N,LED*%
X227758564Y-46435769D03*
%TD*%
D18*
%TO.P,SW05,*%
%TO.N,*%
X165386692Y-79740283D03*
D19*
X170886692Y-79740283D03*
D18*
X176386692Y-79740283D03*
D20*
%TO.P,SW05,1*%
%TO.N,Net-(D05-Pad2)*%
X170886692Y-85640283D03*
%TO.P,SW05,2*%
%TO.N,COL0*%
X165886692Y-83540283D03*
X175886692Y-83540283D03*
%TD*%
D16*
%TO.P,,*%
%TO.N,ROW0*%
X218708564Y-55585769D03*
%TD*%
%TO.P,,*%
%TO.N,Net-(D13-Pad2)*%
X238958564Y-112050000D03*
%TD*%
D21*
%TO.P,REF\u002A\u002A,*%
%TO.N,*%
X163400000Y-55200000D03*
%TD*%
D16*
%TO.P,,*%
%TO.N,ROW0*%
X196358564Y-52385769D03*
%TD*%
D21*
%TO.P,REF\u002A\u002A,*%
%TO.N,*%
X254900000Y-116335769D03*
%TD*%
D16*
%TO.P,,*%
%TO.N,ROW2*%
X218758564Y-89685769D03*
%TD*%
%TO.P,,*%
%TO.N,Net-(D04-Pad2)*%
X218708564Y-63785769D03*
%TD*%
%TO.P,,*%
%TO.N,Net-(D09-Pad2)*%
X179358564Y-97735769D03*
%TD*%
%TO.P,,*%
%TO.N,Net-(D11-Pad2)*%
X213408564Y-91900000D03*
%TD*%
%TO.P,,*%
%TO.N,TX*%
X255430000Y-77030000D03*
%TD*%
%TO.P,,*%
%TO.N,Net-(D14-Pad2)*%
X244308564Y-114715769D03*
%TD*%
D21*
%TO.P,REF\u002A\u002A,*%
%TO.N,*%
X195400000Y-99300000D03*
%TD*%
D16*
%TO.P,,*%
%TO.N,GND*%
X212500000Y-77750000D03*
%TD*%
D21*
%TO.P,REF\u002A\u002A,*%
%TO.N,*%
X223000000Y-116335769D03*
%TD*%
D16*
%TO.P,,*%
%TO.N,Net-(D05-Pad2)*%
X179358564Y-80435769D03*
%TD*%
D21*
%TO.P,REF\u002A\u002A,*%
%TO.N,*%
X163400000Y-104300000D03*
%TD*%
D16*
%TO.P,,*%
%TO.N,ROW1*%
X218708564Y-72635769D03*
%TD*%
%TO.P,,*%
%TO.N,ROW1*%
X213408564Y-68535769D03*
%TD*%
D18*
%TO.P,SW07,*%
%TO.N,*%
X199387225Y-70203948D03*
D19*
X204887225Y-70203948D03*
D18*
X210387225Y-70203948D03*
D20*
%TO.P,SW07,1*%
%TO.N,Net-(D07-Pad2)*%
X204887225Y-76103948D03*
%TO.P,SW07,2*%
%TO.N,COL2*%
X199887225Y-74003948D03*
X209887225Y-74003948D03*
%TD*%
D13*
%TO.P,REF\u002A\u002A,*%
%TO.N,*%
X261750000Y-114250000D03*
X261300000Y-115300000D03*
X261300000Y-113200000D03*
X260250000Y-115750000D03*
D14*
X260250000Y-114250000D03*
D13*
X260250000Y-112750000D03*
X259200000Y-115300000D03*
X259200000Y-113200000D03*
X258750000Y-114250000D03*
%TD*%
D18*
%TO.P,SW03,*%
%TO.N,*%
X199387224Y-53203948D03*
D19*
X204887224Y-53203948D03*
D18*
X210387224Y-53203948D03*
D20*
%TO.P,SW03,1*%
%TO.N,Net-(D03-Pad2)*%
X204887224Y-59103948D03*
%TO.P,SW03,2*%
%TO.N,COL2*%
X199887224Y-57003948D03*
X209887224Y-57003948D03*
%TD*%
D18*
%TO.P,SW06,*%
%TO.N,*%
X182386930Y-74759163D03*
D19*
X187886930Y-74759163D03*
D18*
X193386930Y-74759163D03*
D20*
%TO.P,SW06,1*%
%TO.N,Net-(D06-Pad2)*%
X187886930Y-80659163D03*
%TO.P,SW06,2*%
%TO.N,COL1*%
X182886930Y-78559163D03*
X192886930Y-78559163D03*
%TD*%
D13*
%TO.P,REF\u002A\u002A,*%
%TO.N,*%
X212550000Y-83650000D03*
X213000000Y-82600000D03*
X213000000Y-84700000D03*
X214050000Y-82150000D03*
D14*
X214050000Y-83650000D03*
D13*
X214050000Y-85150000D03*
X215100000Y-82600000D03*
X215100000Y-84700000D03*
X215550000Y-83650000D03*
%TD*%
D18*
%TO.P,SW10,*%
%TO.N,*%
X182386931Y-91759164D03*
D19*
X187886931Y-91759164D03*
D18*
X193386931Y-91759164D03*
D20*
%TO.P,SW10,1*%
%TO.N,Net-(D10-Pad2)*%
X187886931Y-97659164D03*
%TO.P,SW10,2*%
%TO.N,COL1*%
X182886931Y-95559164D03*
X192886931Y-95559164D03*
%TD*%
D22*
%TO.P,SW15,1*%
%TO.N,Net-(D15-Pad2)*%
X262500000Y-101750000D03*
X262500000Y-108250000D03*
%TO.P,SW15,2*%
%TO.N,COL4*%
X258000000Y-101750000D03*
X258000000Y-108250000D03*
%TD*%
D16*
%TO.P,,*%
%TO.N,ROW2*%
X179408564Y-92085769D03*
%TD*%
D21*
%TO.P,REF\u002A\u002A,*%
%TO.N,*%
X197400000Y-45700000D03*
%TD*%
D18*
%TO.P,SW09,*%
%TO.N,*%
X165386693Y-96740284D03*
D19*
X170886693Y-96740284D03*
D18*
X176386693Y-96740284D03*
D20*
%TO.P,SW09,1*%
%TO.N,Net-(D09-Pad2)*%
X170886693Y-102640284D03*
%TO.P,SW09,2*%
%TO.N,COL0*%
X165886693Y-100540284D03*
X175886693Y-100540284D03*
%TD*%
D23*
%TO.P,REF\u002A\u002A,*%
%TO.N,*%
X254750000Y-46500000D03*
%TD*%
D13*
%TO.P,REF\u002A\u002A,*%
%TO.N,*%
X212650000Y-46950000D03*
X213100000Y-45900000D03*
X213100000Y-48000000D03*
X214150000Y-45450000D03*
D14*
X214150000Y-46950000D03*
D13*
X214150000Y-48450000D03*
X215200000Y-45900000D03*
X215200000Y-48000000D03*
X215650000Y-46950000D03*
%TD*%
D16*
%TO.P,,*%
%TO.N,Net-(D10-Pad2)*%
X196358564Y-92385769D03*
%TD*%
D21*
%TO.P,REF\u002A\u002A,*%
%TO.N,*%
X263500000Y-116250000D03*
%TD*%
D16*
%TO.P,,*%
%TO.N,Net-(D02-Pad2)*%
X196358564Y-58635769D03*
%TD*%
%TO.P,,*%
%TO.N,Net-(D08-Pad2)*%
X218750000Y-80750000D03*
%TD*%
D18*
%TO.P,SW13,*%
%TO.N,*%
X224935575Y-108794157D03*
D19*
X230435575Y-108794157D03*
D18*
X235935575Y-108794157D03*
D20*
%TO.P,SW13,1*%
%TO.N,Net-(D13-Pad2)*%
X230435575Y-114694157D03*
%TO.P,SW13,2*%
%TO.N,COL2*%
X225435575Y-112594157D03*
X235435575Y-112594157D03*
%TD*%
D16*
%TO.P,,*%
%TO.N,ROW1*%
X179358564Y-74835769D03*
%TD*%
D18*
%TO.P,SW12,*%
%TO.N,*%
X216399777Y-91787819D03*
D19*
X221899777Y-91787819D03*
D18*
X227399777Y-91787819D03*
D20*
%TO.P,SW12,1*%
%TO.N,Net-(D12-Pad2)*%
X221899777Y-97687819D03*
%TO.P,SW12,2*%
%TO.N,COL3*%
X216899777Y-95587819D03*
X226899777Y-95587819D03*
%TD*%
D18*
%TO.P,SW08,*%
%TO.N,*%
X216399777Y-74787819D03*
D19*
X221899777Y-74787819D03*
D18*
X227399777Y-74787819D03*
D20*
%TO.P,SW08,1*%
%TO.N,Net-(D08-Pad2)*%
X221899777Y-80687819D03*
%TO.P,SW08,2*%
%TO.N,COL3*%
X216899777Y-78587819D03*
X226899777Y-78587819D03*
%TD*%
D16*
%TO.P,,*%
%TO.N,GND*%
X256500000Y-78750000D03*
%TD*%
D18*
%TO.P,SW11,*%
%TO.N,*%
X199387226Y-87203949D03*
D19*
X204887226Y-87203949D03*
D18*
X210387226Y-87203949D03*
D20*
%TO.P,SW11,1*%
%TO.N,Net-(D11-Pad2)*%
X204887226Y-93103949D03*
%TO.P,SW11,2*%
%TO.N,COL2*%
X199887226Y-91003949D03*
X209887226Y-91003949D03*
%TD*%
D16*
%TO.P,,*%
%TO.N,ROW0*%
X213400000Y-53150000D03*
%TD*%
%TO.P,,*%
%TO.N,Net-(D12-Pad2)*%
X218758564Y-97735769D03*
%TD*%
D21*
%TO.P,REF\u002A\u002A,*%
%TO.N,*%
X263600000Y-45550000D03*
%TD*%
D16*
%TO.P,,*%
%TO.N,Net-(D06-Pad2)*%
X196358564Y-74985769D03*
%TD*%
%TO.P,,*%
%TO.N,Net-(LED01-DIN)*%
X220958564Y-46535769D03*
%TD*%
D18*
%TO.P,SW02,*%
%TO.N,*%
X182386931Y-57759164D03*
D19*
X187886931Y-57759164D03*
D18*
X193386931Y-57759164D03*
D20*
%TO.P,SW02,1*%
%TO.N,Net-(D02-Pad2)*%
X187886931Y-63659164D03*
%TO.P,SW02,2*%
%TO.N,COL1*%
X182886931Y-61559164D03*
X192886931Y-61559164D03*
%TD*%
D16*
%TO.P,,*%
%TO.N,Net-(D03-Pad2)*%
X213350000Y-59100000D03*
%TD*%
D13*
%TO.P,REF\u002A\u002A,*%
%TO.N,*%
X178550000Y-66600000D03*
X179000000Y-65550000D03*
X179000000Y-67650000D03*
X180050000Y-65100000D03*
D14*
X180050000Y-66600000D03*
D13*
X180050000Y-68100000D03*
X181100000Y-65550000D03*
X181100000Y-67650000D03*
X181550000Y-66600000D03*
%TD*%
D16*
%TO.P,,*%
%TO.N,ROW2*%
X196358564Y-86435769D03*
%TD*%
%TO.P,,*%
%TO.N,ROW3*%
X238908564Y-106185769D03*
%TD*%
%TO.P,,*%
%TO.N,Net-(D07-Pad2)*%
X213408564Y-74435769D03*
%TD*%
D18*
%TO.P,SW04,*%
%TO.N,*%
X216399778Y-57787820D03*
D19*
X221899778Y-57787820D03*
D18*
X227399778Y-57787820D03*
D20*
%TO.P,SW04,1*%
%TO.N,Net-(D04-Pad2)*%
X221899778Y-63687820D03*
%TO.P,SW04,2*%
%TO.N,COL3*%
X216899778Y-61587820D03*
X226899778Y-61587820D03*
%TD*%
D21*
%TO.P,REF\u002A\u002A,*%
%TO.N,*%
X180400000Y-50200000D03*
%TD*%
D16*
%TO.P,,*%
%TO.N,ROW1*%
X196408564Y-69135769D03*
%TD*%
%TO.P,,*%
%TO.N,ROW0*%
X179408564Y-57935769D03*
%TD*%
%TO.P,,*%
%TO.N,Net-(D01-Pad2)*%
X179408564Y-63235769D03*
%TD*%
%TO.P,,*%
%TO.N,ROW2*%
X213400000Y-86600000D03*
%TD*%
%TO.P,,*%
%TO.N,ROW3*%
X244308564Y-107235769D03*
%TD*%
D21*
%TO.P,REF\u002A\u002A,*%
%TO.N,*%
X178400000Y-104200000D03*
%TD*%
D16*
%TO.P,,*%
%TO.N,GND*%
X227500000Y-48675000D03*
%TD*%
D18*
%TO.P,SW01,*%
%TO.N,*%
X165386692Y-62740284D03*
D19*
X170886692Y-62740284D03*
D18*
X176386692Y-62740284D03*
D20*
%TO.P,SW01,1*%
%TO.N,Net-(D01-Pad2)*%
X170886692Y-68640284D03*
%TO.P,SW01,2*%
%TO.N,COL0*%
X165886692Y-66540284D03*
X175886692Y-66540284D03*
%TD*%
D13*
%TO.P,REF\u002A\u002A,*%
%TO.N,*%
X195550000Y-79050000D03*
X196000000Y-78000000D03*
X196000000Y-80100000D03*
X197050000Y-77550000D03*
D14*
X197050000Y-79050000D03*
D13*
X197050000Y-80550000D03*
X198100000Y-78000000D03*
X198100000Y-80100000D03*
X198550000Y-79050000D03*
%TD*%
D24*
%TO.P,U1,1,0*%
%TO.N,LED*%
X233525000Y-46280000D03*
%TO.P,U1,2,1*%
%TO.N,ROW0*%
X233525000Y-48820000D03*
%TO.P,U1,3,2*%
%TO.N,ROW1*%
X233525000Y-51360000D03*
%TO.P,U1,4,3*%
%TO.N,ROW2*%
X233525000Y-53900000D03*
%TO.P,U1,5,4*%
%TO.N,ROW3*%
X233525000Y-56440000D03*
%TO.P,U1,6,5*%
%TO.N,unconnected-(U1-5-Pad6)*%
X233525000Y-58980000D03*
%TO.P,U1,7,6*%
%TO.N,unconnected-(U1-6-Pad7)*%
X233525000Y-61520000D03*
%TO.P,U1,8,7*%
%TO.N,unconnected-(U1-7-Pad8)*%
X233525000Y-64060000D03*
%TO.P,U1,9,8*%
%TO.N,COL4*%
X233525000Y-66600000D03*
D25*
%TO.P,U1,10,9*%
%TO.N,NCS*%
X236880000Y-67395000D03*
%TO.P,U1,11,10*%
%TO.N,SCK*%
X239420000Y-67395000D03*
%TO.P,U1,12,11*%
%TO.N,MOSI*%
X241960000Y-67395000D03*
%TO.P,U1,13,12*%
%TO.N,MISO*%
X244500000Y-67395000D03*
%TO.P,U1,14,13*%
%TO.N,unconnected-(U1-13-Pad14)*%
X247040000Y-67395000D03*
D24*
%TO.P,U1,15,14*%
%TO.N,COL3*%
X250395000Y-66600000D03*
%TO.P,U1,16,15*%
%TO.N,COL2*%
X250395000Y-64060000D03*
%TO.P,U1,17,26*%
%TO.N,COL1*%
X250395000Y-61520000D03*
%TO.P,U1,18,27*%
%TO.N,COL0*%
X250395000Y-58980000D03*
%TO.P,U1,19,28*%
%TO.N,TX*%
X250395000Y-56440000D03*
%TO.P,U1,20,29*%
%TO.N,RX*%
X250395000Y-53900000D03*
%TO.P,U1,21,3V3*%
%TO.N,3V3*%
X250395000Y-51360000D03*
%TO.P,U1,22,GND*%
%TO.N,GND*%
X250395000Y-48820000D03*
%TO.P,U1,23,5V*%
%TO.N,5V*%
X250395000Y-46280000D03*
%TD*%
D26*
%TO.P,J1,S1,SHIELD*%
%TO.N,GND*%
X262750000Y-46525000D03*
D27*
X258750000Y-46525000D03*
D26*
X262750000Y-57765000D03*
D27*
X258750000Y-57765000D03*
%TD*%
D28*
%TO.N,ROW1*%
X228750000Y-70250000D03*
X179358564Y-70400000D03*
%TO.N,ROW2*%
X225708564Y-89785769D03*
%TO.N,COL2*%
X223978564Y-96955769D03*
%TO.N,COL3*%
X221300000Y-95587819D03*
X239500000Y-100535769D03*
X239358564Y-95685769D03*
X227708564Y-88785769D03*
%TO.N,ROW3*%
X237958564Y-100535769D03*
X237958564Y-94813319D03*
%TO.N,GND*%
X250500000Y-69250000D03*
X234750000Y-88750000D03*
X214900000Y-92750000D03*
X174650000Y-71150000D03*
X235678564Y-100520269D03*
X192800000Y-87940000D03*
X236700000Y-102800000D03*
X224700000Y-70900000D03*
X199750000Y-84650000D03*
X247417847Y-64500000D03*
X227500000Y-53750000D03*
X202208564Y-72785769D03*
X224700000Y-67100000D03*
X251250000Y-71500000D03*
X261750000Y-82000000D03*
X233600000Y-106400000D03*
X226900000Y-104850000D03*
X201700000Y-67800000D03*
X202208564Y-77700000D03*
X185100000Y-63800000D03*
X224700000Y-80800000D03*
X243700000Y-104750000D03*
X209200000Y-83650000D03*
X262500000Y-90250000D03*
X185100000Y-72300000D03*
X251350000Y-106300000D03*
X224700000Y-77200000D03*
X167708564Y-81935769D03*
X224700000Y-84200000D03*
X223175500Y-100500000D03*
X183070000Y-89460000D03*
X257000000Y-60000000D03*
X201500000Y-84650000D03*
X257000000Y-47250000D03*
X225300000Y-88000000D03*
X179558564Y-81935769D03*
X224700000Y-64600000D03*
X185050000Y-81935769D03*
X259500000Y-85000000D03*
X202200000Y-61300000D03*
X256500000Y-85000000D03*
X235678564Y-94250000D03*
X256500000Y-72000000D03*
%TO.N,Net-(LED01-DIN)*%
X167700000Y-58900000D03*
%TO.N,Net-(LED01-DOUT)*%
X184800000Y-53900000D03*
X182800000Y-55850688D03*
%TO.N,Net-(LED02-DOUT)*%
X200100000Y-51150000D03*
X201850688Y-49399312D03*
%TO.N,Net-(LED04-DOUT)*%
X219200000Y-47500500D03*
X225300000Y-52200000D03*
X165750000Y-77750000D03*
X167600000Y-75900000D03*
%TO.N,Net-(LED05-DOUT)*%
X184200000Y-70800000D03*
X182800000Y-72700000D03*
%TO.N,Net-(LED06-DOUT)*%
X196200000Y-66400000D03*
X201500000Y-66400000D03*
X194000000Y-67300000D03*
X199600000Y-68300000D03*
%TO.N,Net-(LED08-DOUT)*%
X228711397Y-72038603D03*
X167300000Y-87900000D03*
X226925000Y-70325000D03*
X167300000Y-92900000D03*
%TO.N,5V*%
X191458564Y-67250000D03*
X255750000Y-91500000D03*
X194000000Y-64700000D03*
X255750000Y-86750000D03*
%TO.N,3V3*%
X242500000Y-71250000D03*
X246750000Y-71250000D03*
%TO.N,NCS*%
X242750000Y-92750000D03*
D29*
%TO.N,RX*%
X254749500Y-50475000D03*
%TO.N,TX*%
X255375000Y-51600000D03*
X255375000Y-53100000D03*
D28*
%TO.N,COL4*%
X233000000Y-93500000D03*
X233000000Y-97000000D03*
X243000000Y-97000000D03*
X252250000Y-99250000D03*
%TD*%
D30*
%TO.N,Net-(LED01-DIN)*%
X167700000Y-59400000D02*
X167700000Y-58900000D01*
X167200000Y-59900000D02*
X167700000Y-59400000D01*
X165200000Y-59900000D02*
X167200000Y-59900000D01*
X164800000Y-59500000D02*
X165200000Y-59900000D01*
X164800000Y-56400000D02*
X164800000Y-59500000D01*
X165664231Y-55535769D02*
X164800000Y-56400000D01*
X179064231Y-55535769D02*
X165664231Y-55535769D01*
X180300000Y-54300000D02*
X179064231Y-55535769D01*
X180300000Y-52692893D02*
X180300000Y-54300000D01*
X182642893Y-50350000D02*
X180300000Y-52692893D01*
X198000000Y-47300000D02*
X198000000Y-49000000D01*
X196650000Y-50350000D02*
X182642893Y-50350000D01*
X208892875Y-45585769D02*
X199714231Y-45585769D01*
X199714231Y-45585769D02*
X198000000Y-47300000D01*
X215900000Y-49550000D02*
X212857106Y-49550000D01*
X198000000Y-49000000D02*
X196650000Y-50350000D01*
X218914231Y-46535769D02*
X215900000Y-49550000D01*
X212857106Y-49550000D02*
X208892875Y-45585769D01*
X220958564Y-46535769D02*
X218914231Y-46535769D01*
%TO.N,ROW0*%
X182950000Y-50850000D02*
X194822795Y-50850000D01*
X180800000Y-53000000D02*
X182950000Y-50850000D01*
X194822795Y-50850000D02*
X196358564Y-52385769D01*
X180800000Y-56544333D02*
X180800000Y-53000000D01*
X179408564Y-57935769D02*
X180800000Y-56544333D01*
D31*
%TO.N,GND*%
X223175500Y-100500000D02*
X228100000Y-100500000D01*
D30*
%TO.N,COL0*%
X253980000Y-58980000D02*
X249580000Y-58980000D01*
X254433564Y-59433564D02*
X253980000Y-58980000D01*
X254433564Y-95066436D02*
X254433564Y-59433564D01*
X248900000Y-100600000D02*
X254433564Y-95066436D01*
X240900000Y-100600000D02*
X248900000Y-100600000D01*
X239725000Y-99425000D02*
X240900000Y-100600000D01*
X214700000Y-97807106D02*
X216317894Y-99425000D01*
X214700000Y-95632106D02*
X214700000Y-97807106D01*
X216317894Y-99425000D02*
X239725000Y-99425000D01*
X213846843Y-94778949D02*
X214700000Y-95632106D01*
X191725000Y-99125000D02*
X196071051Y-94778949D01*
X196071051Y-94778949D02*
X213846843Y-94778949D01*
X177301977Y-99125000D02*
X191725000Y-99125000D01*
X175886693Y-100540284D02*
X177301977Y-99125000D01*
%TO.N,COL1*%
X194167146Y-94278949D02*
X192886931Y-95559164D01*
X214053949Y-94278949D02*
X194167146Y-94278949D01*
X215200000Y-97600000D02*
X215200000Y-95425000D01*
X240400000Y-98925000D02*
X216525000Y-98925000D01*
X248650000Y-100100000D02*
X241575000Y-100100000D01*
X253933564Y-94816436D02*
X248650000Y-100100000D01*
X216525000Y-98925000D02*
X215200000Y-97600000D01*
X252520000Y-61520000D02*
X253933564Y-62933564D01*
X215200000Y-95425000D02*
X214053949Y-94278949D01*
X241575000Y-100100000D02*
X240400000Y-98925000D01*
X249580000Y-61520000D02*
X252520000Y-61520000D01*
X253933564Y-62933564D02*
X253933564Y-94816436D01*
%TO.N,COL2*%
X252035495Y-64060000D02*
X249580000Y-64060000D01*
X252750000Y-64774505D02*
X252035495Y-64060000D01*
X252750000Y-88957106D02*
X252750000Y-64774505D01*
X225068564Y-98045769D02*
X243661337Y-98045769D01*
X212633277Y-93750000D02*
X209887226Y-91003949D01*
X223978564Y-96955769D02*
X225068564Y-98045769D01*
X220772795Y-93750000D02*
X212633277Y-93750000D01*
X223978564Y-96955769D02*
X220772795Y-93750000D01*
X243661337Y-98045769D02*
X252750000Y-88957106D01*
D31*
%TO.N,GND*%
X217100000Y-86150000D02*
X217100000Y-82400000D01*
X214900000Y-92750000D02*
X214900000Y-88350000D01*
X214900000Y-88350000D02*
X217100000Y-86150000D01*
X245570000Y-48820000D02*
X242205000Y-48820000D01*
X247417847Y-50667847D02*
X245570000Y-48820000D01*
X247417847Y-64500000D02*
X247417847Y-50667847D01*
D30*
%TO.N,ROW0*%
X215785769Y-55585769D02*
X218708564Y-55585769D01*
X229500000Y-48750000D02*
X234270000Y-48750000D01*
X198500000Y-50250000D02*
X198500000Y-47900000D01*
X213400000Y-53200000D02*
X215785769Y-55585769D01*
X218708564Y-55585769D02*
X228158564Y-55585769D01*
X228750000Y-54994333D02*
X228750000Y-49500000D01*
X213400000Y-50800000D02*
X213400000Y-53150000D01*
X228158564Y-55585769D02*
X228750000Y-54994333D01*
X196364231Y-52385769D02*
X198500000Y-50250000D01*
X196358564Y-52385769D02*
X196364231Y-52385769D01*
X198500000Y-47900000D02*
X200314231Y-46085769D01*
X228750000Y-49500000D02*
X229500000Y-48750000D01*
X200314231Y-46085769D02*
X208685769Y-46085769D01*
X234270000Y-48750000D02*
X234340000Y-48820000D01*
X213400000Y-53150000D02*
X213400000Y-53200000D01*
X208685769Y-46085769D02*
X213400000Y-50800000D01*
%TO.N,ROW1*%
X229890000Y-51360000D02*
X234340000Y-51360000D01*
X229250000Y-69750000D02*
X229250000Y-52000000D01*
X179358564Y-70400000D02*
X179358564Y-74835769D01*
X229250000Y-52000000D02*
X229890000Y-51360000D01*
X228750000Y-70250000D02*
X229250000Y-69750000D01*
%TO.N,ROW2*%
X229750000Y-54500000D02*
X230350000Y-53900000D01*
X229750000Y-88744333D02*
X229750000Y-54500000D01*
X228708564Y-89785769D02*
X229750000Y-88744333D01*
X225708564Y-89785769D02*
X228708564Y-89785769D01*
X230350000Y-53900000D02*
X234340000Y-53900000D01*
%TO.N,COL0*%
X165886692Y-83540283D02*
X175886692Y-83540283D01*
X165886692Y-83540283D02*
X163348564Y-86078411D01*
X164283079Y-100540284D02*
X175886693Y-100540284D01*
X163468564Y-68958412D02*
X163468564Y-81122155D01*
X163468564Y-81122155D02*
X165886692Y-83540283D01*
X163348564Y-86078411D02*
X163348564Y-99605769D01*
X165886692Y-66540284D02*
X175886692Y-66540284D01*
X165886692Y-66540284D02*
X163468564Y-68958412D01*
X163348564Y-99605769D02*
X164283079Y-100540284D01*
%TO.N,COL1*%
X182886931Y-95559164D02*
X192886931Y-95559164D01*
X182886930Y-78559163D02*
X192886930Y-78559163D01*
X180738564Y-69461436D02*
X180738564Y-76410797D01*
X180738564Y-76410797D02*
X182886930Y-78559163D01*
X182886930Y-78559163D02*
X181750000Y-79696093D01*
X183100000Y-67100000D02*
X180738564Y-69461436D01*
X180708564Y-93380797D02*
X182886931Y-95559164D01*
X182886931Y-61559164D02*
X192886931Y-61559164D01*
X181750000Y-89774333D02*
X180708564Y-90815769D01*
X180708564Y-90815769D02*
X180708564Y-93380797D01*
X183100000Y-61772233D02*
X183100000Y-67100000D01*
X182886931Y-61559164D02*
X183100000Y-61772233D01*
X181750000Y-79696093D02*
X181750000Y-89774333D01*
%TO.N,COL2*%
X200712226Y-90178949D02*
X199887226Y-91003949D01*
X200712226Y-86655116D02*
X200712226Y-90178949D01*
X200708564Y-86651454D02*
X200712226Y-86655116D01*
X197838564Y-71955287D02*
X199887225Y-74003948D01*
X225435575Y-112594157D02*
X235435575Y-112594157D01*
X199887224Y-57003948D02*
X197838564Y-59052608D01*
X199887225Y-74003948D02*
X200708564Y-74825287D01*
X200708564Y-74825287D02*
X200708564Y-86651454D01*
X199887226Y-91003949D02*
X209887226Y-91003949D01*
X199887224Y-57003948D02*
X209887224Y-57003948D01*
X197838564Y-59052608D02*
X197838564Y-71955287D01*
X199887225Y-74003948D02*
X209887225Y-74003948D01*
%TO.N,COL3*%
X239358564Y-95685769D02*
X239260614Y-95587819D01*
X241025454Y-112602659D02*
X242435810Y-112602659D01*
X251600000Y-66600000D02*
X252250000Y-67250000D01*
X216899778Y-61587820D02*
X226899778Y-61587820D01*
X240358564Y-101394333D02*
X240358564Y-111935769D01*
X239500000Y-100535769D02*
X240358564Y-101394333D01*
X249580000Y-66600000D02*
X251600000Y-66600000D01*
X216899777Y-78587819D02*
X226899777Y-78587819D01*
X245400000Y-95600000D02*
X239444333Y-95600000D01*
D32*
X226899777Y-87976982D02*
X226899777Y-78587819D01*
X227708564Y-88785769D02*
X226899777Y-87976982D01*
D30*
X225899777Y-62587821D02*
X225899777Y-77587819D01*
X239260614Y-95587819D02*
X226899777Y-95587819D01*
X239444333Y-95600000D02*
X239358564Y-95685769D01*
X252435810Y-112602659D02*
X242435810Y-112602659D01*
X252250000Y-88750000D02*
X245400000Y-95600000D01*
X252250000Y-67250000D02*
X252250000Y-88750000D01*
X225899777Y-77587819D02*
X226899777Y-78587819D01*
X226899778Y-61587820D02*
X225899777Y-62587821D01*
X221300000Y-95587819D02*
X216899777Y-95587819D01*
X240358564Y-111935769D02*
X241025454Y-112602659D01*
D32*
%TO.N,ROW3*%
X237958564Y-105235769D02*
X237958564Y-100535769D01*
X232877834Y-95000000D02*
X230250000Y-92372166D01*
X237771883Y-95000000D02*
X232877834Y-95000000D01*
X230250000Y-92372166D02*
X230250000Y-57000000D01*
X237958564Y-94813319D02*
X237771883Y-95000000D01*
X230810000Y-56440000D02*
X234340000Y-56440000D01*
X230250000Y-57000000D02*
X230810000Y-56440000D01*
X238908564Y-106185769D02*
X237958564Y-105235769D01*
D31*
%TO.N,GND*%
X225300000Y-84800000D02*
X225300000Y-88000000D01*
X224700000Y-64600000D02*
X224700000Y-67100000D01*
X215958564Y-73035769D02*
X214658564Y-74335769D01*
X195350000Y-82500000D02*
X193400000Y-82500000D01*
X249580000Y-48820000D02*
X242205000Y-48820000D01*
X217100000Y-82175000D02*
X212625000Y-77700000D01*
X224700000Y-70900000D02*
X224700000Y-77200000D01*
X223200000Y-82300000D02*
X224700000Y-80800000D01*
X174650000Y-79690283D02*
X172400000Y-81940283D01*
X224700000Y-84200000D02*
X225300000Y-84800000D01*
X167713078Y-81940283D02*
X172400000Y-81940283D01*
X174650000Y-71150000D02*
X174650000Y-79690283D01*
X197500000Y-84650000D02*
X195350000Y-82500000D01*
X208200000Y-84650000D02*
X209200000Y-83650000D01*
X224700000Y-67100000D02*
X224700000Y-70900000D01*
X236708564Y-102758564D02*
X236708564Y-102791436D01*
X215958564Y-64035769D02*
X215958564Y-73035769D01*
X250500000Y-69250000D02*
X251250000Y-70000000D01*
X227500000Y-53750000D02*
X227500000Y-48675000D01*
X236708564Y-101550269D02*
X235678564Y-100520269D01*
X192800000Y-83100000D02*
X193400000Y-82500000D01*
X236708564Y-102791436D02*
X236700000Y-102800000D01*
X214658564Y-75541436D02*
X209200000Y-81000000D01*
X172400000Y-81940283D02*
X179554050Y-81940283D01*
X202200000Y-68300000D02*
X201700000Y-67800000D01*
X185050000Y-81935769D02*
X185614231Y-82500000D01*
X228635000Y-47540000D02*
X240925000Y-47540000D01*
X233500000Y-77250000D02*
X234395728Y-76354272D01*
X183070000Y-89460000D02*
X183080000Y-89450000D01*
X256500000Y-60500000D02*
X257000000Y-60000000D01*
X226900000Y-105900000D02*
X227400000Y-106400000D01*
X240925000Y-47540000D02*
X242205000Y-48820000D01*
X192800000Y-87940000D02*
X192800000Y-83100000D01*
X259500000Y-85000000D02*
X261750000Y-85000000D01*
X261750000Y-85000000D02*
X262500000Y-85750000D01*
X251100000Y-106550000D02*
X251350000Y-106300000D01*
X185614231Y-82500000D02*
X193400000Y-82500000D01*
X234395728Y-76354272D02*
X237290193Y-76354272D01*
X202208564Y-72785769D02*
X202200000Y-72777205D01*
X227500000Y-48675000D02*
X228635000Y-47540000D01*
X214658564Y-74335769D02*
X214658564Y-75541436D01*
X251250000Y-70000000D02*
X251250000Y-71500000D01*
X255430000Y-48820000D02*
X257000000Y-47250000D01*
X234750000Y-88750000D02*
X234000000Y-88750000D01*
X227400000Y-106400000D02*
X233600000Y-106400000D01*
X226900000Y-104850000D02*
X226900000Y-105900000D01*
X261750000Y-85000000D02*
X261750000Y-82000000D01*
X261750000Y-82000000D02*
X263300000Y-80450000D01*
X217200000Y-82300000D02*
X223200000Y-82300000D01*
X262500000Y-85750000D02*
X262500000Y-90250000D01*
X213222795Y-61300000D02*
X215958564Y-64035769D01*
X202208564Y-77700000D02*
X212500000Y-77700000D01*
X249580000Y-48820000D02*
X255430000Y-48820000D01*
X256500000Y-72000000D02*
X256500000Y-60500000D01*
X167708564Y-81935769D02*
X167713078Y-81940283D01*
X224700000Y-80800000D02*
X224700000Y-84200000D01*
X256500000Y-85000000D02*
X256500000Y-78750000D01*
X183080000Y-89450000D02*
X191290000Y-89450000D01*
X202200000Y-61300000D02*
X213222795Y-61300000D01*
X191290000Y-89450000D02*
X192800000Y-87940000D01*
X202200000Y-72777205D02*
X202200000Y-68300000D01*
X234000000Y-88750000D02*
X233500000Y-88250000D01*
X226900000Y-101700000D02*
X226900000Y-104850000D01*
X263300000Y-80450000D02*
X263300000Y-78900000D01*
X217100000Y-82400000D02*
X217200000Y-82300000D01*
X243700000Y-104750000D02*
X245500000Y-106550000D01*
X212625000Y-77700000D02*
X212500000Y-77700000D01*
X201500000Y-84650000D02*
X208200000Y-84650000D01*
X236708564Y-102758564D02*
X236708564Y-101550269D01*
X235658295Y-100500000D02*
X235678564Y-100520269D01*
X233500000Y-88250000D02*
X233500000Y-77250000D01*
X228100000Y-100500000D02*
X235658295Y-100500000D01*
X217100000Y-82400000D02*
X217100000Y-82175000D01*
X185100000Y-63800000D02*
X185100000Y-72300000D01*
X199750000Y-84650000D02*
X197500000Y-84650000D01*
X245500000Y-106550000D02*
X251100000Y-106550000D01*
X228100000Y-100500000D02*
X226900000Y-101700000D01*
X209200000Y-81000000D02*
X209200000Y-83650000D01*
X259500000Y-85000000D02*
X256500000Y-85000000D01*
X234750000Y-93321436D02*
X234750000Y-88750000D01*
X179554050Y-81940283D02*
X179558564Y-81935769D01*
X235678564Y-94250000D02*
X234750000Y-93321436D01*
D30*
%TO.N,LED*%
X234188564Y-46435769D02*
X234338564Y-46285769D01*
X227758564Y-46435769D02*
X234188564Y-46435769D01*
D31*
%TO.N,Net-(LED01-DOUT)*%
X182800000Y-55850688D02*
X182849312Y-55850688D01*
X182849312Y-55850688D02*
X184800000Y-53900000D01*
D30*
%TO.N,Net-(LED02-DOUT)*%
X200100000Y-51150000D02*
X201850688Y-49399312D01*
%TO.N,Net-(LED04-DOUT)*%
X165750000Y-77750000D02*
X167600000Y-75900000D01*
X225300000Y-50700000D02*
X225300000Y-52200000D01*
X222200000Y-47600000D02*
X225300000Y-50700000D01*
X219299500Y-47600000D02*
X222200000Y-47600000D01*
X219200000Y-47500500D02*
X219299500Y-47600000D01*
%TO.N,Net-(LED05-DOUT)*%
X184200000Y-71300000D02*
X184200000Y-70800000D01*
X182800000Y-72700000D02*
X184200000Y-71300000D01*
%TO.N,Net-(LED06-DOUT)*%
X199600000Y-68300000D02*
X201500000Y-66400000D01*
X194000000Y-67300000D02*
X194900000Y-66400000D01*
X194900000Y-66400000D02*
X196200000Y-66400000D01*
%TO.N,Net-(LED08-DOUT)*%
X226925000Y-70325000D02*
X226997794Y-70325000D01*
X226997794Y-70325000D02*
X228711397Y-72038603D01*
X167300000Y-87900000D02*
X167300000Y-92900000D01*
D31*
%TO.N,5V*%
X255750000Y-91500000D02*
X255750000Y-86750000D01*
X194000000Y-64700000D02*
X191458564Y-67241436D01*
X191458564Y-67241436D02*
X191458564Y-67250000D01*
%TO.N,3V3*%
X246750000Y-71250000D02*
X242500000Y-71250000D01*
D30*
%TO.N,NCS*%
X249250000Y-83225000D02*
X248609272Y-82584272D01*
X248609272Y-82584272D02*
X247990193Y-82584272D01*
X247250000Y-92750000D02*
X249250000Y-90750000D01*
X242750000Y-92750000D02*
X247250000Y-92750000D01*
X249250000Y-90750000D02*
X249250000Y-83225000D01*
%TO.N,MOSI*%
X241960000Y-69460000D02*
X242475000Y-69975000D01*
X251750000Y-73750000D02*
X251750000Y-78500000D01*
X251225728Y-79024272D02*
X247990193Y-79024272D01*
X242475000Y-69975000D02*
X247975000Y-69975000D01*
X251750000Y-78500000D02*
X251225728Y-79024272D01*
X241960000Y-66600000D02*
X241960000Y-69460000D01*
X247975000Y-69975000D02*
X251750000Y-73750000D01*
%TO.N,SCK*%
X239500000Y-69500000D02*
X240475000Y-70475000D01*
X239420000Y-66600000D02*
X239500000Y-66680000D01*
X239500000Y-66680000D02*
X239500000Y-69500000D01*
X240475000Y-70475000D02*
X247725000Y-70475000D01*
X250750000Y-77244272D02*
X247990193Y-77244272D01*
X247725000Y-70475000D02*
X251250000Y-74000000D01*
X251250000Y-74000000D02*
X251250000Y-76744272D01*
X251250000Y-76744272D02*
X250750000Y-77244272D01*
D32*
%TO.N,RX*%
X256025000Y-56225000D02*
X255358564Y-56891436D01*
X255475000Y-50475000D02*
X256025000Y-51025000D01*
X253675000Y-53900000D02*
X249580000Y-53900000D01*
X254749500Y-50475000D02*
X254550000Y-50674500D01*
X258700000Y-73450000D02*
X263300000Y-73450000D01*
X255358564Y-72858564D02*
X255950000Y-73450000D01*
X254550000Y-53025000D02*
X253675000Y-53900000D01*
X255950000Y-73450000D02*
X258700000Y-73450000D01*
X254550000Y-50674500D02*
X254550000Y-53025000D01*
X255358564Y-56891436D02*
X255358564Y-72858564D01*
X256025000Y-51025000D02*
X256025000Y-56225000D01*
X254749500Y-50475000D02*
X255475000Y-50475000D01*
%TO.N,TX*%
X254908564Y-56788564D02*
X254560000Y-56440000D01*
X254560000Y-56440000D02*
X249580000Y-56440000D01*
X254908564Y-76508564D02*
X254908564Y-56788564D01*
X255430000Y-77030000D02*
X258530000Y-77030000D01*
X255375000Y-51600000D02*
X255375000Y-55625000D01*
X255375000Y-55625000D02*
X254560000Y-56440000D01*
X255430000Y-77030000D02*
X254908564Y-76508564D01*
X258530000Y-77030000D02*
X258700000Y-77200000D01*
%TO.N,COL4*%
X231900000Y-66600000D02*
X234340000Y-66600000D01*
X233000000Y-97000000D02*
X243000000Y-97000000D01*
X231500000Y-67000000D02*
X231500000Y-92000000D01*
X231500000Y-92000000D02*
X233000000Y-93500000D01*
X258000000Y-101750000D02*
X258000000Y-108250000D01*
X257000000Y-99250000D02*
X258000000Y-100250000D01*
X252250000Y-99250000D02*
X257000000Y-99250000D01*
X231500000Y-67000000D02*
X231900000Y-66600000D01*
X258000000Y-100250000D02*
X258000000Y-101750000D01*
%TD*%
M02*
