%TF.GenerationSoftware,KiCad,Pcbnew,7.0.2*%
%TF.CreationDate,2024-03-04T12:18:32-06:00*%
%TF.ProjectId,01_capsule5_left,30315f63-6170-4737-956c-65355f6c6566,v1.0.0*%
%TF.SameCoordinates,Original*%
%TF.FileFunction,Paste,Bot*%
%TF.FilePolarity,Positive*%
%FSLAX46Y46*%
G04 Gerber Fmt 4.6, Leading zero omitted, Abs format (unit mm)*
G04 Created by KiCad (PCBNEW 7.0.2) date 2024-03-04 12:18:32*
%MOMM*%
%LPD*%
G01*
G04 APERTURE LIST*
G04 Aperture macros list*
%AMRoundRect*
0 Rectangle with rounded corners*
0 $1 Rounding radius*
0 $2 $3 $4 $5 $6 $7 $8 $9 X,Y pos of 4 corners*
0 Add a 4 corners polygon primitive as box body*
4,1,4,$2,$3,$4,$5,$6,$7,$8,$9,$2,$3,0*
0 Add four circle primitives for the rounded corners*
1,1,$1+$1,$2,$3*
1,1,$1+$1,$4,$5*
1,1,$1+$1,$6,$7*
1,1,$1+$1,$8,$9*
0 Add four rect primitives between the rounded corners*
20,1,$1+$1,$2,$3,$4,$5,0*
20,1,$1+$1,$4,$5,$6,$7,0*
20,1,$1+$1,$6,$7,$8,$9,0*
20,1,$1+$1,$8,$9,$2,$3,0*%
G04 Aperture macros list end*
%ADD10RoundRect,0.112500X-0.187500X-0.112500X0.187500X-0.112500X0.187500X0.112500X-0.187500X0.112500X0*%
%ADD11RoundRect,0.225000X0.250000X-0.225000X0.250000X0.225000X-0.250000X0.225000X-0.250000X-0.225000X0*%
%ADD12RoundRect,0.112500X-0.112500X0.187500X-0.112500X-0.187500X0.112500X-0.187500X0.112500X0.187500X0*%
%ADD13RoundRect,0.225000X0.225000X0.250000X-0.225000X0.250000X-0.225000X-0.250000X0.225000X-0.250000X0*%
%ADD14R,0.700000X1.300000*%
%ADD15O,1.200000X0.750000*%
%ADD16O,2.100000X0.750000*%
%ADD17O,1.400000X0.750000*%
%ADD18R,0.650000X1.560000*%
%ADD19RoundRect,0.225000X-0.225000X-0.250000X0.225000X-0.250000X0.225000X0.250000X-0.225000X0.250000X0*%
%ADD20R,1.100000X0.600000*%
%ADD21R,1.100000X0.300000*%
%ADD22R,1.300000X0.700000*%
%ADD23RoundRect,0.225000X-0.250000X0.225000X-0.250000X-0.225000X0.250000X-0.225000X0.250000X0.225000X0*%
G04 APERTURE END LIST*
D10*
%TO.C,D15*%
X262600000Y-111000000D03*
X260500000Y-111000000D03*
%TD*%
D11*
%TO.C,C6*%
X182800000Y-70575000D03*
X182800000Y-69025000D03*
%TD*%
D12*
%TO.C,D14*%
X244308564Y-108685769D03*
X244308564Y-110785769D03*
%TD*%
D11*
%TO.C,C2*%
X183500000Y-53650000D03*
X183500000Y-52100000D03*
%TD*%
D12*
%TO.C,D06*%
X196358564Y-71235769D03*
X196358564Y-73335769D03*
%TD*%
D11*
%TO.C,C3*%
X200500000Y-49250000D03*
X200500000Y-47700000D03*
%TD*%
%TO.C,C13*%
X225250000Y-104800000D03*
X225250000Y-103250000D03*
%TD*%
D13*
%TO.C,C4*%
X222525000Y-49700000D03*
X220975000Y-49700000D03*
%TD*%
D12*
%TO.C,D07*%
X213408564Y-70485769D03*
X213408564Y-72585769D03*
%TD*%
D14*
%TO.C,R1*%
X225408564Y-46535769D03*
X223508564Y-46535769D03*
%TD*%
D15*
%TO.C,LED02*%
X186450000Y-53900000D03*
D16*
X186900000Y-52150000D03*
D17*
X189150000Y-52150000D03*
D16*
X188800000Y-53900000D03*
%TD*%
D11*
%TO.C,C14*%
X242000000Y-104750000D03*
X242000000Y-103200000D03*
%TD*%
D15*
%TO.C,LED09*%
X169425000Y-92955000D03*
D16*
X169875000Y-91205000D03*
D17*
X172125000Y-91205000D03*
D16*
X171775000Y-92955000D03*
%TD*%
D18*
%TO.C,IC1*%
X258600000Y-86800000D03*
X259550000Y-86800000D03*
X260500000Y-86800000D03*
X260500000Y-89500000D03*
X258600000Y-89500000D03*
%TD*%
D12*
%TO.C,D13*%
X238908564Y-107835769D03*
X238908564Y-109935769D03*
%TD*%
D11*
%TO.C,C11*%
X199750000Y-83025000D03*
X199750000Y-81475000D03*
%TD*%
D12*
%TO.C,D08*%
X218708564Y-74385769D03*
X218708564Y-76485769D03*
%TD*%
D15*
%TO.C,LED12*%
X220550000Y-88000000D03*
D16*
X221000000Y-86250000D03*
D17*
X223250000Y-86250000D03*
D16*
X222900000Y-88000000D03*
%TD*%
D11*
%TO.C,C5*%
X166200000Y-75800000D03*
X166200000Y-74250000D03*
%TD*%
D19*
%TO.C,C16*%
X258500000Y-82000000D03*
X260050000Y-82000000D03*
%TD*%
D15*
%TO.C,LED10*%
X186450000Y-87950000D03*
D16*
X186900000Y-86200000D03*
D17*
X189150000Y-86200000D03*
D16*
X188800000Y-87950000D03*
%TD*%
D11*
%TO.C,C1*%
X166370000Y-58825000D03*
X166370000Y-57275000D03*
%TD*%
D15*
%TO.C,LED04*%
X220500000Y-53950000D03*
D16*
X220950000Y-52200000D03*
D17*
X223200000Y-52200000D03*
D16*
X222850000Y-53950000D03*
%TD*%
D14*
%TO.C,R5*%
X242550000Y-72750000D03*
X244450000Y-72750000D03*
%TD*%
%TO.C,R3*%
X260450000Y-94750000D03*
X258550000Y-94750000D03*
%TD*%
D11*
%TO.C,C7*%
X200100000Y-66250000D03*
X200100000Y-64700000D03*
%TD*%
D12*
%TO.C,D04*%
X218708564Y-57285769D03*
X218708564Y-59385769D03*
%TD*%
D11*
%TO.C,C10*%
X183100000Y-87775000D03*
X183100000Y-86225000D03*
%TD*%
D15*
%TO.C,LED05*%
X169425000Y-75955000D03*
D16*
X169875000Y-74205000D03*
D17*
X172125000Y-74205000D03*
D16*
X171775000Y-75955000D03*
%TD*%
D12*
%TO.C,D01*%
X179408564Y-59585769D03*
X179408564Y-61685769D03*
%TD*%
%TO.C,D10*%
X196358564Y-88335769D03*
X196358564Y-90435769D03*
%TD*%
D15*
%TO.C,LED06*%
X186450000Y-70900000D03*
D16*
X186900000Y-69150000D03*
D17*
X189150000Y-69150000D03*
D16*
X188800000Y-70900000D03*
%TD*%
D20*
%TO.C,J1*%
X257600000Y-48945000D03*
X257600000Y-49745000D03*
D21*
X257600000Y-50895000D03*
X257600000Y-51895000D03*
X257600000Y-52395000D03*
X257600000Y-53395000D03*
D20*
X257600000Y-54545000D03*
X257600000Y-55345000D03*
X257600000Y-55345000D03*
X257600000Y-54545000D03*
D21*
X257600000Y-53895000D03*
X257600000Y-52895000D03*
X257600000Y-51395000D03*
X257600000Y-50395000D03*
D20*
X257600000Y-49745000D03*
X257600000Y-48945000D03*
%TD*%
D22*
%TO.C,R4*%
X251000000Y-88200000D03*
X251000000Y-86300000D03*
%TD*%
D15*
%TO.C,LED07*%
X203450000Y-66350000D03*
D16*
X203900000Y-64600000D03*
D17*
X206150000Y-64600000D03*
D16*
X205800000Y-66350000D03*
%TD*%
D14*
%TO.C,R2*%
X260550000Y-92250000D03*
X262450000Y-92250000D03*
%TD*%
D12*
%TO.C,D05*%
X179358564Y-76485769D03*
X179358564Y-78585769D03*
%TD*%
D15*
%TO.C,LED03*%
X203500000Y-49450000D03*
D16*
X203950000Y-47700000D03*
D17*
X206200000Y-47700000D03*
D16*
X205850000Y-49450000D03*
%TD*%
D12*
%TO.C,D09*%
X179408564Y-93985769D03*
X179408564Y-96085769D03*
%TD*%
D19*
%TO.C,C15*%
X258700000Y-97500000D03*
X260250000Y-97500000D03*
%TD*%
D15*
%TO.C,LED08*%
X220500000Y-70950000D03*
D16*
X220950000Y-69200000D03*
D17*
X223200000Y-69200000D03*
D16*
X222850000Y-70950000D03*
%TD*%
D15*
%TO.C,LED11*%
X203475000Y-83405000D03*
D16*
X203925000Y-81655000D03*
D17*
X206175000Y-81655000D03*
D16*
X205825000Y-83405000D03*
%TD*%
D12*
%TO.C,D12*%
X218758564Y-91285769D03*
X218758564Y-93385769D03*
%TD*%
D13*
%TO.C,C8*%
X222075000Y-67100000D03*
X220525000Y-67100000D03*
%TD*%
D15*
%TO.C,LED14*%
X246050000Y-105000000D03*
D16*
X246500000Y-103250000D03*
D17*
X248750000Y-103250000D03*
D16*
X248400000Y-105000000D03*
%TD*%
D15*
%TO.C,LED13*%
X229000000Y-105000000D03*
D16*
X229450000Y-103250000D03*
D17*
X231700000Y-103250000D03*
D16*
X231350000Y-105000000D03*
%TD*%
D15*
%TO.C,LED01*%
X169500000Y-58950000D03*
D16*
X169950000Y-57200000D03*
D17*
X172200000Y-57200000D03*
D16*
X171850000Y-58950000D03*
%TD*%
D23*
%TO.C,C17*%
X234750000Y-85200000D03*
X234750000Y-86750000D03*
%TD*%
D12*
%TO.C,D11*%
X213400000Y-88200000D03*
X213400000Y-90300000D03*
%TD*%
%TO.C,D02*%
X196358564Y-54485769D03*
X196358564Y-56585769D03*
%TD*%
D11*
%TO.C,C9*%
X165700000Y-92750000D03*
X165700000Y-91200000D03*
%TD*%
D13*
%TO.C,C12*%
X222200000Y-84250000D03*
X220650000Y-84250000D03*
%TD*%
D12*
%TO.C,D03*%
X213358564Y-54950000D03*
X213358564Y-57050000D03*
%TD*%
M02*
