%TF.GenerationSoftware,KiCad,Pcbnew,7.0.2*%
%TF.CreationDate,2024-03-04T12:30:01-06:00*%
%TF.ProjectId,brkn_covers,62726b6e-5f63-46f7-9665-72732e6b6963,rev?*%
%TF.SameCoordinates,Original*%
%TF.FileFunction,Soldermask,Bot*%
%TF.FilePolarity,Negative*%
%FSLAX46Y46*%
G04 Gerber Fmt 4.6, Leading zero omitted, Abs format (unit mm)*
G04 Created by KiCad (PCBNEW 7.0.2) date 2024-03-04 12:30:01*
%MOMM*%
%LPD*%
G01*
G04 APERTURE LIST*
%ADD10C,0.400000*%
%ADD11C,3.600000*%
%ADD12C,1.500000*%
G04 APERTURE END LIST*
D10*
%TO.C,Cover*%
X121535000Y-65610000D03*
X121985000Y-64560000D03*
X121985000Y-66660000D03*
X123035000Y-64110000D03*
D11*
X123035000Y-65610000D03*
D10*
X123035000Y-67110000D03*
X124085000Y-64560000D03*
X124085000Y-66660000D03*
X124535000Y-65610000D03*
X139525000Y-86600000D03*
X139975000Y-85550000D03*
X139975000Y-87650000D03*
X141025000Y-85100000D03*
D11*
X141025000Y-86600000D03*
D10*
X141025000Y-88100000D03*
X142075000Y-85550000D03*
X142075000Y-87650000D03*
X142525000Y-86600000D03*
%TD*%
D12*
%TO.C,U1*%
X101430000Y-65990000D03*
X101430000Y-68530000D03*
X101430000Y-71070000D03*
X101430000Y-73610000D03*
X101430000Y-76150000D03*
X101430000Y-78690000D03*
X101430000Y-81230000D03*
X101430000Y-83770000D03*
X101430000Y-86310000D03*
X103970000Y-86310000D03*
X106510000Y-86310000D03*
X109050000Y-86310000D03*
X111590000Y-86310000D03*
X114130000Y-86310000D03*
X116670000Y-65990000D03*
X116670000Y-68530000D03*
X116670000Y-71070000D03*
X116670000Y-73610000D03*
X116670000Y-76150000D03*
X116670000Y-78690000D03*
X116670000Y-81230000D03*
X116670000Y-83770000D03*
X116670000Y-86310000D03*
%TD*%
M02*
