M48
; DRILL file {KiCad 7.0.2} date Mon Mar  4 12:30:03 2024
; FORMAT={-:-/ absolute / metric / decimal}
; #@! TF.CreationDate,2024-03-04T12:30:03-06:00
; #@! TF.GenerationSoftware,Kicad,Pcbnew,7.0.2
; #@! TF.FileFunction,Plated,1,2,PTH
FMAT,2
METRIC
; #@! TA.AperFunction,Plated,PTH,ComponentDrill
T1C0.400
; #@! TA.AperFunction,Plated,PTH,ComponentDrill
T2C1.000
; #@! TA.AperFunction,Plated,PTH,ComponentDrill
T3C2.200
%
G90
G05
T1
X121.535Y-65.61
X121.985Y-64.56
X121.985Y-66.66
X123.035Y-64.11
X123.035Y-67.11
X124.085Y-64.56
X124.085Y-66.66
X124.535Y-65.61
X139.525Y-86.6
X139.975Y-85.55
X139.975Y-87.65
X141.025Y-85.1
X141.025Y-88.1
X142.075Y-85.55
X142.075Y-87.65
X142.525Y-86.6
T2
X101.43Y-65.99
X101.43Y-68.53
X101.43Y-71.07
X101.43Y-73.61
X101.43Y-76.15
X101.43Y-78.69
X101.43Y-81.23
X101.43Y-83.77
X101.43Y-86.31
X103.97Y-86.31
X106.51Y-86.31
X109.05Y-86.31
X111.59Y-86.31
X114.13Y-86.31
X116.67Y-65.99
X116.67Y-68.53
X116.67Y-71.07
X116.67Y-73.61
X116.67Y-76.15
X116.67Y-78.69
X116.67Y-81.23
X116.67Y-83.77
X116.67Y-86.31
T3
X123.035Y-65.61
X141.025Y-86.6
T0
M30
